STARTFONT 2.1
COMMENT
COMMENT Converted from OpenType font "Q:\font stuff\winfont\ZapfinoExtraLT-Two.otf" by "otf2bdf 3.0".
COMMENT
FONT -FreeType-Zapfino Extra LT Two-Medium-R-Normal--72-720-72-72-P-363-ISO10646-1
SIZE 72 72 72
FONTBOUNDINGBOX 136 101 -44 -40
STARTPROPERTIES 19
FOUNDRY "FreeType"
FAMILY_NAME "Zapfino Extra LT Two"
WEIGHT_NAME "Medium"
SLANT "R"
SETWIDTH_NAME "Normal"
ADD_STYLE_NAME ""
PIXEL_SIZE 72
POINT_SIZE 720
RESOLUTION_X 72
RESOLUTION_Y 72
SPACING "P"
AVERAGE_WIDTH 363
CHARSET_REGISTRY "ISO10646"
CHARSET_ENCODING "1"
FONT_ASCENT 49
FONT_DESCENT 37
COPYRIGHT "Copyright (c) 2003 Linotype Library GmbH, www.linotype.com. All rights reserved. This software may not be reproduced, used, displayed, modified, disclosed or transferred without the express written approval of Linotype Library GmbH. Zapfino is a trademark of Heidelberger Druckmaschinen AG, exclusively licensed through Linotype Library GmbH, and may be registered in certain jurisdictions. The typeface is original artwork of Hermann Zapf. The design may be protected in certain jurisdictions."
_OTF_FONTFILE "Q:\font stuff\winfont\ZapfinoExtraLT-Two.otf"
_OTF_PSNAME "ZapfinoExtraLT-Two"
ENDPROPERTIES
CHARS 371
STARTCHAR 000D
ENCODING 13
SWIDTH 0 0
DWIDTH 0 0
BBX 0 0 0 0
BITMAP
ENDCHAR
STARTCHAR 0020
ENCODING 32
SWIDTH 194 0
DWIDTH 14 0
BBX 0 0 0 0
BITMAP
ENDCHAR
STARTCHAR 0021
ENCODING 33
SWIDTH 222 0
DWIDTH 16 0
BBX 18 30 7 0
BITMAP
0007C0
000F00
001E00
001C00
003800
003000
007000
006000
004000
00C000
008000
018000
010000
030000
020000
020000
040000
040000
040000
080000
080000
100000
100000
000000
000000
000000
700000
F00000
F00000
E00000
ENDCHAR
STARTCHAR 0022
ENCODING 34
SWIDTH 333 0
DWIDTH 24 0
BBX 19 19 12 16
BITMAP
001C60
0018E0
0031C0
007180
006380
00C700
00C600
018C00
030C00
021800
063000
042000
086000
184000
108000
210000
410000
420000
800000
ENDCHAR
STARTCHAR 0023
ENCODING 35
SWIDTH 333 0
DWIDTH 24 0
BBX 24 30 6 2
BITMAP
000002
000042
000084
000084
000108
000210
000210
000420
003FFF
007FFC
00FFF8
001080
002100
002100
004200
008400
008400
010800
03FF00
3FFF80
7FFF00
042000
084000
104000
108000
210000
610000
420000
C20000
800000
ENDCHAR
STARTCHAR 0024
ENCODING 36
SWIDTH 375 0
DWIDTH 27 0
BBX 28 51 2 -15
BITMAP
00000010
00000030
00000020
00000060
00001FC0
00007FC0
00018F80
00020780
00040380
00080380
00080480
00100400
00100800
00100800
00301000
00381000
003C2000
003FA000
001FF000
0003FC00
0000FF00
00011F00
00010780
00020780
00020380
00040380
00080380
00080300
00100300
00100200
00200600
00200400
80400800
80401000
C0802000
E080C000
79030000
3FFC0000
0FC00000
04000000
0C000000
08000000
18000000
10000000
30000000
20000000
60000000
40000000
C0000000
80000000
80000000
ENDCHAR
STARTCHAR 0025
ENCODING 37
SWIDTH 625 0
DWIDTH 45 0
BBX 36 39 7 -7
BITMAP
0001FFF000
0001FFF800
0006401800
0008600800
0010600800
0020600800
0060601000
0040601000
00C0C02000
00C0C04000
0180804000
0181008000
0183010000
0182020000
01CC020000
00F0040000
0000080000
0000100000
0000200C00
0000400FF0
0000803F00
000080CF00
0001014F00
0002068F00
0004190F00
0008230E00
0010C30E00
0021061C00
0046061C00
0088061800
01B0063000
0340066000
0780038000
0E00000000
1C00000000
3800000000
7000000000
C000000000
8000000000
ENDCHAR
STARTCHAR 0026
ENCODING 38
SWIDTH 597 0
DWIDTH 43 0
BBX 36 34 6 0
BITMAP
00003F8000
0000C78000
000101C000
000201C000
0002008000
0004000000
000C000000
000C000000
000C000000
000C000000
000C000000
003FF00000
00C6180000
0303E00000
0400000000
0800000000
18000000F0
3000FC0110
70031F0210
6002078410
E00403E820
E00400F040
E006007F80
E000002400
E000004000
E000008000
F000010000
F000020000
7800040000
7C00080000
3E00100000
1F80E00000
07FF000000
0060000000
ENDCHAR
STARTCHAR 0027
ENCODING 39
SWIDTH 222 0
DWIDTH 16 0
BBX 11 16 13 19
BITMAP
00E0
01C0
0180
0380
0300
0600
0600
0C00
1800
1800
3000
2000
6000
4000
8000
8000
ENDCHAR
STARTCHAR 0028
ENCODING 40
SWIDTH 402 0
DWIDTH 29 0
BBX 30 49 15 -5
BITMAP
00000004
00000018
00000020
000000C0
00000100
00000200
00000C00
00001800
00003000
00006000
0000C000
00018000
00030000
00060000
000E0000
000C0000
00180000
00300000
00700000
00600000
00C00000
01C00000
01800000
03800000
07000000
06000000
0E000000
0C000000
1C000000
18000000
18000000
38000000
30000000
70000000
70000000
60000000
E0000000
E0000000
C0000000
C0000000
C0000000
C0000000
C0000000
40000000
60000000
20000000
20000000
10000000
08000000
ENDCHAR
STARTCHAR 0029
ENCODING 41
SWIDTH 402 0
DWIDTH 29 0
BBX 30 49 2 -5
BITMAP
00000040
00000020
00000010
00000018
00000008
0000000C
0000000C
0000000C
0000000C
0000000C
0000000C
0000000C
0000001C
00000018
00000018
00000038
00000038
00000030
00000070
00000060
000000E0
000000C0
000001C0
00000180
00000380
00000300
00000700
00000600
00000C00
00001C00
00001800
00003000
00006000
0000E000
0000C000
00018000
00030000
00060000
000C0000
00180000
00300000
00600000
00C00000
01800000
02000000
0C000000
10000000
60000000
80000000
ENDCHAR
STARTCHAR 002A
ENCODING 42
SWIDTH 250 0
DWIDTH 18 0
BBX 13 12 12 18
BITMAP
0040
18C0
0880
0500
0508
0FF8
E300
0480
0CC0
0840
1840
1000
ENDCHAR
STARTCHAR 002B
ENCODING 43
SWIDTH 402 0
DWIDTH 29 0
BBX 16 16 9 0
BITMAP
0018
0018
0030
0030
0060
0040
C0C0
FFFF
0183
0300
0300
0600
0600
0C00
0C00
0800
ENDCHAR
STARTCHAR 002C
ENCODING 44
SWIDTH 208 0
DWIDTH 15 0
BBX 14 16 -1 -9
BITMAP
0008
001C
0038
0038
0070
00E0
01C0
0180
0300
0600
0C00
1800
1000
2000
4000
8000
ENDCHAR
STARTCHAR 002D
ENCODING 45
SWIDTH 319 0
DWIDTH 23 0
BBX 13 1 10 10
BITMAP
FFF8
ENDCHAR
STARTCHAR 002E
ENCODING 46
SWIDTH 236 0
DWIDTH 17 0
BBX 4 4 7 0
BITMAP
70
F0
E0
E0
ENDCHAR
STARTCHAR 002F
ENCODING 47
SWIDTH 375 0
DWIDTH 27 0
BBX 25 52 7 -12
BITMAP
00000180
00000100
00000300
00000200
00000600
00000400
00000C00
00000800
00001800
00001800
00001000
00003000
00002000
00006000
00004000
0000C000
00008000
00018000
00010000
00030000
00020000
00020000
00060000
00040000
000C0000
00080000
00180000
00100000
00300000
00200000
00600000
00400000
00C00000
00C00000
01800000
01800000
01000000
03000000
02000000
06000000
04000000
0C000000
08000000
18000000
18000000
30000000
30000000
20000000
60000000
40000000
C0000000
80000000
ENDCHAR
STARTCHAR 0030
ENCODING 48
SWIDTH 444 0
DWIDTH 32 0
BBX 37 33 7 -1
BITMAP
000000C008
000003E010
00001FE060
00006FF080
0003F0F300
00063C7C00
001C1FF000
0030007000
0070007000
00E0007000
01C0006000
0180006000
0380006000
0700006000
060000C000
0E0000C000
1C00008000
1C00018000
3C00010000
3800010000
7800020000
7800020000
7000040000
F000080000
F000100000
F000100000
F000200000
F000400000
F000800000
7803000000
7804000000
3E18000000
0FE0000000
ENDCHAR
STARTCHAR 0031
ENCODING 49
SWIDTH 263 0
DWIDTH 19 0
BBX 18 34 8 -2
BITMAP
0000C0
000380
000F80
001700
006600
008E00
031C00
041C00
183800
207000
C07000
00E000
00E000
01C000
038000
038000
070000
070000
0E0000
0E0000
1C0000
1C0000
380000
380000
700000
700000
E00000
E00000
C00000
C00000
C00000
400000
400000
400000
ENDCHAR
STARTCHAR 0032
ENCODING 50
SWIDTH 416 0
DWIDTH 30 0
BBX 33 33 0 0
BITMAP
0000003C00
000001FF00
000003FF80
00000C0F80
0000100780
0000200380
0000400380
0000800380
0000000300
0000000300
0000000200
0000000400
0000000400
0000000800
0000001000
0000002000
0000004000
0000008000
0000010000
0000020000
0000040000
0000080000
0000100000
0000200000
0000400000
0000800000
0001000000
07FFFF0000
1FFFFFF000
60107FF800
806003F000
E380003000
7C00000000
ENDCHAR
STARTCHAR 0033
ENCODING 51
SWIDTH 319 0
DWIDTH 23 0
BBX 29 39 -2 -8
BITMAP
000001F0
000007F8
00000878
00003038
00000038
00000038
00000030
00000060
00000040
00000080
00000300
00000600
00001800
00006000
0000FC00
0003FE00
00001F00
00000F00
00000F00
00000700
00000700
00000700
00000700
00000F00
00000E00
00000E00
00000C00
00001C00
00001800
00003000
00003000
00006000
0000C000
00018000
00020000
000C0000
80100000
40E00000
3F000000
ENDCHAR
STARTCHAR 0034
ENCODING 52
SWIDTH 444 0
DWIDTH 32 0
BBX 35 33 4 -2
BITMAP
0000004000
000001E000
000001E000
000001E040
000001C080
000001C300
0000018600
0000030800
0000061800
0000083000
0000306000
000060C000
000081C000
0003018000
0004030000
0018060000
0060060000
00C00C0000
03001C0000
FFFFFFFFC0
FFF8387FE0
E0007000C0
0000700040
0000E00000
0000E00000
0001C00000
0001C00000
0003800000
0003800000
0007000000
0003000000
0003000000
0001000000
ENDCHAR
STARTCHAR 0035
ENCODING 53
SWIDTH 291 0
DWIDTH 21 0
BBX 34 42 -1 -4
BITMAP
0000000040
0000000040
0000000040
0000000040
0000000080
0000000180
0000000F00
00001FFE00
00003FF800
00007FE000
0000400000
0000800000
0001000000
0001000000
0002000000
0002000000
0006000000
0007000000
0007800000
0003E00000
0001F00000
0000780000
00003C0000
00001C0000
00001C0000
00001C0000
00001C0000
0000180000
0000180000
0000300000
0000300000
0000600000
0000400000
0000800000
0001000000
0002000000
0004000000
0008000000
0020000000
80C0000000
FF00000000
7C00000000
ENDCHAR
STARTCHAR 0036
ENCODING 54
SWIDTH 347 0
DWIDTH 25 0
BBX 33 35 6 0
BITMAP
0000003F00
000000FF80
0000030180
00000C0080
0000300080
0000400000
0000800000
0001000000
0002000000
0004000000
0018000000
0010000000
0020000000
0040000000
00C0000000
0180000000
0300000000
0700000000
0600000000
0E1F800000
1C61C00000
1D80C00000
3A00C00000
3C00C00000
7800C00000
7000800000
7001800000
F001000000
E003000000
E006000000
E00C000000
E018000000
E030000000
70C0000000
3F00000000
ENDCHAR
STARTCHAR 0037
ENCODING 55
SWIDTH 347 0
DWIDTH 25 0
BBX 27 32 8 0
BITMAP
01F80060
03FFC080
07FFFE00
0C000400
10000C00
20000800
20001000
40002000
40004000
80008000
80010000
00020000
00040000
00080000
00100000
00200000
00400000
00800000
01000000
03000000
06000000
0C000000
18000000
18000000
30000000
70000000
60000000
E0000000
E0000000
E0000000
E0000000
80000000
ENDCHAR
STARTCHAR 0038
ENCODING 56
SWIDTH 333 0
DWIDTH 24 0
BBX 25 32 5 1
BITMAP
00001F00
00006380
00008180
00010180
00020180
00060100
00040300
000C0600
000C0800
000C1000
000E2000
000FC000
000F0000
00178000
0063C000
0083C000
0301E000
0400E000
0800E000
10006000
20006000
20004000
40004000
40008000
C0008000
C0010000
C0020000
E0040000
E0080000
78300000
7FC00000
1F000000
ENDCHAR
STARTCHAR 0039
ENCODING 57
SWIDTH 347 0
DWIDTH 25 0
BBX 32 33 -2 -1
BITMAP
000000FC
0000030E
00000407
00001807
00003007
00006007
0000C007
0001800F
0001800E
0003001E
0003001E
0006003C
0006005C
000600B8
00060138
00030670
0001F860
000000E0
000000C0
00000180
00000300
00000300
00000600
00000C00
00001800
00003000
00006000
00008000
00010000
00020000
800C0000
40700000
3F800000
ENDCHAR
STARTCHAR 003A
ENCODING 58
SWIDTH 236 0
DWIDTH 17 0
BBX 12 17 6 0
BITMAP
0070
00F0
01F0
01E0
01C0
0000
0000
0000
0000
0000
0000
0000
3800
7800
F800
F000
E000
ENDCHAR
STARTCHAR 003B
ENCODING 59
SWIDTH 236 0
DWIDTH 17 0
BBX 19 26 -1 -10
BITMAP
0000E0
0001E0
0003E0
0003C0
000380
000000
000000
000000
000000
000000
000800
001C00
003800
007000
006000
00C000
018000
030000
030000
060000
0C0000
180000
300000
600000
400000
800000
ENDCHAR
STARTCHAR 003C
ENCODING 60
SWIDTH 402 0
DWIDTH 29 0
BBX 21 14 9 4
BITMAP
000008
000078
0003E0
001F00
00F000
0F8000
780000
F00000
1E0000
078000
00F000
003C00
000F00
000200
ENDCHAR
STARTCHAR 003D
ENCODING 61
SWIDTH 402 0
DWIDTH 29 0
BBX 17 7 11 7
BITMAP
3FFF80
3FFF80
000000
000000
000000
000000
FFFE00
ENDCHAR
STARTCHAR 003E
ENCODING 62
SWIDTH 402 0
DWIDTH 29 0
BBX 21 13 8 3
BITMAP
030000
03C000
00F800
001F00
0003E0
000038
0001E0
000F00
00F800
07C000
3E0000
F00000
C00000
ENDCHAR
STARTCHAR 003F
ENCODING 63
SWIDTH 263 0
DWIDTH 19 0
BBX 22 32 6 0
BITMAP
001FC0
006030
018008
020008
040004
040004
000004
000004
00000C
000018
000078
0000F0
0003E0
000FC0
003F00
00FE00
03F800
0FE000
3FC000
7F0000
7E0000
FC0000
F80000
F00000
F00000
F00000
000000
000000
300000
700000
F00000
C00000
ENDCHAR
STARTCHAR 0040
ENCODING 64
SWIDTH 583 0
DWIDTH 42 0
BBX 41 38 6 -4
BITMAP
0000007FC000
000007807800
000018001C00
000060000E00
000080000700
000200000380
000400000180
001800000180
003000000180
006000FC0180
00C003180180
01800C300180
030018300180
020030600100
060070E00300
0C00E0C00300
1801C1C00200
180183800600
380385800400
300309800800
700713001000
700613002000
600E23004000
600C43008000
E00D83830000
E00E01FC0000
E00000020000
E00000020000
E00000040000
F00000080000
700000100000
700000200000
380000400000
3C0000800000
1E0003000000
0F000C000000
03E070000000
007F80000000
ENDCHAR
STARTCHAR 0041
ENCODING 65
SWIDTH 722 0
DWIDTH 52 0
BBX 60 41 -3 0
BITMAP
00000000FE000030
00000007FFE00070
0000000FFFFC00F0
0000001FFFFF8180
0000003FFFFFFF00
0000007FFFFFF200
0000007800000600
000000E000000C00
000000C000000C00
0000008000005C00
0000010000007800
000001000000F800
0000010000017800
0000000000027000
000000000002F000
000000000004F000
000000000009F000
000000000011E000
000000000021E000
000000000041E000
000000000083C000
000000000103C000
040000000203C000
080000000407C000
100000000807C000
2000000010078000
20000001FFFF8000
40000000400F8000
40000000800F8000
C0000001000F8000
C0000006000F0000
C0000008000F0000
C0000010000F0000
C0000020000F0000
E00000C0000F0000
E0000100000F0000
70000600000F0000
7C001800000F0000
3F00E000000F8C00
1FFF0000000FF000
07F8000000078000
ENDCHAR
STARTCHAR 0042
ENCODING 66
SWIDTH 763 0
DWIDTH 55 0
BBX 45 49 8 0
BITMAP
0000000000F0
000000000318
000000000400
000000001800
000000002000
000000002000
000000004000
0000001FFE00
000003E107C0
00003C0200F0
0000C0040070
000300040078
000C00080038
003000100038
004000100038
018000200038
020000400030
040000400070
0400008000E0
0800008000C0
100001000100
300002000600
200002001800
60000400FE00
40000803FFC0
4000080007E0
C000100001F0
C000200000F0
C00020000078
C00040000078
E00040000038
E00080000038
E00100000038
E00100000038
700200000030
700400000030
700400000060
380800000060
380800000040
3C1000000080
1C2000000100
1E2000000200
1E4400000400
0F8200000800
0F8300003000
0703C0004000
0703F0038000
0200FFFC0000
04003FC00000
ENDCHAR
STARTCHAR 0043
ENCODING 67
SWIDTH 666 0
DWIDTH 48 0
BBX 42 45 6 -6
BITMAP
00000007FC00
0000007FFF00
000001C03F80
00000E0007C0
0000300003C0
0000400001C0
000180000080
000200000080
000400000080
000800000080
001000000000
002000000000
004000000000
008000000000
010000000000
030000000000
060000000000
060000000000
0C0000000000
1C0000000000
180000000000
380000000000
380000000000
780000000000
700000000000
700000000000
700000000080
F000000000C0
F000000000C0
F000000001C0
F00000000180
F00000000180
F00000000300
F80000000700
F80000000600
780000000C00
7C0000001800
3C0000003000
3E0000006000
1F0000008000
0F8000030000
07C0000C0000
03F000300000
00FE01C00000
003FFE000000
ENDCHAR
STARTCHAR 0044
ENCODING 68
SWIDTH 722 0
DWIDTH 52 0
BBX 65 49 -5 0
BITMAP
000000000000000F00
000000000000007F80
000000000000018000
000000000000060000
000000000000080000
000000000000100000
000000000000200000
000000000000400000
0000003FFFFFE00000
000007C00007F80000
0000780000017F0000
0003800000021F8000
001C0000000207C000
00600000000403E000
01800000000801F000
02000000000800F000
04000000001000F800
080000000030007800
100000000020007C00
300000000060003C00
200000000040003C00
6000000000C0003C00
400000000180003C00
C00000000180003C00
C00000000300003C00
C00000000300003C00
C00000000600003C00
C00000000600003800
C00000000C00003800
C00000000C00007800
000000001800007000
000000003800007000
00000000300000E000
00000000700000C000
00000000600001C000
00000000C000018000
00000000C000030000
000000018000060000
0000000180000C0000
000000030000080000
000000060000100000
0000000C0000400000
000000080000800000
000000100003000000
000000200004000000
000000C00018000000
0000010000E0000000
000006000700000000
003FFFFFF800000000
ENDCHAR
STARTCHAR 0045
ENCODING 69
SWIDTH 652 0
DWIDTH 47 0
BBX 46 50 2 -10
BITMAP
000000007E00
00000007FF80
0000001807C0
0000006001C0
0000008000C0
0000030000C0
000006000080
000006000000
00000E000000
00000E000000
00000F000000
00000F000000
000007800000
000007C00000
000003C00000
000001E00000
000001E00000
000001E00000
000003C00000
000007000000
00003C000000
0000E00000F8
0007000003FC
001C00000C1C
00700000300C
01C00000400C
03800001800C
0F0000020008
1E0000040008
3C0000080018
380000100010
780000200020
700000400060
F00000800040
F00001000080
F00002000100
F00004000200
F00008000800
F00010001000
780010006000
780020008000
3C0040030000
1E00401C0000
0F0080600000
03E107800000
003FF8000000
000200000000
000200000000
000400000000
000400000000
ENDCHAR
STARTCHAR 0046
ENCODING 70
SWIDTH 583 0
DWIDTH 42 0
BBX 62 43 1 -2
BITMAP
00000001FC000038
0000000FFF80003C
0000001FFFE0001C
0000006007F8000C
0000008000FC000C
00000100003F0004
00000200001FC008
000004000027F008
000004000041FC30
0000080000407FC0
0000080000800F80
0000180000800000
0000180001000000
0000380001000000
0000380002000000
0000380002000000
0000380004000000
0000380004000000
0000100008000000
0000000008000000
0000000010000000
0000000010000000
0000000020000000
0000000040000000
0000007FFFF00000
2000008080300000
4000000080100000
4000000100000000
4000000100000000
8000000200000000
8000000400000000
8000000400000000
8000000800000000
C000001000000000
C000003000000000
E000006000000000
F00000C000000000
7800038000000000
7E000F0000000000
3FC07C0000000000
1FFFF80000000000
07FFC00000000000
00FE000000000000
ENDCHAR
STARTCHAR 0047
ENCODING 71
SWIDTH 638 0
DWIDTH 46 0
BBX 60 63 -3 -22
BITMAP
00000000001FF800
0000000001E00C00
000000000F000200
0000000038000070
00000000E0000090
00000003C0000110
0000000F00000220
0000001E00000420
0000007800000C40
000000F000001880
000001E000001180
000003C000002300
0000078000006200
00000F000000C400
00001E0000018800
00003C0000019000
0000380000032000
0000700000064000
0000F00000068000
0000E000000F0000
0001E000001C0000
0001C00000180000
0003800000380000
0003800000700000
0007800001F00000
0007000002E00000
000700000DE00000
0007000011C00000
0007000043C00060
0003000183800780
0003800C07007800
0001C07007078000
00007F800E380000
000000001FC00000
000000001C000000
00000000FC000000
0000000738000000
0000003878000000
000001C070000000
00000600E0000000
00003800E0000000
0000C001C0000000
0003000380000000
000C000380000000
0030000700000000
0040000600000000
0180000E00000000
0300001C00000000
0600001800000000
0C00003800000000
1800007000000000
3000006000000000
700000C000000000
6000018000000000
E000030000000000
E000060000000000
E0000C0000000000
E000180000000000
E000300000000000
7000600000000000
7801800000000000
3E0E000000000000
07F0000000000000
ENDCHAR
STARTCHAR 0048
ENCODING 72
SWIDTH 736 0
DWIDTH 53 0
BBX 79 58 -7 -14
BITMAP
0000000000002000007C
0000000000006000019E
0000000000004000060E
000000000000C000080E
00000000007F8000100E
000000000FFF8000600C
000000003FFF0000C01C
00000000FF0100018018
00000001F00200030038
00000003800200030030
00000007000200060060
0000000E0004000C00C0
000000180004001C0100
00000018000800380600
00000030000800301800
00000020001000702000
00000040001000E0C000
00000040002000C70000
00000080002001D80000
00000080004001E00000
00000100004007800000
0000010000803B000000
000002000100C7000000
0000020001070E000000
0000020002380E000000
0000020002C01C000000
0000020007001C000000
000000000C0038000000
00000000380038000000
00000000D00070000000
00000003100070000000
00000004200070000000
000000084000E0000000
000000108000E0000000
800000210000E0000000
800000420001E0000000
800000840001E0000000
800001080001E0000000
C00002100001E0000000
E00004200001F0000000
700004C00001F0000000
3E0009000000FC000000
1FFFFE0000007FFE0000
03FFF00000003FE00000
00001000000000000000
00001000000000000000
00001000000000000000
00001000000000000000
00001000000000000000
00001000000000000000
00001800000000000000
00001800000000000000
00001C00000000000000
00000C00000000000000
00000E00000000000000
00000700000000000000
000003C0000000000000
000000FC000000000000
ENDCHAR
STARTCHAR 0049
ENCODING 73
SWIDTH 361 0
DWIDTH 26 0
BBX 40 42 1 -1
BITMAP
0000001FFF
000001E002
00000E0004
0000100008
0000200010
0000C00020
0000800040
00018000C0
0001000180
0003000180
0003000300
0003000600
0003000E00
0003800C00
0003801C00
0001C03800
0001C03800
0000F07000
0000007000
000000E000
000001E000
000001C000
000003C000
0000038000
0000078000
00000F0000
00000E0000
00001E0000
00001C0000
00003C0000
0000780000
0000700000
0000F00000
0001E00000
0003C00000
0003800000
0007800000
000F000000
001C000000
8078000000
40E0000000
3F80000000
ENDCHAR
STARTCHAR 004A
ENCODING 74
SWIDTH 388 0
DWIDTH 28 0
BBX 58 60 -14 -14
BITMAP
00000000000001C0
0000000000000780
0000000000000700
0000000000000F00
0000000000001E00
0000000000007C00
0000000000019C00
00000000000C3800
0000000000303800
0000000001C07000
0000000006007000
000000000800E000
000000003000E000
000000004001C000
000000008001C000
0000000100038000
0000000200038000
0000000400070000
0000000400070000
00000008000E0000
00000008000E0000
00000018001C0000
00000018001C0000
0000001800380000
0000001800780000
0000001C00700000
0000001C00F00000
0000001C00E00000
0000000E01E00000
0000000E01C00000
0000000F03C00000
0000000783800000
00000003C7800000
00000003EF000000
00000001FF000000
00000000FE000000
000000007E000000
000000003F800000
000000003FC00000
0000000078000000
00000000F0000000
00000000E0000000
00000001E0000000
00000001C0000000
0000000380000000
0000000700000000
0000000F00000000
4000000E00000000
C000001C00000000
C000003800000000
C000007000000000
C00000E000000000
C00000C000000000
E000038000000000
E000060000000000
F0000C0000000000
7800100000000000
7C00600000000000
7F03800000000000
3FFC000000000000
ENDCHAR
STARTCHAR 004B
ENCODING 75
SWIDTH 750 0
DWIDTH 54 0
BBX 75 45 1 -6
BITMAP
00001FF000800007F000
00007FFF8100003FFC00
0000FFFFFF0001FFFE00
0001E01FFE0007F00600
00038000FE001F000000
00030000040078000000
000600000400E0000000
00040000080380000000
00040000100600000000
000C0000101800000000
000C0000202000000000
0008000020C000000000
00080000410000000000
00080000420000000000
00080000880000000000
00080001100000000000
00040001600000000000
00040002800000000000
00040003000000000000
00000006000000000000
00000006000000000000
0000001F000000000000
0000002B800000000000
00000011C00000000000
00000021E00000000000
00000020F00000000000
00000040780000000000
000000403C0000000000
000000803C0000000000
000001001E0000000000
000001000F8000000000
0000020007C000000000
0000040003E000000000
00000C0001F000000000
0000180000F800000000
80007000007C00000000
4000C000003E00000000
20038000001F80000000
1E7E0000000FC0000000
03F000000003F0000020
000000000001FC000040
0000000000007E000080
0000000000001FC00300
00000000000007F80C00
00000000000000FFF000
ENDCHAR
STARTCHAR 004C
ENCODING 76
SWIDTH 930 0
DWIDTH 67 0
BBX 67 44 0 -3
BITMAP
0000000000001F0000
000000000000FF8000
00000000000307C000
000000000004038000
000000000008018000
000000000010010000
000000000020000000
000000000040000000
000000000080000000
000000000100000000
000000000300000000
000000000600000000
000000000400000000
000000000C00000000
000000001800000000
000000003000000000
000000003000000000
000000006000000000
00000000C000000080
00000000C000000080
000000018000000040
000000010000000040
000000030000000020
000000020000000020
000000060000000020
0000000C0000000020
000000080000000020
700000180000000020
7C0000100000000020
F70000200000000020
E0C000200000000060
E03000400000000060
E00C008000000000C0
E003810000000000C0
E000610000000001C0
E0001A000000000380
F00007000000000780
700008E00000000F00
7800301C0000003E00
7C006007800000FE00
3F03C000FE000FF800
1FFF80001FFFFFF000
0FFE000001FFFFC000
03F80000000FFE0000
ENDCHAR
STARTCHAR 004D
ENCODING 77
SWIDTH 916 0
DWIDTH 66 0
BBX 76 40 -4 1
BITMAP
000000000FF0000000F0
00000007FFE0000001C0
00000078000000000300
00000380008000000800
00000C00018000001000
00001000018000006000
0000100003800001A000
00002000038000024000
000060000580000C8000
00006000058000108000
00006000098000210000
00006000098000C20000
00006000118001020000
00002000118002040000
0000000021800C040000
00000000418010080000
00000000418020080000
00000000818040100000
00000000818180100000
00000001018200100000
00000002018400200000
00000002018800200000
00000004019000600080
0000000801A000400080
0000000801C000C00080
00000010018000C00080
00000020010000C00100
00000040030001800100
00000080050001800100
80000080090001800200
80000100120001800200
80000200220003800200
80000400420003800400
C0001800440003800800
E0003000840003801000
7000E0008C0003C03000
7C078000980003E0E000
7FFF0000F00001FF8000
3FFC0000F00001FF0000
0FE00000E00000F80000
ENDCHAR
STARTCHAR 004E
ENCODING 78
SWIDTH 666 0
DWIDTH 48 0
BBX 67 52 -3 -12
BITMAP
00000000001F000000
0000000000E0C01FE0
0000000000C023FFE0
0000000000203FFFE0
0000001C001FC40060
0000003E0000040020
0000007E0000020020
000000FE0000030000
0000018E0000030000
0000030E0000030000
0000060E0000030000
000004060000030000
000008060000030000
000010060000030000
000020060000070000
000020060000070000
000040060000060000
000080060000060000
0000800600000E0000
0001000600000C0000
0002000600000C0000
000200060000180000
000400060000180000
000800060000300000
000800060000300000
001000060000600000
002000060000600000
002000060000C00000
004000060000800000
00C000060001800000
008000060001000000
010000060002000000
010000060006000000
020000070004000000
060000070008000000
040000070010000000
0C0000070020000000
080000070040000000
180000078080000000
100000078100000000
30000003C200000000
20000003FC00000000
60000001F000000000
600000000000000000
400000000000000000
C00000000000000000
C00000000000000000
C00000000000000000
800000000000000000
800000000000000000
800000000000000000
800000000000000000
ENDCHAR
STARTCHAR 004F
ENCODING 79
SWIDTH 625 0
DWIDTH 45 0
BBX 47 43 7 0
BITMAP
00000007FF00
0000003807E0
0000000001F0
000000000078
00000000007C
00000070003C
00000388003E
00000C00001E
00003000001E
0000C000001E
00010000001E
00060000001E
000C0000001E
00180000001C
00300000001C
00600000003C
00C000000038
01C000000038
038000000078
070000000070
070000000060
0E00000000E0
1E00000000C0
1C00000001C0
3C0000000180
380000000300
380000000600
780000000600
780000000C00
700000001800
F00000003000
F00000006000
F0000000C000
F00000018000
F00000020000
F00000040000
F80000180000
780000200000
7C0000C00000
3E0003000000
1F801C000000
0FFFE0000000
01FE00000000
ENDCHAR
STARTCHAR 0050
ENCODING 80
SWIDTH 500 0
DWIDTH 36 0
BBX 48 45 1 1
BITMAP
020000000000
020000003C00
020000004000
060000008000
070000010000
0780003EFC00
07F007C43F00
03FFFC0400C0
00FF80080038
00000008001C
00000010001E
00000010000F
00000020000F
00000040000F
00000040000F
00000080000F
00000080000F
00000100000E
00000100001E
00000200001C
00000200001C
000004000038
000008000030
000008000060
0000100000C0
000016000180
00002E000300
00003F000C00
00005FC07000
000047FFC000
000080FC0000
000100000000
000100000000
000200000000
000200000000
000400000000
000800000000
000800000000
001000000000
002000000000
004000C00000
008003000000
3FFFFC000000
7FFFF8000000
FFFF80000000
ENDCHAR
STARTCHAR 0051
ENCODING 81
SWIDTH 680 0
DWIDTH 49 0
BBX 71 55 -2 -14
BITMAP
0000000007F0000000
00000000FFFE000000
00000007007F800000
00000018000FC00000
000000600007E00000
000001800003F00000
000002000001F00000
000004000000F00000
000018000000F80000
000020000000F80000
000040000000780000
000040000000780000
000080000000780000
000100000000780000
000200000000780000
000200000000780000
000400000000780000
000C00000000700000
000C00000000700000
001800000000F00000
001800000000E00000
003800000000E00000
003000000001E00000
003000000001C00000
003000000001C00000
007000000003800000
007000000003000000
007000000007000000
00700000000E000000
00700000000C000000
007000000018000000
007000000038000000
003800000070000000
0038000000E0000000
003800000180000000
001C00000700000000
000C00000E00000000
000600003800000000
000300007000000000
0000C003C000000000
0000000F0000000000
000000FC0000000000
01FFFFE00000000000
07FFFE000000000000
1803E0000000000000
20001F800000000000
C00000FC0000000002
0000001FE000000004
00000001FE00000004
000000003FE0000008
0000000007FF000010
00000000007FF800E0
00000000000FFFFFC0
000000000001FFFF00
0000000000000FF800
ENDCHAR
STARTCHAR 0052
ENCODING 82
SWIDTH 652 0
DWIDTH 47 0
BBX 67 59 -1 -10
BITMAP
000000000180000000
0000000003C0000000
000000000600000000
000000000800000000
000000001000000000
000000001000000000
000000002000000000
000000004000000000
0000001FFFE0000000
000001E0807E000000
00001E00800F800000
000070010007C00000
0001C0020003C00000
000700020001E00000
000E00040001E00000
001C00040001E00000
003800080001E00000
007800080001E00000
007000100001C00000
007000100003C00000
007000200003800000
003000600007800000
00300040000F000000
000000C0001C000000
000000800038000000
0000010000E0000000
000003000700000000
00000200F800000000
000006070000000000
000004070000000000
00000C078000000000
000008078000000000
000018038000000000
000030038000000000
00003003C000000000
00006003C000000000
0000C001C000000000
0000C001E000000000
00018001E000000000
00038000F000000000
00030000F000000000
00060000F000000000
000E00007800000000
001C00007800000000
003800003C00000000
006010003C00000000
0183F0001E00000000
3FFFE0001E00000000
FFFF80000F00000000
000000000F80000000
0000000007C0000000
0000000003C0000000
0000000001E0000000
0000000000F0000000
00000000007C000000
00000000003E000020
00000000001F8001C0
000000000007F01E00
000000000000FFE000
ENDCHAR
STARTCHAR 0053
ENCODING 83
SWIDTH 583 0
DWIDTH 42 0
BBX 56 66 -8 -26
BITMAP
0000000000003E
000000000000FF
00000000000307
00000000000406
0000000000080C
00000000001018
00000000002020
00000000002040
00000000004180
00000000004200
00000000004400
0000000000D800
0000000000E000
0000000000C000
0000000000C000
0000000001E000
0000000002E000
000000000CE000
0000000010E000
0000000020E000
0000000040E000
0000000180F000
0000000200F000
0000000400F000
0000000800F000
0000003000F000
0002004000F000
0002008000F000
0002010000F000
0006020000F000
00060C0000F000
0006100000F000
000E200000E000
000E400000E000
000E800001E000
000F000001C000
000E0000018000
000F0000038000
001F8000030000
0039C000060000
0070E0000C0000
00603800300000
00C01F00C00000
018003FF000000
03800000000000
07000000000000
06000000000000
0E000000000000
1C000000000000
18000000000000
38000000000000
30000000000000
70000000000000
70000000000000
60000000000000
E0000000000000
E0000000000000
C0000000000000
C0000000000000
C0000000000000
C0000000000000
40000000000000
40000000000000
40000000000000
20000000000000
1C000000000000
ENDCHAR
STARTCHAR 0054
ENCODING 84
SWIDTH 777 0
DWIDTH 56 0
BBX 68 46 4 -1
BITMAP
000000000000003FE0
00000000000001C0F0
000000000000060030
000000000000180020
0000000000006000C0
000007FFFFFFFFFF80
0000780001FFFFFF00
00008000001FFFF800
000300000030000000
000C00000040000000
001000000180000000
002000000200000000
004000000C00000000
008000001800000000
010000002000000000
01000000C000000000
020000018000000000
060000030000000000
0C0000060000000000
0C00001C0000000000
180000380000000000
180000700000000000
300000E00000000000
300001E00000000000
700001C00000000000
600003800000000000
E00007000000000000
60000F000000010000
40000E000000010000
40001E000000010000
00001C000000010000
00003C000000030000
000038000000060000
000078000000060000
0000780000000C0000
000070000000180000
000070000000300000
000070000000600000
000070000000C00000
000030000003000000
000030000006000000
000018000018000000
00000C000060000000
000006000380000000
000003801C00000000
0000007FC000000000
ENDCHAR
STARTCHAR 0055
ENCODING 85
SWIDTH 722 0
DWIDTH 52 0
BBX 63 50 5 -2
BITMAP
000000000000003E
00000000000000FC
0000000000000300
1000000000000400
3000000000000800
7000000000001000
7000001800002000
F000003000004000
F000006000008000
F800008000008000
FC00070000010000
FF007C0000020000
7FFF880000020000
3FF0100000040000
0000200000080000
0000400000080000
0000800000100000
0001000000100000
0002000000200000
0004000000200000
0008000000400000
0010000000C00000
0020000000800000
0040000001800000
00C0000001000000
0180000003000000
0100000002000000
0300000006000000
060000000C000000
0E0000000C000000
0C0000001C000000
1C00000018000000
3800000038000000
3800000078000000
78000000F0000000
70000001F0000000
70000007F0000000
F0000009F0000200
F0000031E0000400
F0000041E0000800
F0000081E0001000
F8000301E0002000
F8000C01E0004000
7C003001E0008000
7F00C001E0010000
3FFF0001E0060000
1FE00001F0080000
00000001F8600000
00000000FF800000
000000003E000000
ENDCHAR
STARTCHAR 0056
ENCODING 86
SWIDTH 694 0
DWIDTH 50 0
BBX 65 56 2 -15
BITMAP
00000007F800007E00
0000003FFE00000700
000001FFFF00000780
000003C03F00000780
00000E000F80000780
000018000780000780
000060000380000780
000080000380000F00
000100000180000F00
000200000180000E00
000400000100001C00
000800000100003C00
001000000100003800
002000000200007000
00400000020000E000
00800000040001C000
008000000400018000
010000000400030000
020000000800040000
020000000800180000
040000001000300000
040000001000600000
080000002000800000
080000002001000000
100000004006000000
100000004008000000
100000008010000000
200000008060000000
200000010280000000
200000010300000000
600000020500000000
400000021900000000
400000046100000000
4000000C8180000000
C000000B0180000000
C00000160180000000
C000003C0180000000
C00000380180000000
C00000700100000000
E00000E00300000000
E00000E00300000000
E00000C00200000000
E00000400600000000
700000000400000000
700000000C00000000
700000000800000000
780000001000000000
380000002000000000
3C0000004000000000
1E0000008000000000
0F0000010000000000
0F8000040000000000
07E000180000000000
01FC00E00000000000
007FFF800000000000
000FF8000000000000
ENDCHAR
STARTCHAR 0057
ENCODING 87
SWIDTH 986 0
DWIDTH 71 0
BBX 92 52 0 -6
BITMAP
00000000000003FFFFC00000
00000000000007FFFFFF8000
000000000000000200007800
0000000000000001C0000600
000000000000000020000100
0000000000000000300000C0
000000000000000018000040
0000007FC000000018000020
00000FFF800000001C000020
00007FFF000000000C000010
0003FF01000000000E000010
000FE002000000000E000010
003E0004000000000E000010
00700004000000000E000010
00C00008000000000E000030
03000010000000000E000030
04000020000000000E000020
08000020000000000E000020
10000040000000000E000040
20000080000000000E000040
20000080000000000C000080
40000100000000001C000080
40000200000000001C000100
80000200000000001C000300
80000400000000001C000200
80000C000000000018000400
800018000C00000038000800
800010003E00000038000800
800030007E00000030001000
80006000FE00000070002000
8000E0019E00000060004000
8000C0020E00000060008000
0001C0040E000000C0010000
000380080E000000C0040000
000380100E00000180080000
000700200E00000180300000
000700400600000300400000
000E00800600000300000000
000E01000600000600000000
001C02000600000400000000
001C04000700000C00000000
003C08000700000800000000
003810000700001000000000
003820000700002000000000
003840000700004000000000
003880000780008000000000
001F00000780010000000000
000000000780020000000000
0000000003C0040000000000
0000000003E0180000000000
0000000001F0200000000000
00000000007FC00000000000
ENDCHAR
STARTCHAR 0058
ENCODING 88
SWIDTH 652 0
DWIDTH 47 0
BBX 55 41 0 0
BITMAP
0000000300001C
0000001F00007E
0000007F0001FC
000000CF000300
00000307000600
00000407000800
00000807001000
00002007002000
00004007004000
00008007008000
00010007010000
00000003020000
00000003040000
00000003080000
00000003100000
00000003200000
00000003400000
00000003800000
00000003000000
00000003000000
00000003000000
00000007000000
0000000B000000
00000013000000
00000023000000
00000043000000
00000083000000
00000103000000
00000203000000
00000403000000
00000803800000
00001003800000
00002003800000
00004003800000
00008003800000
80010003C00000
40060001E00000
601C0001F00000
7FF00001FFFC00
7FC00001FFF000
1F000000FF0000
ENDCHAR
STARTCHAR 0059
ENCODING 89
SWIDTH 361 0
DWIDTH 26 0
BBX 42 53 2 -13
BITMAP
001F80000180
007FE00001C0
0183F00001C0
0600F00001C0
0800780001C0
1000780001C0
2000380001C0
60003C0001C0
60003C0001C0
C0001C000180
C0001C000180
C0001C000300
C0001C000200
00001C000400
00001C000C00
00001C001800
00001C001000
00001C002000
00001C004000
00001C018000
00001C030000
000018060000
0000180C0000
000038300000
000038600000
000038C00000
00003B000000
00003E000000
00007C000000
00007C000000
0000E0000000
000300000000
000400000000
000800000000
001000000000
002000000000
004000000000
008000000000
030000000000
020000000000
040000000000
080000000000
180000000000
300000000000
300000000000
600000000000
600000000000
E00000000000
C00000000000
C00000000000
C00000000000
400000000000
400000000000
ENDCHAR
STARTCHAR 005A
ENCODING 90
SWIDTH 555 0
DWIDTH 40 0
BBX 57 51 10 -6
BITMAP
00000000000E0000
00000000000E0000
00000000000C0000
0000000000080000
0000FE0000100000
0001FFFF00600000
0003FFFFFFC00000
0004000000800000
0008000001000000
0008000002000000
0010000004000000
0020000008000000
0020000010000000
0040000020000000
0040000040000000
0080000080000000
0000000100000000
0000000400000000
0000000800000000
0000001000000000
0000002000000000
0000004000000000
0000008000000000
0003FFFFFF000000
0000020000000000
0000080000000000
0000100000000000
0000200000000000
0000400000000000
0000800000000000
0003000000000000
0004000000000000
0008000000000000
0410000000000000
0660000000000000
0F80000000000000
0FC0000000000000
0FE0000000000000
0FF8000000000000
11FC000000000000
607F000000000000
801FC00000000000
000FF00000000000
0003FC0000000000
0000FF0000000080
00001FE000000100
000007F800000100
000000FF00000600
0000003FE0000800
00000003FF007000
000000001FFF8000
ENDCHAR
STARTCHAR 005B
ENCODING 91
SWIDTH 402 0
DWIDTH 29 0
BBX 38 47 6 -4
BITMAP
0000007FFC
0000007800
0000007000
000000F000
000000E000
000001C000
000001C000
0000038000
0000038000
0000070000
0000070000
00000E0000
00001E0000
00001C0000
0000380000
0000380000
0000700000
0000700000
0000E00000
0000E00000
0001C00000
0001C00000
0003800000
0003000000
0007000000
000E000000
000E000000
001C000000
001C000000
0038000000
0038000000
0070000000
0060000000
00E0000000
01C0000000
01C0000000
0380000000
0380000000
0700000000
0700000000
0E00000000
1C00000000
1C00000000
3800000000
3800000000
7000000000
FFFC000000
ENDCHAR
STARTCHAR 005C
ENCODING 92
SWIDTH 375 0
DWIDTH 27 0
BBX 17 52 13 -12
BITMAP
C00000
400000
400000
600000
600000
200000
300000
300000
100000
100000
180000
080000
080000
0C0000
0C0000
040000
060000
060000
020000
030000
030000
010000
018000
018000
008000
008000
00C000
00C000
004000
006000
006000
002000
003000
003000
001000
001000
001800
001800
000800
000C00
000C00
000400
000600
000600
000200
000200
000300
000300
000100
000180
000180
000080
ENDCHAR
STARTCHAR 005D
ENCODING 93
SWIDTH 402 0
DWIDTH 29 0
BBX 38 48 1 -4
BITMAP
000000FFFC
0000000038
0000000078
0000000070
00000000E0
00000000E0
00000001C0
00000001C0
0000000380
0000000380
0000000700
0000000600
0000000E00
0000001C00
0000001C00
0000003800
0000003800
0000007000
0000007000
000000E000
000000E000
000001C000
0000018000
0000038000
0000030000
0000070000
0000060000
00000E0000
00001C0000
00001C0000
0000380000
0000380000
0000700000
0000700000
0000E00000
0000E00000
0001C00000
0001C00000
0003800000
0003800000
0007000000
0007000000
000E000000
001E000000
001C000000
003C000000
0038000000
FFF8000000
ENDCHAR
STARTCHAR 005E
ENCODING 94
SWIDTH 402 0
DWIDTH 29 0
BBX 13 12 14 16
BITMAP
0008
0018
0028
0048
0088
0188
0308
0608
0C08
1808
3008
C008
ENDCHAR
STARTCHAR 005F
ENCODING 95
SWIDTH 500 0
DWIDTH 36 0
BBX 36 1 0 -3
BITMAP
FFFFFFFFF0
ENDCHAR
STARTCHAR 0060
ENCODING 96
SWIDTH 236 0
DWIDTH 17 0
BBX 4 9 7 20
BITMAP
80
80
C0
40
60
20
20
10
10
ENDCHAR
STARTCHAR 0061
ENCODING 97
SWIDTH 236 0
DWIDTH 17 0
BBX 23 16 2 0
BITMAP
001D00
007E00
008600
010400
020C00
041800
081800
183002
107004
306008
31E010
616020
626040
E46080
E86100
F07E00
ENDCHAR
STARTCHAR 0062
ENCODING 98
SWIDTH 263 0
DWIDTH 19 0
BBX 42 50 3 0
BITMAP
000000000F00
000000007F80
0000000183C0
0000000201C0
0000000C00C0
0000001000C0
000000200080
000000400080
000000800100
000001000100
000002000200
000002000400
000004000800
000008001800
000010003000
000030002000
00006000C000
000040018000
000080030000
000180060000
0001000C0000
000300180000
000600300000
000400C00000
000C01800000
001803000000
001806000000
00301C000000
003038000000
0060E0000000
00C1C0000000
00C380000000
018F00000000
019C00000000
037800000000
03FE00000000
07FFFF000000
0F1800000000
0E0800000000
1C0800000000
1C1000000000
381000000000
382000000000
702000000000
704000000000
608000000000
E10000000000
E20000000000
FC0000000000
700000000000
ENDCHAR
STARTCHAR 0063
ENCODING 99
SWIDTH 222 0
DWIDTH 16 0
BBX 16 16 4 0
BITMAP
0038
00FC
030C
0408
0C00
1800
3000
3000
6001
6002
E004
C008
C030
C040
E180
7E00
ENDCHAR
STARTCHAR 0064
ENCODING 100
SWIDTH 222 0
DWIDTH 16 0
BBX 13 49 3 0
BITMAP
4000
6000
6000
7000
3000
3800
1800
1C00
0C00
0E00
0600
0700
0300
0300
0180
0180
01C0
00C0
00C0
0040
0060
0060
0020
0030
0030
0010
0010
0010
0018
0008
0008
0008
0008
0018
0068
0188
0308
0608
0C08
1C10
3810
3010
7020
6020
E040
E0C0
C080
C300
FC00
ENDCHAR
STARTCHAR 0065
ENCODING 101
SWIDTH 208 0
DWIDTH 15 0
BBX 19 16 2 -1
BITMAP
003C00
00CC00
010C00
020C00
041800
0C2000
184000
198000
360020
780040
600080
600100
E00200
E00C00
703000
7FC000
ENDCHAR
STARTCHAR 0066
ENCODING 102
SWIDTH 166 0
DWIDTH 12 0
BBX 64 66 -27 -25
BITMAP
000000000000003E
00000000000000FF
0000000000000307
0000000000000402
0000000000001802
0000000000002000
0000000000004000
0000000000004000
0000000000008000
0000000000010000
0000000000030000
0000000000060000
00000000000C0000
00000000000C0000
0000000000180000
0000000000380000
0000000000300000
0000000000700000
0000000000E00000
0000000000C00000
0000000001C00000
0000000001800000
0000000003800000
0000000003000000
0000000007000000
00000003FFFFC000
000000000E000000
000000001C000000
000000001C000000
0000000038000000
0000000038000000
0000000070000000
0000000070000000
00000000E0000000
00000000E0000000
00000001C0000000
00000001C0000000
0000000380000000
0000000300000000
0000000700000000
0000000600000000
0000000E00000000
0000001C00000000
0000001C00000000
0000003800000000
0000003000000000
0000007000000000
0000006000000000
000000E000000000
000000C000000000
0000018000000000
0000018000000000
0000030000000000
0000060000000000
0000040000000000
00000C0000000000
0000180000000000
0000100000000000
0000200000000000
0000400000000000
0000800000000000
8001000000000000
8002000000000000
C00C000000000000
3030000000000000
0FC0000000000000
ENDCHAR
STARTCHAR 0067
ENCODING 103
SWIDTH 277 0
DWIDTH 20 0
BBX 55 48 -29 -29
BITMAP
00000000000060
000000000000E0
000000000000C0
00000000001FC0
00000000006180
00000000008380
00000000010300
00000000060600
000000000C0600
000000001C0C00
00000000181C00
00000000303802
00000000705804
00000000E0B008
00000000E0A010
00000001C36060
00000001C44180
00000001F8C600
00000001E09800
0000000001E000
00000000070000
000000007A0000
00000003860000
0000003C040000
000003C00C0000
00001C00180000
0001E000100000
00060000300000
00380000600000
00C00000400000
03000000C00000
0E000001800000
1C000003000000
38000003000000
70000006000000
6000000C000000
E0000018000000
C0000038000000
C0000070000000
C00000E0000000
C00001C0000000
C0000380000000
40000700000000
60001E00000000
20003800000000
1000F000000000
0C07C000000000
03FE0000000000
ENDCHAR
STARTCHAR 0068
ENCODING 104
SWIDTH 263 0
DWIDTH 19 0
BBX 81 85 -33 -36
BITMAP
0000000000000000007E00
000000000000000001FF00
0000000000000000070380
0000000000000000080080
0000000000000000300080
0000000000000000400000
0000000000000000800000
0000000000000001000000
0000000000000002000000
0000000000000004000000
0000000000000008000000
0000000000000010000000
0000000000000020000000
0000000000000040000000
00000000000000C0000000
0000000000000080000000
0000000000000100000000
0000000000000200000000
0000000000000600000000
0000000000000C00000000
0000000000000800000000
0000000000001800000000
0000000000003000000000
0000000000002000000000
0000000000006000000000
000000000000C000000000
0000000000018000000000
0000000000018000000000
0000000000030000000000
0000000000070000000000
0000000000060000000000
00000000000C0000000000
00000000000C0000000000
000000000018E000000000
000000000039E000000000
000000000036E000000000
000000000068C000000000
0000000000F0C000000000
0000000000E1C010000000
0000000001C18020000000
0000000001838040000000
0000000003830080000000
0000000003030300000000
0000000006060400000000
000000000E061800000000
000000000C0C6000000000
000000001C0D8000000000
00000000181E0000000000
0000000020380000000000
0000000000F00000000000
0000000007300000000000
0000000018200000000000
00000000E0600000000000
0000000300400000000000
0000001C00C00000000000
000000E000800000000000
0000030001000000000000
00000C0003000000000000
0000300002000000000000
0000C00006000000000000
0003000004000000000000
000C000008000000000000
0010000008000000000000
0060000010000000000000
0080000020000000000000
0300000040000000000000
0600000040000000000000
0C00000080000000000000
1800000100000000000000
1000000200000000000000
3000000200000000000000
6000000400000000000000
6000000800000000000000
6000001000000000000000
C000002000000000000000
C000004000000000000000
C000008000000000000000
C000010000000000000000
E000020000000000000000
E0000C0000000000000000
6000100000000000000000
7000200000000000000000
3800C00000000000000000
1F07000000000000000000
07F8000000000000000000
ENDCHAR
STARTCHAR 0069
ENCODING 105
SWIDTH 180 0
DWIDTH 13 0
BBX 18 26 2 -1
BITMAP
000200
000600
000600
000400
000000
000000
000000
000000
000000
000000
008000
018000
018000
030000
030000
060040
0C0080
0C0100
180200
180400
300800
301000
602000
60C000
F30000
7C0000
ENDCHAR
STARTCHAR 006A
ENCODING 106
SWIDTH 208 0
DWIDTH 15 0
BBX 48 54 -26 -28
BITMAP
0000000000C0
0000000001C0
0000000001C0
000000000180
000000000000
000000000000
000000000000
000000000000
000000000000
000000000000
000000000000
00000000F000
00000003F000
000000047000
000000183000
000000202001
000000002006
000000002008
000000006030
000000004040
000000004180
00000000C600
000000009800
00000000B000
00000001C000
000000038000
0000000F0000
0000000E0000
000000040000
000000040000
000000080000
000000100000
000000100000
000000200000
000000200000
000000400000
000000800000
000000800000
000001000000
000002000000
000002000000
000004000000
000008000000
000010000000
000010000000
800020000000
800040000000
800080000000
800100000000
C00200000000
C00C00000000
F03000000000
7FE000000000
3F8000000000
ENDCHAR
STARTCHAR 006B
ENCODING 107
SWIDTH 222 0
DWIDTH 16 0
BBX 49 71 1 -21
BITMAP
0000000001F000
000000000FFC00
00000000181C00
00000000400200
00000000800200
00000003000000
00000004000000
00000008000000
00000010000000
00000020000000
00000040000000
00000080000000
00000100000000
00000100000000
00000200000000
00000400000000
00000800000000
00000800000000
00001000000000
00002000000000
00002000000000
00004000000000
0000C000000000
00008000000000
00010000000000
00030000000000
00020000000000
00060000000000
000C0000000000
000C0000000000
00180000000000
00100000000000
00300000000000
00600000000000
00638000000000
00CF8000000000
01D98000000000
01A10000000000
03C20000000000
03840000000000
07080000000000
0E100000000000
0EE00000000000
1F800000000000
1F800000000000
39C00000000000
71C00000000000
60E00000000000
C0F00000000000
80700000000000
00380000000000
003C0000000000
001C0000000000
000E0000000000
000F0000000000
00070000000000
00038000000000
0001C000000000
0001E000000000
0000E000000000
00007000000000
00003800000000
00001C00000000
00000E00000000
00000700000000
000003C0000000
000000E0000080
00000078000300
0000001E000C00
00000007C07000
00000000FF8000
ENDCHAR
STARTCHAR 006C
ENCODING 108
SWIDTH 208 0
DWIDTH 15 0
BBX 34 47 3 -2
BITMAP
0000000380
0000000780
0000001BC0
00000021C0
00000041C0
00000080C0
00000100C0
00000200C0
00000400C0
00000800C0
00000800C0
0000100080
0000200180
0000600100
0000C00300
0000800200
0001800400
0003000800
0002001000
0006002000
000C004000
001C008000
0018030000
0030040000
0030180000
0060200000
00E0C00000
00C3000000
01CC000000
03F0000000
0380000000
1F00000000
0E00000000
0E00000000
0C00000000
1C00000000
1800100000
3800200000
3000400000
7000800000
6001000000
E002000000
E00C000000
E010000000
E060000000
F180000000
7E00000000
ENDCHAR
STARTCHAR 006D
ENCODING 109
SWIDTH 347 0
DWIDTH 25 0
BBX 31 19 2 -3
BITMAP
00800000
01800000
01860C00
038E3C00
032EDC00
064D1800
0F9E3800
0E1C3002
1C382004
18306008
3860C010
3060C020
60C1C040
41C18080
C1838100
80038200
00038C00
0003F000
0003C000
ENDCHAR
STARTCHAR 006E
ENCODING 110
SWIDTH 277 0
DWIDTH 20 0
BBX 22 19 2 -3
BITMAP
008180
018780
038F00
033700
074600
068E00
0F0C00
0E1800
1E1800
1C1800
383000
303000
707000
606000
C06004
C06018
007020
0078C0
001F00
ENDCHAR
STARTCHAR 006F
ENCODING 111
SWIDTH 236 0
DWIDTH 17 0
BBX 23 16 2 0
BITMAP
001800
003C00
00DE00
011FFE
021800
0C1800
181800
181800
301000
703000
702000
604000
608000
E08000
730000
7C0000
ENDCHAR
STARTCHAR 0070
ENCODING 112
SWIDTH 263 0
DWIDTH 19 0
BBX 43 55 -18 -36
BITMAP
000000018000
000000038000
000000070000
000000060000
0000000E3000
0000000C3800
0000001C3800
000000183800
000000303000
000000707000
000000606020
000000C0C040
000000C08180
000001810600
000001061800
000003086000
000002138000
0000067C0000
000007C00000
00003E000000
0003F8000000
000390000000
000020000000
000020000000
000040000000
0000C0000000
000080000000
000100000000
000100000000
000200000000
000400000000
000400000000
000800000000
000800000000
001000000000
002000000000
002000000000
004000000000
00C000000000
008000000000
010000000000
030000000000
020000000000
060000000000
040000000000
080000000000
180000000000
100000000000
300000000000
700000000000
600000000000
E00000000000
E00000000000
F80000000000
FFE000000000
ENDCHAR
STARTCHAR 0071
ENCODING 113
SWIDTH 263 0
DWIDTH 19 0
BBX 34 51 -12 -34
BITMAP
00000000C0
00000001C0
0000000380
0000003F00
000001CF00
0000021E00
0000041E00
0000083C00
0000107800
0000207800
000040F000
0000C16000
000182E000
000185DE00
0003098100
0003138080
0003230080
0003C60040
0000060040
00000C0040
00000C0040
0000180040
0000100040
0000300040
0000200040
0000600080
0000C00080
0000C00080
0001800100
0001800200
0003000200
0002000400
0006000400
000C000800
000C001000
0018002000
0018004000
0030008000
0030010000
0060020000
00C0040000
00C0080000
0180300000
0180400000
0301800000
0602000000
041C000000
0870000000
1FC0000000
FF00000000
F800000000
ENDCHAR
STARTCHAR 0072
ENCODING 114
SWIDTH 208 0
DWIDTH 15 0
BBX 23 18 2 1
BITMAP
00007C
0001FE
00020E
00CC04
01D004
01A000
034000
038000
070000
0E0000
0C0000
1C0000
180000
300000
700000
600000
E00000
400000
ENDCHAR
STARTCHAR 0073
ENCODING 115
SWIDTH 180 0
DWIDTH 13 0
BBX 27 28 -11 -11
BITMAP
000001E0
00000600
00000800
00001800
00001800
00003000
00003000
00003000
00003000
00007000
00007000
00007000
00007000
00007000
00006000
00006000
0000E000
0000E000
0000C000
0000C000
00018000
00010000
00020000
00040000
80080000
40100000
60600000
3F800000
ENDCHAR
STARTCHAR 0074
ENCODING 116
SWIDTH 208 0
DWIDTH 15 0
BBX 22 26 3 0
BITMAP
000100
000200
000400
000800
000800
001000
002000
004000
004000
008000
018000
3FFFFC
030000
060000
040000
0C0000
180000
180000
380000
300000
700000
700000
E00000
E01000
F0E000
7F0000
ENDCHAR
STARTCHAR 0075
ENCODING 117
SWIDTH 250 0
DWIDTH 18 0
BBX 17 19 2 -4
BITMAP
00C000
01C000
018200
030600
070600
060C00
0C1800
0C1800
183000
187000
30E000
316000
626000
64C000
F8C000
61C000
01C080
01C300
01FC00
ENDCHAR
STARTCHAR 0076
ENCODING 118
SWIDTH 277 0
DWIDTH 20 0
BBX 17 20 4 0
BITMAP
000180
000180
000180
000180
0FF180
1FC100
208300
410200
820200
040400
080400
180800
101000
302000
602000
604000
E08000
E10000
FE0000
700000
ENDCHAR
STARTCHAR 0077
ENCODING 119
SWIDTH 347 0
DWIDTH 25 0
BBX 31 17 3 0
BITMAP
00001000
00403000
01803000
03003800
060C1802
0E0C1804
0C1C3C08
18182630
183021C0
30702000
30604000
60E04000
61C08000
62C10000
E4C10000
E8C60000
F0780000
ENDCHAR
STARTCHAR 0078
ENCODING 120
SWIDTH 277 0
DWIDTH 20 0
BBX 21 16 2 0
BITMAP
01F038
01F0C0
01E300
01E400
01E800
01F000
01E000
01C000
00C000
018000
028000
058000
098000
11C000
E1FF80
C07C00
ENDCHAR
STARTCHAR 0079
ENCODING 121
SWIDTH 250 0
DWIDTH 18 0
BBX 34 57 -14 -39
BITMAP
00000000C0
00000001C0
0000000180
0000060300
0000060300
00000C0600
00000C0400
00000C0800
00000C1000
0000182000
0000184000
0000388000
0000390000
0000310000
0000320000
0000740000
0000780000
0000100000
0000100000
0000200000
0000400000
0000800000
0000800000
0001000000
0002000000
0004000000
0004000000
0008000000
0010000000
0010000000
0020000000
0040000000
0040000000
0080000000
0100000000
0100000000
0200000000
0200000000
0400000000
0800000000
0800000000
1000000000
1000000000
3000000000
2000000000
6000000000
6000000000
E000000000
C000000000
C000000000
C000000000
C000000000
C000000000
4000000000
2000000000
1000000000
0800000000
ENDCHAR
STARTCHAR 007A
ENCODING 122
SWIDTH 263 0
DWIDTH 19 0
BBX 42 26 -2 -10
BITMAP
001FFF800000
003FFF000000
007FFE000000
00000C000000
000018000000
000020000000
000040000000
000180000000
000300000000
000600000000
000C00000000
3FF000000000
C3F800000000
C1FC00000000
C07F00000000
3FFF80000000
003FE0000000
000FF0000000
0003F8000000
0001FE000000
00007F000000
00001FC00000
000007F00040
000001F80080
0000007F0700
00000007F800
ENDCHAR
STARTCHAR 007B
ENCODING 123
SWIDTH 444 0
DWIDTH 32 0
BBX 34 49 12 -5
BITMAP
00000007C0
0000003C00
0000007000
000000E000
000001C000
000003C000
0000078000
0000070000
00000E0000
00001C0000
00001C0000
0000380000
0000300000
0000600000
0000600000
0000C00000
0001000000
0002000000
000C000000
07F0000000
0030000000
0010000000
0010000000
0010000000
0030000000
0020000000
0060000000
0060000000
00C0000000
00C0000000
0180000000
0380000000
0300000000
0600000000
0E00000000
0C00000000
1C00000000
3800000000
3800000000
7000000000
7000000000
F000000000
E000000000
E000000000
E000000000
E000000000
7000000000
3800000000
0E00000000
ENDCHAR
STARTCHAR 007C
ENCODING 124
SWIDTH 222 0
DWIDTH 16 0
BBX 1 73 11 -18
BITMAP
80
80
80
80
80
80
80
80
80
80
80
80
80
80
80
80
80
80
80
80
80
80
80
80
80
80
80
80
80
80
80
80
80
80
80
80
80
80
80
80
80
80
80
80
80
80
80
80
80
80
80
80
80
80
80
80
80
80
80
80
80
80
80
80
80
80
80
80
80
80
80
80
80
ENDCHAR
STARTCHAR 007D
ENCODING 125
SWIDTH 444 0
DWIDTH 32 0
BBX 32 47 1 -3
BITMAP
0000000C
00000002
00000002
00000003
00000003
00000007
00000007
0000000E
0000000E
0000001C
0000003C
00000038
00000078
000000F0
000000E0
000001C0
000003C0
00000380
00000300
00000700
00000600
00000600
00000300
000000FF
00000300
00000C00
00003000
00006000
0000E000
0001C000
0001C000
00038000
00038000
00070000
000F0000
000E0000
001E0000
001C0000
00380000
00380000
00700000
00F00000
01E00000
03800000
07000000
1C000000
E0000000
ENDCHAR
STARTCHAR 007E
ENCODING 126
SWIDTH 402 0
DWIDTH 29 0
BBX 18 5 9 8
BITMAP
1E0080
3F80C0
61E180
C07F00
401E00
ENDCHAR
STARTCHAR 00A0
ENCODING 160
SWIDTH 194 0
DWIDTH 14 0
BBX 0 0 0 0
BITMAP
ENDCHAR
STARTCHAR 00A1
ENCODING 161
SWIDTH 222 0
DWIDTH 16 0
BBX 18 30 0 -13
BITMAP
0001C0
0003C0
0003C0
000380
000000
000000
000000
000200
000400
000400
000400
000800
000800
000800
001000
001000
003000
002000
006000
004000
00C000
00C000
018000
038000
030000
070000
0E0000
1E0000
3C0000
F80000
ENDCHAR
STARTCHAR 00A2
ENCODING 162
SWIDTH 361 0
DWIDTH 26 0
BBX 24 47 6 -11
BITMAP
000001
000002
000002
000002
000004
000004
000008
00007C
0003FF
000C27
001823
003042
006040
01C080
038100
038100
070200
0F0200
1E0400
1E0800
3C0801
3C1002
7C1004
782008
F82010
F84060
F84080
F88300
FD1C00
7FE000
1F0000
020000
020000
040000
040000
080000
080000
100000
100000
200000
200000
400000
400000
400000
800000
800000
800000
ENDCHAR
STARTCHAR 00A3
ENCODING 163
SWIDTH 486 0
DWIDTH 35 0
BBX 35 34 -1 -1
BITMAP
00000007C0
0000003FE0
00000040E0
0000018040
0000020000
0000040000
0000080000
0000080000
0000100000
0000200000
0000200000
0000400000
0000C00000
0000800000
0001800000
007FFFE000
0003000000
0002000000
0004000000
0004000000
0008000000
0010000000
0020000000
0040000000
0080000000
01FE000000
0307C00000
0401F00020
1800F80060
38003C0040
70001F0180
E0000FC300
E00003FC00
400000F000
ENDCHAR
STARTCHAR 00A4
ENCODING 164
SWIDTH 500 0
DWIDTH 36 0
BBX 32 25 7 4
BITMAP
1003FE01
081C0782
042001C4
02C000F8
01000070
03000070
02000030
04000030
0C000010
08000010
08000010
10000010
10000010
10000010
10000030
10000030
10000020
18000060
180000E0
180000E0
3C0001B0
26000710
43000E08
80C07804
003FC006
ENDCHAR
STARTCHAR 00A5
ENCODING 165
SWIDTH 444 0
DWIDTH 32 0
BBX 40 36 4 0
BITMAP
0000000003
0000000007
000000000E
007C000018
03FF000070
0C0F8000C0
1003800180
2001C00300
4001C00C00
8001C01800
0000C03000
0000C06000
0000C08000
0000C30000
0000860000
00018C0000
0001980000
0001B00000
0003400000
01FFFF0000
0003000000
0007000000
0006000000
000E000000
0FFFF80000
001C000000
0018000000
0038000000
0030000000
0070000000
0060000000
00E0000000
01C0000000
0380000000
0380000000
FFFC000000
ENDCHAR
STARTCHAR 00A6
ENCODING 166
SWIDTH 222 0
DWIDTH 16 0
BBX 1 61 15 -12
BITMAP
80
80
80
80
80
80
80
80
80
80
80
80
80
80
80
80
80
80
80
80
80
80
80
80
80
00
00
00
00
00
00
00
00
00
00
00
80
80
80
80
80
80
80
80
80
80
80
80
80
80
80
80
80
80
80
80
80
80
80
80
80
ENDCHAR
STARTCHAR 00A7
ENCODING 167
SWIDTH 305 0
DWIDTH 22 0
BBX 28 37 -1 -5
BITMAP
000003E0
00001FF0
00002070
00004020
00008020
00008000
00010000
00010000
00010000
00038000
000D8000
0008C000
0010C000
00306000
00307000
00383800
00381800
003C0C00
001E0C00
001F0400
000F0400
000F8400
0007C400
0007C800
0003E800
0003F000
0001E000
8001E000
8001E000
8001E000
8001C000
C0038000
C0038000
60070000
781E0000
3FF80000
0FC00000
ENDCHAR
STARTCHAR 00A8
ENCODING 168
SWIDTH 236 0
DWIDTH 17 0
BBX 8 4 4 23
BITMAP
63
E7
E7
C6
ENDCHAR
STARTCHAR 00A9
ENCODING 169
SWIDTH 402 0
DWIDTH 29 0
BBX 23 22 11 12
BITMAP
003FC0
01C030
060008
083F84
1040C4
208046
218002
430002
430002
860002
860002
860002
860004
860004
860004
860008
C30210
418410
607820
2000C0
180100
07BE00
ENDCHAR
STARTCHAR 00AA
ENCODING 170
SWIDTH 263 0
DWIDTH 19 0
BBX 19 23 6 10
BITMAP
000100
000180
000380
000700
000E00
007E00
008C00
011C00
021C00
043800
087800
187000
30B000
717000
626000
E66000
FCE020
F8E040
F0E080
C0E100
00F200
00FC00
007000
ENDCHAR
STARTCHAR 00AB
ENCODING 171
SWIDTH 333 0
DWIDTH 24 0
BBX 17 18 9 -2
BITMAP
001080
002100
00C600
010800
021000
0C2000
104000
218000
430000
C38000
E38000
618000
61C000
70C000
30E000
30E000
386000
384000
ENDCHAR
STARTCHAR 00AC
ENCODING 172
SWIDTH 402 0
DWIDTH 29 0
BBX 16 8 10 6
BITMAP
FFFF
FFFE
0006
0004
000C
000C
0018
0008
ENDCHAR
STARTCHAR 00AD
ENCODING 173
SWIDTH 319 0
DWIDTH 23 0
BBX 13 1 10 10
BITMAP
FFF8
ENDCHAR
STARTCHAR 00AE
ENCODING 174
SWIDTH 402 0
DWIDTH 29 0
BBX 23 23 11 12
BITMAP
007FC0
018030
060008
083F84
1031C4
2060C6
2060C2
4040C2
40C182
408702
81FC02
81F002
833004
831804
860C04
860C08
840608
CC0310
400020
200040
300080
0C0300
03FC00
ENDCHAR
STARTCHAR 00AF
ENCODING 175
SWIDTH 236 0
DWIDTH 17 0
BBX 7 1 6 23
BITMAP
FE
ENDCHAR
STARTCHAR 00B0
ENCODING 176
SWIDTH 222 0
DWIDTH 16 0
BBX 8 7 14 27
BITMAP
3E
41
81
81
81
82
6C
ENDCHAR
STARTCHAR 00B1
ENCODING 177
SWIDTH 402 0
DWIDTH 29 0
BBX 21 17 6 0
BITMAP
0000C0
000180
000100
000300
000600
000600
03FFF8
000800
001800
001000
003000
002000
006000
006000
000000
000000
FFFF00
ENDCHAR
STARTCHAR 00B2
ENCODING 178
SWIDTH 250 0
DWIDTH 18 0
BBX 17 15 9 17
BITMAP
007000
01BC00
001C00
001C00
001800
001800
002000
004000
008000
030000
040000
1C0000
3F8080
C7FB00
00FC00
ENDCHAR
STARTCHAR 00B3
ENCODING 179
SWIDTH 250 0
DWIDTH 18 0
BBX 14 16 11 16
BITMAP
0070
01BC
061C
0018
0010
0060
0080
01C0
01C0
00E0
00E0
0060
0040
8080
8100
7E00
ENDCHAR
STARTCHAR 00B4
ENCODING 180
SWIDTH 236 0
DWIDTH 17 0
BBX 12 10 2 20
BITMAP
0010
0020
00C0
0180
0300
0400
0800
3000
4000
8000
ENDCHAR
STARTCHAR 00B5
ENCODING 181
SWIDTH 402 0
DWIDTH 29 0
BBX 27 33 0 -18
BITMAP
00008060
000180C0
00030180
00020100
00060300
000C0200
000C0600
00180C00
00180C00
00301800
00703820
00A0F840
00E13080
01623100
01743200
02383C00
02000000
04000000
04000000
08000000
08000000
10000000
10000000
30000000
20000000
60000000
60000000
60000000
C0000000
C0000000
C0000000
C0000000
C0000000
ENDCHAR
STARTCHAR 00B6
ENCODING 182
SWIDTH 500 0
DWIDTH 36 0
BBX 29 36 7 -15
BITMAP
00000008
000007F0
0000FF00
0003FF00
000FFE00
001FFE00
003FFC00
007FFC00
00FFF800
01FFF800
01FFF000
03FFF000
03FFE000
03FFE000
03FFC000
03FFC000
03FF8000
03FF8000
03FF0000
01FF0000
007E0000
00060000
00040000
00040000
00080000
00080000
00100000
00100000
00200000
00200000
40400000
C0400000
C0800000
C1000000
62000000
3C000000
ENDCHAR
STARTCHAR 00B7
ENCODING 183
SWIDTH 222 0
DWIDTH 16 0
BBX 5 5 10 11
BITMAP
38
78
F8
F0
E0
ENDCHAR
STARTCHAR 00B8
ENCODING 184
SWIDTH 236 0
DWIDTH 17 0
BBX 7 10 4 -11
BITMAP
02
0C
18
1C
1E
06
04
08
30
C0
ENDCHAR
STARTCHAR 00B9
ENCODING 185
SWIDTH 250 0
DWIDTH 18 0
BBX 13 15 12 17
BITMAP
00F8
0738
0070
0060
0060
00C0
01C0
0180
0380
0300
0700
0600
0E00
1FE0
E000
ENDCHAR
STARTCHAR 00BA
ENCODING 186
SWIDTH 236 0
DWIDTH 17 0
BBX 14 19 7 11
BITMAP
0008
0038
00DC
011C
0218
0418
0418
0818
1810
1030
3030
7020
6060
6040
E080
E100
E200
6400
7800
ENDCHAR
STARTCHAR 00BB
ENCODING 187
SWIDTH 361 0
DWIDTH 26 0
BBX 19 17 6 0
BITMAP
031C00
039E00
03CE00
01C700
00E700
007380
0031C0
0038E0
001060
002080
00C100
010200
020C00
0C1000
102000
604000
C08000
ENDCHAR
STARTCHAR 00BC
ENCODING 188
SWIDTH 597 0
DWIDTH 43 0
BBX 36 38 7 -3
BITMAP
0000000030
0000000060
00000000C0
007FC00180
0003800300
0003800600
0003000400
0006000800
0006001000
000C002000
001C004000
0018008000
0038010000
0030020000
0070040000
00E0080000
0FFF100000
0000300000
0000600000
0000400000
0000800C00
0001000C00
0002000900
0004001300
0008002200
0010004600
0020018E00
0040020C00
00C00C1C00
01807FFF80
0300003000
0600006000
0C0000E000
0800004000
1000000000
2000000000
6000000000
8000000000
ENDCHAR
STARTCHAR 00BD
ENCODING 189
SWIDTH 597 0
DWIDTH 43 0
BBX 37 39 7 -5
BITMAP
0000000018
0000000030
0000000060
007FC000C0
0003800180
0003000300
0007000200
0006000400
000E000800
000C001000
001C002000
0018004000
0038008000
0070010000
0060020000
00E0060000
1FFF0C0000
0000080000
0000100000
0000200000
0000400000
000083F000
0001003800
0002001800
0004001800
0008001000
0018002000
0030004000
0020008000
0040030000
0080040000
0100080000
02003F0000
04007FE000
0C0183FE00
1800000000
3000000000
6000000000
C000000000
ENDCHAR
STARTCHAR 00BE
ENCODING 190
SWIDTH 597 0
DWIDTH 43 0
BBX 35 36 7 -3
BITMAP
0007800020
0009C00040
0000C00080
0000800100
0001000200
0006000400
0018000800
0018001000
0018002000
0018004000
0018008000
0018010000
0818020000
0810040000
0C60080000
0780100000
0000200000
0000200000
0000400C00
0000800C00
0001000880
0002000900
0004001200
0008006600
0010018600
0020020C00
00400C1C00
0080FFFF80
0100003000
0200006000
040000E000
0C00004000
1800000000
3000000000
6000000000
8000000000
ENDCHAR
STARTCHAR 00BF
ENCODING 191
SWIDTH 319 0
DWIDTH 23 0
BBX 22 33 -1 -16
BITMAP
00000C
00003C
00003C
000030
000000
000000
00003C
00003C
00003C
00007C
00007C
0000F8
0003F8
0007F0
001FE0
003F80
00FE00
01F800
07E000
0F8000
1E0000
3C0000
700000
600000
C00000
800000
800000
800080
800100
400100
400600
301800
0FE000
ENDCHAR
STARTCHAR 00C0
ENCODING 192
SWIDTH 722 0
DWIDTH 52 0
BBX 60 52 -3 1
BITMAP
0000000000000C00
0000000000000400
0000000000000400
0000000000000200
0000000000000200
0000000000000100
0000000000000100
0000000000000100
0000000000000000
0000000000000000
0000000000000000
00000000FE000030
00000007FFE00070
0000000FFFFC00F0
0000001FFFFF8180
0000003FFFFFFF00
0000007FFFFFF200
0000007800000600
000000E000000C00
000000C000000C00
0000008000005C00
0000010000007800
000001000000F800
0000010000017800
0000000000027000
000000000002F000
000000000004F000
000000000009F000
000000000011E000
000000000021E000
000000000041E000
000000000083C000
000000000103C000
040000000203C000
080000000407C000
100000000807C000
2000000010078000
20000001FFFF8000
40000000400F8000
40000000800F8000
C0000001000F8000
C0000006000F0000
C0000008000F0000
C0000010000F0000
C0000020000F0000
E00000C0000F0000
E0000100000F0000
70000600000F0000
7C001800000F0000
3F00E000000F8C00
1FFF0000000FF000
07F8000000078000
ENDCHAR
STARTCHAR 00C1
ENCODING 193
SWIDTH 722 0
DWIDTH 52 0
BBX 66 52 -3 1
BITMAP
0000000000000000C0
000000000000000180
000000000000000200
000000000000000400
000000000000001800
000000000000002000
000000000000004000
000000000000008000
000000000000030000
000000000000000000
000000000000000000
00000000FE00003000
00000007FFE0007000
0000000FFFFC00F000
0000001FFFFF818000
0000003FFFFFFF0000
0000007FFFFFF20000
000000780000060000
000000E000000C0000
000000C000000C0000
0000008000005C0000
000001000000780000
000001000000F80000
000001000001780000
000000000002700000
000000000002F00000
000000000004F00000
000000000009F00000
000000000011E00000
000000000021E00000
000000000041E00000
000000000083C00000
000000000103C00000
040000000203C00000
080000000407C00000
100000000807C00000
200000001007800000
20000001FFFF800000
40000000400F800000
40000000800F800000
C0000001000F800000
C0000006000F000000
C0000008000F000000
C0000010000F000000
C0000020000F000000
E00000C0000F000000
E0000100000F000000
70000600000F000000
7C001800000F000000
3F00E000000F8C0000
1FFF0000000FF00000
07F800000007800000
ENDCHAR
STARTCHAR 00C2
ENCODING 194
SWIDTH 722 0
DWIDTH 52 0
BBX 64 52 -3 1
BITMAP
0000000000000003
0000000000000007
000000000000001B
0000000000000023
0000000000000043
0000000000000083
0000000000000103
0000000000000103
0000000000000002
0000000000000000
0000000000000000
00000000FE000030
00000007FFE00070
0000000FFFFC0180
0000001FFFFF8100
0000003FFFFFFE00
0000007FFFFFF200
0000007800000400
000000E000000C00
000000C000000C00
0000008000005800
0000010000007800
000001000000F800
0000010000017000
0000000000027000
000000000002F000
000000000004F000
000000000009E000
000000000011E000
000000000021E000
000000000041C000
000000000083C000
000000000103C000
040000000203C000
080000000407C000
1000000008078000
2000000010078000
20000001FFFF8000
40000000400F8000
40000000800F8000
C0000001000F0000
C0000002000F0000
C000000C000F0000
C0000010000F0000
E0000060000F0000
E0000080000F0000
F0000300000F0000
78000C00000F0000
7F00F000000F8000
3FFFE000000FFC00
1FFF0000000FF000
07F8000000078000
ENDCHAR
STARTCHAR 00C3
ENCODING 195
SWIDTH 722 0
DWIDTH 52 0
BBX 65 48 -3 1
BITMAP
000000000000070080
00000000000019C080
00000000000020E100
000000000000407200
000000000000401C00
000000000000000000
000000000000000000
00000000FE00003000
00000007FFE0007000
0000000FFFFC00F000
0000001FFFFF810000
0000003FFFFFFE0000
0000007FFFFFE20000
000000780000040000
000000E000000C0000
000000C000001C0000
000000800000580000
000001000000780000
000001000000F80000
000001000001780000
000000000002700000
000000000004F00000
000000000008F00000
000000000009E00000
000000000011E00000
000000000021E00000
000000000041E00000
000000000083C00000
000000000103C00000
040000000203C00000
080000000407C00000
100000000807800000
200000001007800000
20000001FFFF800000
40000000400F800000
40000000800F800000
C0000001000F800000
C0000002000F000000
C000000C000F000000
C0000010000F000000
E0000060000F000000
E0000080000F000000
F0000300000F000000
78000C00000F000000
7F00F000000F800000
3FFFE000000FFC0000
1FFF0000000FF00000
07F800000007800000
ENDCHAR
STARTCHAR 00C4
ENCODING 196
SWIDTH 722 0
DWIDTH 52 0
BBX 62 49 -3 0
BITMAP
000000000000018C
000000000000039C
000000000000039C
0000000000000318
0000000000000000
0000000000000000
0000000000000000
0000000000000000
00000000FE000060
00000007FFC000F0
0000000FFFF801F0
0000001FFFFF0300
0000003FFFFFFE00
0000007FFFFFE600
0000007000000400
000000E000000C00
000000C000001C00
0000008000007800
000001000000B800
000001000000F800
0000010000017000
0000000000027000
000000000004F000
000000000008E000
000000000011E000
000000000021E000
000000000021E000
000000000041C000
000000000083C000
000000000103C000
040000000203C000
080000000407C000
1000000008078000
2000000010078000
20000001FFFF8000
40000000400F8000
40000000800F8000
C0000001000F8000
C0000002000F0000
C000000C000F0000
C0000010000F0000
E0000060000F0000
E0000080000F0000
F0000300000F0000
78000C00000F0000
7F00F000000F8000
3FFFE000000FF800
1FFF0000000FE000
07F8000000070000
ENDCHAR
STARTCHAR 00C5
ENCODING 197
SWIDTH 722 0
DWIDTH 52 0
BBX 62 52 -3 0
BITMAP
00000000000000F8
0000000000000304
0000000000000204
0000000000000404
0000000000000404
0000000000000408
0000000000000608
00000000000003F0
0000000000000000
0000000000000000
0000000000000000
00000000FF00001C
00000003FFF0003C
0000000FFFFE0040
0000001FFFFFC080
0000003FFFFFFF00
0000007FFFFFE600
0000007000000E00
000000E000000E00
000000C000001C00
0000008000007C00
000001000000BC00
0000010000017800
0000010000017800
0000000000027800
000000000004F000
000000000008F000
000000000011F000
000000000021E000
000000000041E000
000000000041E000
000000000083E000
000000000103C000
040000000203C000
080000000407C000
100000000807C000
2000000010078000
20000001FFFF8000
40000000400F8000
40000000800F8000
C0000001000F8000
C0000006000F0000
C0000008000F0000
C0000010000F0000
E0000060000F0000
E0000080000F0000
F0000300000F0000
78001C00000F0000
7F00F000000F8000
3FFFE000000FF800
1FFF0000000FE000
07F8000000070000
ENDCHAR
STARTCHAR 00C6
ENCODING 198
SWIDTH 944 0
DWIDTH 68 0
BBX 77 42 -3 -1
BITMAP
000001FC0001000F8000
00000FFFC001003FC000
00001FFFF802007FE000
00003FFFFF0401E1E000
00007FFFFFFC01806000
0000FFFFFFC403004000
0000E000000806004000
0001C000001804000000
0001800000300C000000
0003000000500C000000
0002000000B00C000000
0002000000A00E000000
0004000001200E000000
0004000002600F000000
0000000004603F800000
0000000008C1C0000008
0000000008C600000008
0000000010D800000008
0000000021B000000008
0000000041E000000008
0000000081C000000008
00000001018000000008
00000002038000000018
00000004030000000010
00000004030000000010
00000008070000000030
0000000FFE0000000020
000000300E0000000060
00000040060000000040
000000800600000000C0
00000100060000000080
000002000E0000000100
800004000F0000000200
800018000F0000000400
800020001F8000000800
800040001F8000003000
800080001FC000004000
800300003BE000018000
C004000039F0000E0000
E038000070FE00780000
7FC00000407FFFC00000
3F000000800FFC000000
ENDCHAR
STARTCHAR 00C7
ENCODING 199
SWIDTH 666 0
DWIDTH 48 0
BBX 42 55 6 -15
BITMAP
00000007FC00
0000007FFF00
000001C03F80
00000E0007C0
0000300003C0
0000400001C0
000180000080
000200000080
000400000080
000800000080
001000000000
002000000000
004000000000
008000000000
010000000000
030000000000
060000000000
060000000000
0C0000000000
1C0000000000
180000000000
380000000000
380000000000
780000000000
700000000000
700000000000
700000000080
F000000000C0
F000000000C0
F000000001C0
F00000000180
F00000000180
F00000000300
F80000000700
F80000000600
780000000C00
7C0000001800
3C0000003000
3E0000006000
1F0000008000
0F8000030000
07C0000C0000
03F000300000
00FE01C00000
003FFE000000
000100000000
000200000000
000700000000
000780000000
000380000000
000100000000
000200000000
000400000000
001800000000
002000000000
ENDCHAR
STARTCHAR 00C8
ENCODING 200
SWIDTH 652 0
DWIDTH 47 0
BBX 46 62 2 -10
BITMAP
000000004000
000000006000
000000002000
000000003000
000000001000
000000001000
000000000800
000000000800
000000000800
000000000000
000000000000
000000000000
000000007E00
00000007FF80
0000001807C0
0000006001C0
0000008000C0
0000030000C0
000006000080
000006000000
00000E000000
00000E000000
00000F000000
00000F000000
000007800000
000007C00000
000003C00000
000001E00000
000001E00000
000001E00000
000003C00000
000007000000
00003C000000
0000E00000F8
0007000003FC
001C00000C1C
00700000300C
01C00000400C
03800001800C
0F0000020008
1E0000040008
3C0000080018
380000100010
780000200020
700000400060
F00000800040
F00001000080
F00002000100
F00004000200
F00008000800
F00010001000
780010006000
780020008000
3C0040030000
1E00401C0000
0F0080600000
03E107800000
003FF8000000
000200000000
000200000000
000400000000
000400000000
ENDCHAR
STARTCHAR 00C9
ENCODING 201
SWIDTH 652 0
DWIDTH 47 0
BBX 46 62 2 -9
BITMAP
0000000000C0
000000000180
000000000200
000000000400
000000000800
000000003000
000000004000
000000008000
000000010000
000000000000
000000000000
000000000000
000000007E00
00000007FF80
0000001807C0
0000006001C0
0000008000C0
0000030000C0
000006000080
000006000000
00000E000000
00000E000000
00000F000000
00000F000000
000007800000
000007C00000
000003C00000
000001E00000
000001E00000
000001E00000
000003C00000
000007000000
00003C000000
0000E00000F8
0007000003FC
001C00000C1C
00700000300C
01C00000400C
03800001800C
0F0000020008
1E0000040008
3C0000080018
380000100010
780000200020
700000400060
F00000800040
F00001000080
F00002000100
F00004000200
F00008000800
F00010001000
780010006000
780020008000
3C0040030000
1E00401C0000
0F0080600000
03E107800000
003FF8000000
000200000000
000200000000
000400000000
000400000000
ENDCHAR
STARTCHAR 00CA
ENCODING 202
SWIDTH 652 0
DWIDTH 47 0
BBX 46 62 2 -9
BITMAP
000000000080
000000000380
000000000580
000000000980
000000001180
000000002180
000000004180
000000008180
000000000100
000000000000
000000000000
000000000000
000000007E00
00000007FF80
000000180FC0
0000006003C0
0000008001C0
000003000180
000006000100
000006000000
00000E000000
00000E000000
00000F000000
00000F000000
000007800000
000007C00000
000003C00000
000001E00000
000001E00000
000001E00000
000003C00000
000007000000
00003C000000
0000E00000F8
0007000003FC
001C00000C1C
00700000300C
01C00000400C
03800001800C
0F0000020008
1E0000040008
3C0000080018
380000100010
780000200020
700000400060
F00000800040
F00001000080
F00002000100
F00004000200
F00008000800
F00010001000
780010006000
780020008000
3C0040030000
1E00401C0000
0F0080600000
03E107800000
003FF8000000
000200000000
000200000000
000400000000
000400000000
ENDCHAR
STARTCHAR 00CB
ENCODING 203
SWIDTH 652 0
DWIDTH 47 0
BBX 46 59 2 -10
BITMAP
000000006300
00000000E700
00000000E700
00000000C600
000000000000
000000000000
000000000000
000000000000
000000000000
00000001F800
00000007FE00
000000380700
000000600100
000001800100
000003000100
000006000200
000006000000
00000E000000
00000E000000
00000F000000
00000F000000
000007800000
000007C00000
000003C00000
000001E00000
000001E00000
000001E00000
000003C00000
000007000000
00003C000000
0000E00000F8
0007000003FC
001C00000C1C
00700000300C
01C00000400C
03800001800C
0F0000020008
1E0000040008
3C0000080018
380000100010
780000200020
700000400060
F00000800040
F00001000080
F00002000100
F00004000200
F00008000800
F00010001000
780010006000
780020008000
3C0040030000
1E00401C0000
0F0080600000
03E107800000
003FF8000000
000200000000
000200000000
000400000000
000400000000
ENDCHAR
STARTCHAR 00CC
ENCODING 204
SWIDTH 361 0
DWIDTH 26 0
BBX 40 53 1 0
BITMAP
0000000200
0000000200
0000000300
0000000100
0000000180
0000000080
0000000080
0000000040
0000000000
0000000000
0000000000
0000001FFF
000001E002
00000E0004
0000100008
0000200010
0000C00020
0000800040
00018000C0
0001000180
0003000180
0003000300
0003000600
0003000E00
0003800C00
0003801C00
0001C03800
0001C03800
0000F07000
0000007000
000000E000
000001E000
000001C000
000003C000
0000038000
0000078000
00000F0000
00000E0000
00001E0000
00001C0000
00003C0000
0000780000
0000700000
0000F00000
0001E00000
0003C00000
0003800000
0007800000
000F000000
001C000000
8078000000
40E0000000
3F80000000
ENDCHAR
STARTCHAR 00CD
ENCODING 205
SWIDTH 361 0
DWIDTH 26 0
BBX 42 53 1 0
BITMAP
0000000000C0
000000000180
000000000200
000000000400
000000001800
000000002000
000000004000
000000008000
000000030000
000000000000
000000000000
0000001FFF00
000001E00200
00000E000400
000010000800
000020001000
0000C0002000
000080004000
00018000C000
000100018000
000300018000
000300030000
000300060000
0003000E0000
0003800C0000
0003801C0000
0001C0380000
0001C0380000
0000F0700000
000000700000
000000E00000
000001E00000
000001C00000
000003C00000
000003800000
000007800000
00000F000000
00000E000000
00001E000000
00001C000000
00003C000000
000078000000
000070000000
0000F0000000
0001E0000000
0003C0000000
000380000000
000780000000
000F00000000
001C00000000
807800000000
40E000000000
3F8000000000
ENDCHAR
STARTCHAR 00CE
ENCODING 206
SWIDTH 361 0
DWIDTH 26 0
BBX 41 54 1 0
BITMAP
000000000C00
000000003C00
000000004C00
000000008C00
000000010C00
000000020C00
000000040C00
000000080C00
000000000800
000000000000
000000000000
000000000000
0000001FFF80
000001E00300
00000E000400
000010000800
000020001000
000040003000
000080006000
000180004000
00010000C000
000300018000
000300038000
000300030000
000300060000
0003800E0000
0003800C0000
0001C01C0000
0001E0380000
0000F0380000
000000700000
000000F00000
000000E00000
000001E00000
000001C00000
000003C00000
000007800000
000007000000
00000F000000
00001E000000
00001E000000
00003C000000
000038000000
000078000000
0000F0000000
0001E0000000
0001E0000000
0003C0000000
000780000000
000F00000000
001E00000000
803800000000
40F000000000
3F8000000000
ENDCHAR
STARTCHAR 00CF
ENCODING 207
SWIDTH 361 0
DWIDTH 26 0
BBX 40 50 1 -1
BITMAP
0000000318
0000000738
0000000738
0000000630
0000000000
0000000000
0000000000
0000000000
0000001FFF
000001E002
00000E000C
0000100010
0000600030
0000C00020
0000800040
00018000C0
0001000180
0003000300
0003000300
0003000600
0003000E00
0003800C00
0003801C00
0001C03800
0001E03800
0000F07000
000000F000
000000E000
000001C000
000001C000
0000038000
0000078000
0000070000
00000F0000
00000E0000
00001E0000
00003C0000
00003C0000
0000780000
0000F00000
0000F00000
0001E00000
0003C00000
0003800000
0007800000
000F000000
001C000000
8078000000
40E0000000
3F80000000
ENDCHAR
STARTCHAR 00D0
ENCODING 208
SWIDTH 722 0
DWIDTH 52 0
BBX 65 49 -5 0
BITMAP
000000000000000F00
000000000000007F80
000000000000018000
000000000000060000
000000000000080000
000000000000100000
000000000000200000
000000000000400000
0000003FFFFFE00000
000007C00007F80000
0000780000017F0000
0003800000021F8000
001C0000000207C000
00600000000403E000
01800000000801F000
02000000000800F000
04000000001000F800
080000000030007800
100000000020007C00
300000000060003C00
200000000040003C00
6000000000C0003C00
400000000180003C00
C00000000180003C00
C00000000300003C00
C00000000300003C00
C00000000600003C00
C00000000600003800
C00000000C00003800
C0000003FFFE007800
000000001800007000
000000003800007000
00000000300000E000
00000000700000C000
00000000600001C000
00000000E000018000
00000000C000030000
00000001C000020000
000000018000040000
000000030000080000
000000060000100000
000000060000600000
0000000C0000800000
000000180003000000
000000200004000000
000000400018000000
000000800060000000
000003000380000000
00000C003C00000000
ENDCHAR
STARTCHAR 00D1
ENCODING 209
SWIDTH 666 0
DWIDTH 48 0
BBX 67 61 -3 -12
BITMAP
000000000070080000
000000000098080000
00000000030C100000
000000000407100000
000000000403E00000
000000000000000000
000000000000000000
000000000000000000
000000000000000000
00000000001F800000
0000000000E0401FE0
0000000000C023FFE0
0000000000203FFFE0
0000001C001FC40060
0000003E0000040020
0000007E0000020020
000000FE0000030000
0000018E0000030000
0000030E0000030000
0000060E0000030000
000004060000030000
000008060000030000
000010060000030000
000020060000070000
000020060000070000
000040060000060000
000080060000060000
0000800600000E0000
0001000600000C0000
0002000600000C0000
000200060000180000
000400060000180000
000800060000300000
000800060000300000
001000060000600000
002000060000600000
002000060000C00000
004000060000800000
00C000060001800000
008000060001000000
010000060002000000
010000060006000000
020000070004000000
060000070008000000
040000070010000000
0C0000070020000000
080000070040000000
180000078080000000
100000078100000000
30000003C200000000
20000003FC00000000
60000001F000000000
600000000000000000
400000000000000000
C00000000000000000
C00000000000000000
C00000000000000000
800000000000000000
800000000000000000
800000000000000000
800000000000000000
ENDCHAR
STARTCHAR 00D2
ENCODING 210
SWIDTH 625 0
DWIDTH 45 0
BBX 47 55 7 1
BITMAP
000000008000
00000000C000
000000004000
000000006000
000000002000
000000002000
000000001000
000000001000
000000000000
000000000000
000000000000
000000000000
00000007FF00
0000003807E0
0000000001F0
000000000078
00000000007C
00000070003C
00000388003E
00000C00001E
00003000001E
0000C000001E
00010000001E
00060000001E
000C0000001E
00180000001C
00300000001C
00600000003C
00C000000038
01C000000038
038000000078
070000000070
070000000060
0E00000000E0
1E00000000C0
1C00000001C0
3C0000000180
380000000300
380000000600
780000000600
780000000C00
700000001800
F00000003000
F00000006000
F0000000C000
F00000018000
F00000020000
F00000040000
F80000180000
780000200000
7C0000C00000
3E0003000000
1F801C000000
0FFFE0000000
01FE00000000
ENDCHAR
STARTCHAR 00D3
ENCODING 211
SWIDTH 625 0
DWIDTH 45 0
BBX 47 56 7 1
BITMAP
000000000010
000000000030
000000000040
000000000180
000000000300
000000000400
000000000800
000000003000
000000004000
000000000000
000000000000
000000000000
000000000000
00000007FF00
0000003807E0
0000000001F0
000000000078
00000000007C
00000070003C
00000388003E
00000C00001E
00003000001E
0000C000001E
00010000001E
00060000001E
000C0000001E
00180000001C
00300000001C
00600000003C
00C000000038
01C000000038
038000000078
070000000070
070000000060
0E00000000E0
1E00000000C0
1C00000001C0
3C0000000180
380000000300
380000000600
780000000600
780000000C00
700000001800
F00000003000
F00000006000
F0000000C000
F00000018000
F00000020000
F00000040000
F80000180000
780000200000
7C0000C00000
3E0003000000
1F801C000000
0FFFE0000000
01FE00000000
ENDCHAR
STARTCHAR 00D4
ENCODING 212
SWIDTH 625 0
DWIDTH 45 0
BBX 47 55 7 1
BITMAP
0000000000C0
0000000003C0
0000000004C0
0000000008C0
0000000010C0
0000000020C0
0000000040C0
0000000040C0
000000000080
000000000000
000000000000
000000000000
00000007FF00
0000003807E0
0000000001F0
000000000078
00000000007C
00000078003C
00000380003E
00000C00001E
00003000001E
0000C000001E
00010000001E
00020000001E
000C0000001E
00180000001C
00300000001C
00600000003C
00C000000038
01C000000038
038000000078
030000000070
070000000060
0E00000000E0
1E00000000C0
1C00000001C0
3C0000000180
380000000300
380000000600
780000000600
780000000C00
700000001800
F00000003000
F00000006000
F0000000C000
F00000018000
F00000020000
F00000040000
F80000180000
780000200000
7C0000C00000
3E0003000000
1F801C000000
0FFFE0000000
01FE00000000
ENDCHAR
STARTCHAR 00D5
ENCODING 213
SWIDTH 625 0
DWIDTH 45 0
BBX 48 52 7 1
BITMAP
00000000E010
000000033810
000000041C20
000000080E40
000000080380
000000000000
000000000000
000000000000
000000000000
00000007FF00
0000003807F0
0000000001F8
00000000007C
00000000007E
00000078003E
00000380003F
00000C00001F
00003000001F
0000C000001F
00010000001F
00020000001F
000C0000001F
00180000001E
00300000001E
00600000003E
00C00000003C
01C00000003C
03800000007C
030000000078
070000000070
0E00000000F0
1E00000000E0
1C00000001C0
3C00000001C0
380000000380
380000000700
780000000600
780000000C00
700000001C00
F00000003800
F00000006000
F0000000C000
F00000018000
F00000030000
F00000060000
F80000180000
780000300000
7C0000C00000
3E0003000000
1F801C000000
0FFFE0000000
01FF00000000
ENDCHAR
STARTCHAR 00D6
ENCODING 214
SWIDTH 625 0
DWIDTH 45 0
BBX 47 51 7 0
BITMAP
000000006300
00000000E700
00000000E700
00000000C600
000000000000
000000000000
000000000000
000000000000
00000007FF00
0000003807E0
0000000001F0
000000000078
00000000007C
00000078003C
00000380003E
00000C00001E
00003000001E
0000C000001E
00010000001E
00020000001E
000C0000001E
00180000001C
00300000001C
00600000003C
00C000000038
01C000000038
038000000078
030000000070
070000000060
0E00000000E0
0E00000000C0
1C00000001C0
3C0000000180
380000000300
380000000600
780000000600
780000000C00
700000001800
F00000003000
F00000006000
F0000000C000
F00000018000
F00000020000
F00000040000
F80000180000
780000200000
7C0000C00000
3E0003000000
1F801C000000
0FFFE0000000
01FE00000000
ENDCHAR
STARTCHAR 00D7
ENCODING 215
SWIDTH 402 0
DWIDTH 29 0
BBX 16 14 8 2
BITMAP
0183
0187
018E
0198
01B0
01E0
01C0
0380
0780
1C80
3880
7080
C080
8000
ENDCHAR
STARTCHAR 00D8
ENCODING 216
SWIDTH 625 0
DWIDTH 45 0
BBX 50 48 5 -6
BITMAP
00000001FFE0C0
0000000E007F00
00000000001F00
00000000000700
00000000000F80
0000001E001F80
000000E0003780
00000300006780
00000C00008780
00001000010780
00006000020780
00008000040780
00010000080700
00020000100700
000C0000200700
001C0000400E00
00380001000E00
00300002000E00
00700004001C00
00E00008001800
01C00010001800
01C00020003000
03800040003000
07800080006000
0700030000C000
0F00040000C000
0E000800018000
0E001000030000
1E002000060000
1E004000040000
1C008000080000
3C010000100000
3C020000200000
3C0C0000C00000
3C100001800000
3C200003000000
3C400004000000
3C800018000000
3D000060000000
1E000180000000
1C000E00000000
0FFFF800000000
0FFF8000000000
18000000000000
30000000000000
60000000000000
C0000000000000
80000000000000
ENDCHAR
STARTCHAR 00D9
ENCODING 217
SWIDTH 722 0
DWIDTH 52 0
BBX 63 55 5 -2
BITMAP
0000000003000000
0000000003000000
0000000001000000
0000000000800000
0000000000800000
000000000040003E
00000000000000FC
0000000000000300
1000000000000400
3000000000000800
7000000000001000
7000001800002000
F000003000004000
F000006000008000
F800008000008000
FC00070000010000
FF007C0000020000
7FFF880000020000
3FF0100000040000
0000200000080000
0000400000080000
0000800000100000
0001000000100000
0002000000200000
0004000000200000
0008000000400000
0010000000C00000
0020000000800000
0040000001800000
00C0000001000000
0180000003000000
0100000002000000
0300000006000000
060000000C000000
0E0000000C000000
0C0000001C000000
1C00000018000000
3800000038000000
3800000078000000
78000000F0000000
70000001F0000000
70000007F0000000
F0000009F0000200
F0000031E0000400
F0000041E0000800
F0000081E0001000
F8000301E0002000
F8000C01E0004000
7C003001E0008000
7F00C001E0010000
3FFF0001E0060000
1FE00001F0080000
00000001F8600000
00000000FF800000
000000003E000000
ENDCHAR
STARTCHAR 00DA
ENCODING 218
SWIDTH 722 0
DWIDTH 52 0
BBX 63 57 5 -3
BITMAP
0000000000004000
000000000000C000
0000000000030000
0000000000060000
0000000000080000
0000000000300000
0000000000400000
000000000080003E
00000000030000FC
0000000000000300
1000000000000400
3000000000000800
7000000000001000
7000001800002000
F000003000004000
F000006000008000
F800008000008000
FC00070000010000
FF007C0000020000
7FFF880000020000
3FF0100000040000
0000200000080000
0000400000080000
0000800000100000
0001000000100000
0002000000200000
0004000000200000
0008000000400000
0010000000C00000
0020000000800000
0040000001800000
00C0000001000000
0180000003000000
0100000002000000
0300000006000000
060000000C000000
0E0000000C000000
0C0000001C000000
1C00000018000000
3800000038000000
3800000078000000
78000000F0000000
70000001F0000000
70000007F0000000
F0000009F0000200
F0000031E0000400
F0000041E0000800
F0000081E0001000
F8000301E0002000
F8000C01E0004000
7C003001E0008000
7F00C001E0010000
3FFF0001E0060000
1FE00001F0080000
00000001F8600000
00000000FF800000
000000003E000000
ENDCHAR
STARTCHAR 00DB
ENCODING 219
SWIDTH 722 0
DWIDTH 52 0
BBX 63 55 5 -2
BITMAP
0000000000180000
0000000000780000
0000000000980000
0000000001180000
0000000002180000
000000000418003E
00000000081000FC
0000000000000300
1000000000000400
3000000000000800
7000000800001000
7000001800002000
F000003000004000
F000004000008000
F800008000008000
FC00070000010000
FF007C0000020000
7FFF880000020000
3FF0100000040000
0000200000080000
0000400000080000
0000800000100000
0001000000100000
0002000000200000
0004000000200000
0008000000400000
0010000000C00000
0020000000800000
0040000001800000
00C0000001000000
0180000003000000
0100000002000000
0300000006000000
060000000C000000
0E0000000C000000
0C0000001C000000
1C00000018000000
3800000038000000
3800000078000000
78000000F0000000
70000001F0000000
70000007F0000000
F0000009F0000200
F0000031E0000400
F0000041E0000800
F0000081E0001000
F8000301E0002000
F8000C01E0004000
7C003001E0008000
7F00C001E0010000
3FFF0001E0060000
1FE00001F0080000
00000001F8600000
00000000FF800000
000000003E000000
ENDCHAR
STARTCHAR 00DC
ENCODING 220
SWIDTH 722 0
DWIDTH 52 0
BBX 63 53 5 -3
BITMAP
00000000030C0000
00000000030C0000
00000000071C0000
000000000618003C
00000000061800FE
0000000000000300
1000000000000400
3000000000000800
7000000000001000
7000001800002000
F000003000004000
F000006000008000
F800008000008000
FC00070000010000
FF007C0000020000
7FFF880000020000
3FF0100000040000
0000200000080000
0000400000080000
0000800000100000
0001000000100000
0002000000200000
0004000000200000
0008000000400000
0010000000C00000
0020000000800000
0040000001800000
00C0000001000000
0180000003000000
0100000002000000
0300000006000000
060000000C000000
0E0000000C000000
0C0000001C000000
1C00000018000000
3800000038000000
3800000078000000
78000000F0000000
70000001F0000000
70000007F0000000
F0000009F0000200
F0000031E0000400
F0000041E0000800
F0000081E0001000
F8000301E0002000
F8000C01E0004000
7C003001E0008000
7F00C001E0010000
3FFF0001E0060000
1FE00001F0080000
00000001F8600000
00000000FF800000
000000003E000000
ENDCHAR
STARTCHAR 00DD
ENCODING 221
SWIDTH 361 0
DWIDTH 26 0
BBX 42 62 2 -12
BITMAP
0000000000C0
000000000180
000000000300
000000000600
000000000C00
000000001000
000000002000
000000004000
000000008000
001F80010180
007FE00201C0
0183F00001C0
0600F00001C0
0800780001C0
1000780001C0
2000380001C0
60003C0001C0
60003C0001C0
C0001C000180
C0001C000180
C0001C000300
C0001C000200
00001C000400
00001C000C00
00001C001800
00001C001000
00001C002000
00001C004000
00001C018000
00001C030000
000018060000
0000180C0000
000038300000
000038600000
000038C00000
00003B000000
00003E000000
00007C000000
00007C000000
0000E0000000
000300000000
000400000000
000800000000
001000000000
002000000000
004000000000
008000000000
030000000000
020000000000
040000000000
080000000000
180000000000
300000000000
300000000000
600000000000
600000000000
E00000000000
C00000000000
C00000000000
C00000000000
400000000000
400000000000
ENDCHAR
STARTCHAR 00DE
ENCODING 222
SWIDTH 527 0
DWIDTH 38 0
BBX 45 54 3 1
BITMAP
000000000200
000000000C00
000000001000
000000002000
000000006000
00000000C000
000000018000
000000038000
000000030000
000000070000
000000060000
0000000E0000
0000000C0000
0000001C0000
00000FFFE000
0001F0383E00
000E00300780
0070007001E0
01C0006000F0
038000E00070
0E0000C00078
1C0001800038
380001800038
700003000038
700003000038
E00006000038
E00006000030
E0000C000030
E0000C000060
E00018000060
000018000040
000030000080
000030000180
000060000100
000062000600
0000CF000800
000087803000
000083FFC000
000101FC0000
000300000000
000200000000
000400000000
000400000000
000800000000
000800000000
001000000000
002000000000
004000000000
008000000000
010000000000
060000000000
FFFFFFC00000
FFFFFE000000
FFFFF8000000
ENDCHAR
STARTCHAR 00DF
ENCODING 223
SWIDTH 250 0
DWIDTH 18 0
BBX 74 74 -37 -33
BITMAP
00000000000000001F80
0000000000000000E1C0
000000000000000100C0
000000000000000600C0
000000000000000C00C0
000000000000001800C0
00000000000000300080
00000000000000300180
00000000000000600100
00000000000000C00200
00000000000001800200
00000000000003800400
00000000000003000800
00000000000007001000
00000000000006002000
0000000000000C004000
0000000000001C018000
00000000000018020000
00000000000038040000
00000000000030080000
00000000000070300000
00000000000060400000
000000000000E1800000
000000000000C2000000
000000000001C4000000
00000000000388000000
00000000000330000000
00000000000730000000
00000000000630000000
00000000000E30000000
00000000000C30000000
00000000001C30000000
00000000001830000000
00000000003830000000
00000000003030000000
00000000003020000000
0000000000E060000000
0000000001E040000000
0000000000E080000000
0000000000F900000000
0000000001FE00000000
00000000018000000000
00000000030000000000
00000000030000000000
00000000060000000000
00000000060000000000
000000000C0000000000
00000000080000000000
00000000180000000000
00000000100000000000
00000000300000000000
00000000600000000000
00000000400000000000
00000000C00000000000
00000000800000000000
00000001000000000000
00000003000000000000
00000002000000000000
00000004000000000000
0000000C000000000000
00000018000000000000
00000010000000000000
00000020000000000000
00000040000000000000
00000080000000000000
00000100000000000000
80000300000000000000
80000400000000000000
C0000800000000000000
60003000000000000000
70006000000000000000
3C038000000000000000
1FFE0000000000000000
07F80000000000000000
ENDCHAR
STARTCHAR 00E0
ENCODING 224
SWIDTH 263 0
DWIDTH 19 0
BBX 23 28 2 0
BITMAP
006000
002000
003000
001000
001000
000800
000800
000800
000000
000000
000000
000000
001D00
007E00
008600
010400
020C00
041800
081800
183002
107004
306008
31E010
616020
626040
E46080
E86100
F07E00
ENDCHAR
STARTCHAR 00E1
ENCODING 225
SWIDTH 263 0
DWIDTH 19 0
BBX 24 29 2 0
BITMAP
000003
000004
000018
000030
000040
000080
000300
000400
000800
000000
000000
000000
000000
001D00
007E00
008600
010400
020C00
041800
081800
183002
107004
306008
31E010
616020
626040
E46080
E86100
F07E00
ENDCHAR
STARTCHAR 00E2
ENCODING 226
SWIDTH 263 0
DWIDTH 19 0
BBX 23 29 2 -1
BITMAP
000040
0000C0
000160
000260
000460
000860
001060
002060
000060
000000
000000
000000
000000
001D00
007E00
008600
010400
020C00
041800
081800
183002
107004
306008
31E010
616020
626040
E46080
E86100
F07E00
ENDCHAR
STARTCHAR 00E3
ENCODING 227
SWIDTH 263 0
DWIDTH 19 0
BBX 23 27 2 -1
BITMAP
003800
007C08
008608
010308
0201F0
000000
000000
000000
000000
000000
000000
001D00
007E00
008600
010400
020C00
041800
081800
183002
107004
306008
31E010
616020
626040
E46080
E86100
F07E00
ENDCHAR
STARTCHAR 00E4
ENCODING 228
SWIDTH 263 0
DWIDTH 19 0
BBX 23 27 2 -1
BITMAP
000800
001CE0
0038E0
0031C0
000000
000000
000000
000000
000000
000000
000000
001D00
007E00
008600
010400
020C00
041800
081800
183002
107004
306008
31E010
616020
626040
E46080
E86100
F07E00
ENDCHAR
STARTCHAR 00E5
ENCODING 229
SWIDTH 263 0
DWIDTH 19 0
BBX 23 29 2 0
BITMAP
000FC0
001020
001020
002020
002020
003040
001080
000F00
000000
000000
000000
000000
000000
001D00
007E00
008600
010400
020C00
041800
081800
183002
107004
306008
31E010
616020
626040
E46080
E86100
F07E00
ENDCHAR
STARTCHAR 00E6
ENCODING 230
SWIDTH 319 0
DWIDTH 23 0
BBX 27 16 2 0
BITMAP
003E7C00
00FFFC00
011F0C00
021E0800
04181000
08382000
1070C000
10610000
20CE0020
21F00040
61C00180
42C00200
C4C00C00
C8C03000
D0F1C000
E07E0000
ENDCHAR
STARTCHAR 00E7
ENCODING 231
SWIDTH 222 0
DWIDTH 16 0
BBX 19 26 1 -10
BITMAP
000700
001F80
006180
008100
018000
030000
060000
060000
0C0020
0C0040
1C0080
180100
180600
180800
1C3000
0FC000
020000
0C0000
180000
1C0000
1E0000
060000
040000
080000
300000
C00000
ENDCHAR
STARTCHAR 00E8
ENCODING 232
SWIDTH 208 0
DWIDTH 15 0
BBX 19 28 2 0
BITMAP
00C000
004000
006000
002000
002000
001000
001000
001000
000000
000000
000000
000000
003C00
00CC00
010C00
020C00
041800
0C2000
184000
198000
360020
780040
600080
600100
E00200
E00C00
703000
7FC000
ENDCHAR
STARTCHAR 00E9
ENCODING 233
SWIDTH 208 0
DWIDTH 15 0
BBX 20 29 2 0
BITMAP
000030
000060
0000C0
000100
000600
000C00
001000
002000
00C000
000000
000000
000000
000000
003C00
00CC00
010C00
020C00
041800
0C2000
184000
198000
360020
780040
600080
600100
E00200
E00C00
703000
7FC000
ENDCHAR
STARTCHAR 00EA
ENCODING 234
SWIDTH 208 0
DWIDTH 15 0
BBX 19 29 2 -1
BITMAP
000080
000180
000780
000980
001080
002080
002080
004080
008080
000000
000000
000000
000000
003C00
00CC00
010C00
020C00
041800
0C2000
184000
198000
360020
780040
600080
600100
E00200
E00C00
703000
7FC000
ENDCHAR
STARTCHAR 00EB
ENCODING 235
SWIDTH 208 0
DWIDTH 15 0
BBX 19 27 2 -1
BITMAP
001000
007180
007380
006380
000000
000000
000000
000000
000000
000000
000000
003C00
00CC00
010C00
020C00
041800
0C2000
184000
198000
360020
780040
600080
600100
E00200
E00C00
703000
7FC000
ENDCHAR
STARTCHAR 00EC
ENCODING 236
SWIDTH 180 0
DWIDTH 13 0
BBX 17 28 3 0
BITMAP
018000
008000
00C000
004000
004000
002000
002000
002000
000000
000000
000000
000000
000000
018000
030000
070000
060000
0C0080
0C0100
180200
300400
300800
601000
602000
E04000
C08000
E30000
FC0000
ENDCHAR
STARTCHAR 00ED
ENCODING 237
SWIDTH 180 0
DWIDTH 13 0
BBX 19 29 3 0
BITMAP
000060
0000C0
000180
000200
000C00
001800
002000
004000
018000
000000
000000
000000
000000
000000
018000
030000
070000
060000
0C0080
0C0100
180200
300400
300800
601000
602000
E04000
C08000
E30000
FC0000
ENDCHAR
STARTCHAR 00EE
ENCODING 238
SWIDTH 180 0
DWIDTH 13 0
BBX 17 29 3 -1
BITMAP
000200
000E00
001600
002600
004600
008600
010600
020600
000600
000000
000000
000000
000000
000000
018000
030000
070000
060000
0C0080
0C0100
180200
300400
300800
601000
602000
E04000
C08000
E30000
FC0000
ENDCHAR
STARTCHAR 00EF
ENCODING 239
SWIDTH 180 0
DWIDTH 13 0
BBX 17 27 3 -1
BITMAP
008000
018E00
038C00
031C00
000000
000000
000000
000000
000000
000000
000000
000000
018000
030000
070000
060000
0C0080
0C0100
180200
300400
300800
601000
602000
E04000
C08000
E30000
FC0000
ENDCHAR
STARTCHAR 00F0
ENCODING 240
SWIDTH 236 0
DWIDTH 17 0
BBX 18 52 1 -3
BITMAP
800000
C00000
E00000
600000
700000
380000
380000
1C0000
0C0000
0E0000
060000
070000
030000
038000
018000
01C000
00C000
00E1C0
006F00
007000
07B000
1C3000
001800
001800
000800
000C00
000400
000400
000600
000200
000200
000200
000200
000300
000500
000900
003100
006100
00C100
00C100
018100
038300
030200
070200
060600
0E0400
0E0400
0C0800
0C1800
0C3000
0E6000
078000
ENDCHAR
STARTCHAR 00F1
ENCODING 241
SWIDTH 277 0
DWIDTH 20 0
BBX 22 30 2 -3
BITMAP
001C00
003E04
004304
008188
0100F8
000000
000000
000000
000000
000000
000000
008180
018780
038F00
033700
074600
068E00
0F0C00
0E1800
1E1800
1C1800
383000
303000
707000
606000
C06004
C06018
007020
0078C0
001F00
ENDCHAR
STARTCHAR 00F2
ENCODING 242
SWIDTH 236 0
DWIDTH 17 0
BBX 23 28 2 0
BITMAP
018000
008000
008000
004000
004000
002000
002000
002000
000000
000000
000000
000000
001800
003C00
00DE00
011FFE
021800
0C1800
181800
181800
301000
703000
702000
604000
608000
E08000
730000
7C0000
ENDCHAR
STARTCHAR 00F3
ENCODING 243
SWIDTH 236 0
DWIDTH 17 0
BBX 23 29 2 0
BITMAP
00000C
000018
000020
000040
000180
000200
000400
001800
002000
000000
000000
000000
000000
001800
003C00
00DE00
011FFE
021800
0C1800
181800
181800
301000
703000
702000
604000
608000
E08000
730000
7C0000
ENDCHAR
STARTCHAR 00F4
ENCODING 244
SWIDTH 236 0
DWIDTH 17 0
BBX 23 29 2 -1
BITMAP
000080
000180
000280
000480
000880
001080
002080
004080
008080
000000
000000
000000
000000
001800
003C00
00DE00
011FFE
021800
0C1800
181800
181800
301000
703000
702000
604000
608000
E08000
730000
7C0000
ENDCHAR
STARTCHAR 00F5
ENCODING 245
SWIDTH 236 0
DWIDTH 17 0
BBX 23 27 2 -1
BITMAP
003800
007C08
018E08
020710
0201E0
000000
000000
000000
000000
000000
000000
001800
003C00
00DE00
011FFE
021800
0C1800
181800
181800
301000
703000
702000
604000
608000
E08000
730000
7C0000
ENDCHAR
STARTCHAR 00F6
ENCODING 246
SWIDTH 236 0
DWIDTH 17 0
BBX 23 27 2 -1
BITMAP
001800
0038C0
0039C0
003180
000000
000000
000000
000000
000000
000000
000000
001800
003C00
00DE00
011FFE
021800
0C1800
181800
181800
301000
703000
702000
604000
608000
E08000
730000
7C0000
ENDCHAR
STARTCHAR 00F7
ENCODING 247
SWIDTH 402 0
DWIDTH 29 0
BBX 17 13 10 3
BITMAP
003000
007000
006000
000000
000000
FFFF80
7FFF00
000000
000000
000000
060000
0E0000
0C0000
ENDCHAR
STARTCHAR 00F8
ENCODING 248
SWIDTH 236 0
DWIDTH 17 0
BBX 26 21 1 -3
BITMAP
00002000
00004000
00008000
00037FC0
000FFF00
00370000
004B0000
01930000
03230000
06460000
0C460000
0C8C0000
190C0000
1A180000
1C100000
18200000
18C00000
3F000000
20000000
40000000
80000000
ENDCHAR
STARTCHAR 00F9
ENCODING 249
SWIDTH 250 0
DWIDTH 18 0
BBX 17 32 2 -4
BITMAP
004000
004000
006000
002000
002000
001000
001000
001000
000800
000000
000000
000000
000000
00C000
01C000
018200
030600
070600
060C00
0C1800
0C1800
183000
187000
30E000
316000
626000
64C000
F8C000
61C000
01C080
01C300
01FC00
ENDCHAR
STARTCHAR 00FA
ENCODING 250
SWIDTH 250 0
DWIDTH 18 0
BBX 23 32 2 -3
BITMAP
000006
00000C
000010
000020
0000C0
000100
000200
000400
001800
000000
000000
000000
000000
00C000
01C000
018200
030600
070600
060C00
0C1800
0C1800
183000
187000
30E000
316000
626000
64C000
F8C000
61C000
01C080
01C300
01FC00
ENDCHAR
STARTCHAR 00FB
ENCODING 251
SWIDTH 250 0
DWIDTH 18 0
BBX 19 32 2 -4
BITMAP
000020
0000E0
000160
000260
000460
000860
001060
002060
000060
000000
000000
000000
000000
00C000
01C000
018200
030600
070600
060C00
0C1800
0C1800
183000
187000
30E000
316000
626000
64C000
F8C000
61C000
01C080
01C300
01FC00
ENDCHAR
STARTCHAR 00FC
ENCODING 252
SWIDTH 250 0
DWIDTH 18 0
BBX 19 30 2 -4
BITMAP
000400
001C60
001CE0
0018E0
000000
000000
000000
000000
000000
000000
000000
00C000
01C000
018200
030600
070600
060C00
0C1800
0C1800
183000
187000
30E000
316000
626000
64C000
F8C000
61C000
01C080
01C300
01FC00
ENDCHAR
STARTCHAR 00FD
ENCODING 253
SWIDTH 250 0
DWIDTH 18 0
BBX 37 67 -14 -40
BITMAP
0000000008
0000000018
0000000020
00000000C0
0000000180
0000000200
0000000400
0000000800
0000003000
0000004000
0000000000
0000000180
0000000180
0000000380
00001C0300
00001C0600
00001C0C00
0000181800
0000381000
0000382000
0000386000
000030C000
0000318000
0000710000
0000720000
0000740000
00007C0000
0000780000
0000100000
0000200000
0000200000
0000400000
0000800000
0000800000
0001000000
0002000000
0004000000
0004000000
0008000000
0010000000
0010000000
0020000000
0040000000
0040000000
0080000000
0080000000
0100000000
0200000000
0200000000
0400000000
0C00000000
0800000000
1800000000
3800000000
3000000000
7000000000
7000000000
6000000000
E000000000
E000000000
E000000000
E000000000
E000000000
E000000000
6000000000
3000000000
1000000000
ENDCHAR
STARTCHAR 00FE
ENCODING 254
SWIDTH 263 0
DWIDTH 19 0
BBX 35 61 -11 -23
BITMAP
0000000040
00000000E0
00000001C0
0000000180
0000000380
0000000300
0000000700
0000000600
0000000E00
0000000C00
0000001C00
0000001800
0000003800
0000003000
0000006000
000000E000
000000C000
000001C000
0000018000
0000030000
0000030000
0000060000
000006C000
00000C7000
00000C3800
0000183800
0000303800
0000303800
0000607000
0000607000
0000C06020
0000C0C040
0001818180
0001030600
0003061800
000208E000
0006170000
0004680000
000F800000
01F0000000
0390000000
0020000000
0060000000
0040000000
00C0000000
0180000000
0180000000
0300000000
0300000000
0600000000
0600000000
0C00000000
1C00000000
1800000000
3800000000
3800000000
7000000000
7000000000
F018000000
FFE0000000
FE00000000
ENDCHAR
STARTCHAR 00FF
ENCODING 255
SWIDTH 250 0
DWIDTH 18 0
BBX 35 66 -14 -40
BITMAP
0000000C60
0000001CE0
0000001CE0
00000018C0
0000000000
0000000000
0000000000
0000000000
0000000040
0000000060
00000000E0
00001C01C0
00001C0180
00001C0300
0000180600
0000180400
0000380C00
0000381800
0000383000
0000306000
0000304000
0000708000
0000710000
0000730000
0000760000
00007C0000
0000780000
0000100000
0000100000
0000200000
0000400000
0000800000
0000800000
0001000000
0002000000
0002000000
0004000000
0008000000
0010000000
0010000000
0020000000
0040000000
0040000000
0080000000
0080000000
0100000000
0200000000
0200000000
0400000000
0C00000000
0800000000
1800000000
3800000000
3000000000
7000000000
7000000000
6000000000
E000000000
E000000000
E000000000
E000000000
E000000000
E000000000
6000000000
3000000000
1000000000
ENDCHAR
STARTCHAR 0100
ENCODING 256
SWIDTH 722 0
DWIDTH 52 0
BBX 60 45 -3 0
BITMAP
0000000000000FC0
0000000000000000
0000000000000000
0000000000000000
00000000FE000030
00000007FFE00070
0000000FFFFC00F0
000000380003FD80
0000002000000300
0000004000000200
0000008000000600
0000008000000C00
0000010000001C00
0000010000007C00
0000010000007800
000002000000F800
0000000000017800
0000000000027000
000000000004F000
000000000008F000
000000000011F000
000000000011E000
000000000021E000
000000000041E000
000000000083C000
000000000103C000
080000000203C000
100000000407C000
100000000807C000
2000000010078000
60000001FFFF8000
40000000400F8000
40000000800F8000
C0000001000F8000
C0000006000F0000
C0000008000F0000
C0000010000F0000
C0000020000F0000
E00000C0000F0000
E0000100000F0000
70000600000F0000
7C001800000F0000
3F00E000000F8C00
1FFF0000000FF000
07F8000000078000
ENDCHAR
STARTCHAR 0101
ENCODING 257
SWIDTH 263 0
DWIDTH 19 0
BBX 23 24 2 0
BITMAP
001F80
000000
000000
000000
000000
000000
000000
000000
001D00
007E00
008600
010400
020C00
041800
081800
183002
107004
306008
31E010
616020
626040
E46080
E86100
F07E00
ENDCHAR
STARTCHAR 0102
ENCODING 258
SWIDTH 722 0
DWIDTH 52 0
BBX 59 47 -3 1
BITMAP
0000000000001800
0000000000001820
0000000000000C40
0000000000000F80
0000000000000000
0000000000000000
00000001FC0000C0
00000007FFC001C0
0000000FFFF803C0
0000001FFFFF0600
0000003FFFFFFC00
0000007FFFFFCC00
0000007000001C00
000000E000001800
000000C000003800
0000018000007800
000001000000B000
0000010000017000
0000010000027000
0000000000047000
000000000004E000
000000000008E000
000000000011E000
000000000021E000
000000000041C000
000000000081C000
000000000083C000
000000000103C000
040000000203C000
0800000004078000
1000000008078000
2000000010078000
20000001FFFF8000
40000000400F8000
40000000800F8000
C0000001000F0000
C0000002000F0000
C000000C000F0000
C0000010000F0000
E0000060000F0000
E0000080000F0000
F0000300000F0000
78000C00000F0000
7F00F000000F8000
3FFFE000000FF000
1FFF0000000FC000
07F8000000070000
ENDCHAR
STARTCHAR 0103
ENCODING 259
SWIDTH 263 0
DWIDTH 19 0
BBX 23 26 2 -1
BITMAP
001000
003010
003020
0018C0
000F00
000000
000000
000000
000000
000000
001D00
007E00
008600
010400
020C00
041800
081800
183002
107004
306008
31E010
616020
626040
E46080
E86100
F07E00
ENDCHAR
STARTCHAR 0104
ENCODING 260
SWIDTH 722 0
DWIDTH 52 0
BBX 59 48 -3 -7
BITMAP
00000000FE0000C0
00000003FFC001E0
0000000FFFF803E0
0000001FFFFF0600
0000001FFFFFFC00
0000003FFFFFCC00
0000003800000C00
0000006000001800
0000004000003800
000000C000007800
000000800000B800
0000008000017000
0000008000017000
0000000000027000
000000000004F000
000000000008E000
000000000009E000
000000000011E000
000000000021E000
000000000041C000
000000000083C000
000000000083C000
040000000103C000
080000000207C000
1000000002078000
2000000004078000
200000007FFF8000
40000000100F8000
40000000200F8000
C0000000C00F8000
C0000001000F0000
C0000002000F0000
C000000C000F0000
C0000010000F0000
E0000060000F0000
E0000080000F0000
70000300000F0000
7C000C00000F0000
3F80F000000F9800
1FFF8000000FE000
03FC000000070000
0000000000040000
0000000000080000
0000000000100000
0000000000100000
0000000000100000
0000000000080000
00000000000E0000
ENDCHAR
STARTCHAR 0105
ENCODING 261
SWIDTH 263 0
DWIDTH 19 0
BBX 23 28 2 -11
BITMAP
001D00
007E00
008600
010400
020C00
041800
081800
183002
107004
306008
31E010
616020
626040
E46080
E86100
F07E00
000000
000000
000000
000000
030000
040000
180000
300000
300000
700000
700000
1C0000
ENDCHAR
STARTCHAR 0106
ENCODING 262
SWIDTH 666 0
DWIDTH 48 0
BBX 44 57 6 -6
BITMAP
000000000010
000000000020
0000000000C0
000000000180
000000000200
000000000400
000000001800
000000002000
000000004000
000000000000
000000000000
000000000000
00000007FC00
0000007FFF00
000001C03F80
00000E0007C0
0000300003C0
0000400001C0
000180000080
000200000080
000400000080
000800000080
001000000000
002000000000
004000000000
008000000000
010000000000
030000000000
060000000000
060000000000
0C0000000000
1C0000000000
180000000000
380000000000
380000000000
780000000000
700000000000
700000000000
700000000080
F000000000C0
F000000000C0
F000000001C0
F00000000180
F00000000180
F00000000300
F80000000700
F80000000600
780000000C00
7C0000001800
3C0000003000
3E0000006000
1F0000008000
0F8000030000
07C0000C0000
03F000300000
00FE01C00000
003FFE000000
ENDCHAR
STARTCHAR 0107
ENCODING 263
SWIDTH 222 0
DWIDTH 16 0
BBX 21 29 4 0
BITMAP
000018
000030
000060
000080
000300
000400
000800
001000
006000
000000
000000
000000
000000
003800
00FC00
030C00
040800
0C0000
180000
300000
300000
600100
600200
E00400
C00800
C03000
C04000
E18000
7E0000
ENDCHAR
STARTCHAR 0108
ENCODING 264
SWIDTH 666 0
DWIDTH 48 0
BBX 43 57 6 -6
BITMAP
000000000080
000000000380
000000000580
000000001980
000000002180
000000002180
000000004180
000000008180
000000000100
000000000000
000000000000
000000000000
00000007FE00
0000007FFF80
000001807FC0
000006000FE0
0000180007E0
0000600003C0
0001800001C0
000200000180
000400000180
001800000100
002000000000
004000000000
004000000000
008000000000
010000000000
030000000000
060000000000
040000000000
0C0000000000
1C0000000000
180000000000
380000000000
380000000000
700000000000
700000000000
700000000000
700000000100
F00000000180
F00000000180
F00000000380
F00000000300
F00000000300
F00000000600
F80000000600
F80000000C00
780000001800
7C0000003000
3C0000006000
3E000000C000
1E0000018000
0F0000020000
07C000080000
03E000300000
00FC01C00000
003FFE000000
ENDCHAR
STARTCHAR 0109
ENCODING 265
SWIDTH 208 0
DWIDTH 15 0
BBX 19 29 2 -1
BITMAP
000080
000180
000780
000980
001080
002080
002080
004080
008080
000000
000000
000000
000000
003C00
00CC00
010C00
020C00
041800
0C2000
184000
198000
360020
780040
600080
600100
E00200
E00C00
703000
7FC000
ENDCHAR
STARTCHAR 010A
ENCODING 266
SWIDTH 666 0
DWIDTH 48 0
BBX 42 52 6 -7
BITMAP
000000003000
000000007000
000000006000
000000000000
000000000000
000000000000
000000000000
00000007FC00
0000007FFF00
000001C03F80
00000E0007C0
0000300003C0
0000400001C0
000180000080
000200000080
000400000080
000800000080
001000000000
002000000000
004000000000
008000000000
010000000000
030000000000
060000000000
060000000000
0C0000000000
1C0000000000
180000000000
380000000000
380000000000
780000000000
700000000000
700000000000
700000000080
F000000000C0
F000000000C0
F000000001C0
F00000000180
F00000000180
F00000000300
F80000000700
F80000000600
780000000C00
7C0000001800
3C0000003000
3E0000006000
1F0000008000
0F8000030000
07C0000C0000
03F000300000
00FE01C00000
003FFE000000
ENDCHAR
STARTCHAR 010B
ENCODING 267
SWIDTH 222 0
DWIDTH 16 0
BBX 16 25 4 0
BITMAP
0038
0038
0030
0000
0000
0000
0000
0000
0000
0038
00FC
030C
0408
0C00
1800
3000
3000
6001
6002
E004
C008
C030
C040
E180
7E00
ENDCHAR
STARTCHAR 010C
ENCODING 268
SWIDTH 666 0
DWIDTH 48 0
BBX 42 58 6 -6
BITMAP
000000006040
0000000060C0
000000006100
000000006200
000000006400
000000006800
000000007000
000000006000
000000004000
000000000000
000000000000
000000000000
000000000000
00000007FC00
0000007FFF00
000001C03F80
00000E0007C0
0000300003C0
0000400001C0
000180000080
000200000080
000400000080
000800000080
001000000000
002000000000
004000000000
008000000000
010000000000
030000000000
060000000000
060000000000
0C0000000000
1C0000000000
180000000000
380000000000
380000000000
780000000000
700000000000
700000000000
700000000080
F000000000C0
F000000000C0
F000000001C0
F00000000180
F00000000180
F00000000300
F80000000700
F80000000600
780000000C00
7C0000001800
3C0000003000
3E0000006000
1F0000008000
0F8000030000
07C0000C0000
03F000300000
00FE01C00000
003FFE000000
ENDCHAR
STARTCHAR 010D
ENCODING 269
SWIDTH 222 0
DWIDTH 16 0
BBX 19 29 4 0
BITMAP
003000
003020
003040
003080
003100
003200
003400
003800
003000
000000
000000
000000
000000
003800
00FC00
030C00
040800
0C0000
180000
300000
300000
600100
600200
E00400
C00800
C03000
C04000
E18000
7E0000
ENDCHAR
STARTCHAR 010E
ENCODING 270
SWIDTH 722 0
DWIDTH 52 0
BBX 65 60 -5 0
BITMAP
000000000000010000
000000000000030100
000000000000030200
000000000000030C00
000000000000031000
000000000000032000
000000000000034000
000000000000038000
000000000000020000
000000000000000000
000000000000001F00
00000000000000FF80
000000000000038000
000000000000040000
000000000000180000
000000000000200000
000000000000400000
000000000000800000
0000003FFFFFC00000
00000FC00007F80000
0000700000027E0000
0003800000021F8000
001C0000000407C000
00600000000803E000
01800000000801F000
02000000001000F000
04000000001000F800
080000000020007800
100000000060007800
300000000040007C00
2000000000C0003C00
600000000080003C00
400000000180003C00
C00000000100003C00
C00000000300003C00
C00000000200003C00
C00000000600003C00
C00000000C00003800
C00000000C00003800
C00000001800007800
000000001800007000
000000003000007000
00000000300000E000
00000000600000E000
00000000600001C000
00000000C000018000
00000000C000038000
000000018000030000
000000038000060000
0000000300000C0000
000000060000180000
0000000C0000200000
000000080000400000
000000100001800000
000000200002000000
00000040000C000000
000000800030000000
0000030001C0000000
00000C000E00000000
03FFFFFFF000000000
ENDCHAR
STARTCHAR 010F
ENCODING 271
SWIDTH 222 0
DWIDTH 16 0
BBX 15 49 3 0
BITMAP
4000
6000
6000
7000
3000
3804
180E
1C06
0C06
0E06
0606
0604
0308
0308
0190
01E0
0080
00C0
00C0
0040
0060
0060
0020
0030
0030
0010
0010
0010
0008
0008
0008
0008
0008
0018
0068
0188
0308
0608
0C08
1C10
3810
3010
7020
6020
E040
E0C0
C180
C300
FC00
ENDCHAR
STARTCHAR 0110
ENCODING 272
SWIDTH 722 0
DWIDTH 52 0
BBX 65 49 -5 0
BITMAP
000000000000000F00
000000000000007F80
000000000000018000
000000000000060000
000000000000080000
000000000000100000
000000000000200000
000000000000400000
0000003FFFFFE00000
000007C00007F80000
0000780000017F0000
0003800000021F8000
000C0000000207C000
00700000000403E000
00800000000801F000
03000000000800F000
04000000001000F800
080000000010007800
100000000020007C00
100000000060007C00
200000000040003C00
6000000000C0003C00
600000000080003C00
400000000180003C00
C00000000300003C00
C00000000300003C00
C00000000600003C00
C00000000600003800
C00000000C00003800
C00000000C00007800
4000000FFFFC007000
000000001800007000
00000000300000E000
00000000700000C000
00000000600001C000
00000000E000018000
00000000C000030000
00000001C000020000
000000018000040000
000000030000080000
000000070000100000
000000060000600000
0000000C0000800000
000000180003000000
000000300004000000
000000400018000000
000000800060000000
000003000380000000
00000C003C00000000
ENDCHAR
STARTCHAR 0111
ENCODING 273
SWIDTH 222 0
DWIDTH 16 0
BBX 18 49 3 1
BITMAP
C00000
C00000
E00000
F00000
700000
380000
180000
1C0000
0E0000
0E0000
070000
030000
038000
018000
01C000
00C000
004000
006000
002000
003000
001000
001000
001800
000800
1FFFC0
000800
000800
000800
000800
000800
000800
000800
000800
003800
00C800
018800
030800
060800
0C1800
181000
381000
303000
602000
606000
C04000
C08000
C10000
C60000
780000
ENDCHAR
STARTCHAR 0112
ENCODING 274
SWIDTH 652 0
DWIDTH 47 0
BBX 46 54 2 -10
BITMAP
000000001F00
000000000000
000000000000
000000000000
000000007E00
00000007FF80
0000001807C0
0000006001C0
0000008000C0
0000030000C0
000006000080
000006000000
00000E000000
00000E000000
00000F000000
00000F000000
000007800000
000007C00000
000003C00000
000001E00000
000001E00000
000001E00000
000003C00000
000007000000
00003C000000
0000E00000F8
0007000003FC
001C00000C1C
00700000300C
01C00000400C
03800001800C
0F0000020008
1E0000040008
3C0000080018
380000100010
780000200020
700000400060
F00000800040
F00001000080
F00002000100
F00004000200
F00008000800
F00010001000
780010006000
780020008000
3C0040030000
1E00401C0000
0F0080600000
03E107800000
003FF8000000
000200000000
000200000000
000400000000
000400000000
ENDCHAR
STARTCHAR 0113
ENCODING 275
SWIDTH 208 0
DWIDTH 15 0
BBX 19 24 2 0
BITMAP
003F00
000000
000000
000000
000000
000000
000000
000000
003C00
00CC00
010C00
020C00
041800
0C2000
184000
198000
360020
780040
600080
600100
E00200
E00C00
703000
7FC000
ENDCHAR
STARTCHAR 0114
ENCODING 276
SWIDTH 652 0
DWIDTH 47 0
BBX 46 58 2 -10
BITMAP
000000004000
00000000C040
00000000C080
000000006100
000000003E00
000000000000
000000000000
000000000000
000000007E00
00000007FF80
0000001807C0
0000006001C0
0000008000C0
0000030000C0
000006000080
000006000000
00000E000000
00000E000000
00000F000000
00000F000000
000007800000
000007C00000
000003C00000
000001E00000
000001E00000
000001E00000
000003C00000
000007000000
00003C000000
0000E00000F8
0007000003FC
001C00000C1C
00700000300C
01C00000400C
03800001800C
0F0000020008
1E0000040008
3C0000080018
380000100010
780000200020
700000400060
F00000800040
F00001000080
F00002000100
F00004000200
F00008000800
F00010001000
780010006000
780020008000
3C0040030000
1E00401C0000
0F0080600000
03E107800000
003FF8000000
000200000000
000200000000
000400000000
000400000000
ENDCHAR
STARTCHAR 0115
ENCODING 277
SWIDTH 208 0
DWIDTH 15 0
BBX 19 26 2 -1
BITMAP
008000
008080
00C100
00E200
003C00
000000
000000
000000
000000
000000
003C00
00CC00
010C00
020C00
041800
0C2000
184000
198000
360020
780040
600080
600100
E00200
E00C00
703000
7FC000
ENDCHAR
STARTCHAR 0116
ENCODING 278
SWIDTH 652 0
DWIDTH 47 0
BBX 46 56 2 -10
BITMAP
000000000C00
000000001C00
000000001800
000000000000
000000000000
000000000000
000000007E00
00000007FF80
0000001807C0
0000006001C0
0000008000C0
0000030000C0
000006000080
000006000000
00000E000000
00000E000000
00000F000000
00000F000000
000007800000
000007C00000
000003C00000
000001E00000
000001E00000
000001E00000
000003C00000
000007000000
00003C000000
0000E00000F8
0007000003FC
001C00000C1C
00700000300C
01C00000400C
03800001800C
0F0000020008
1E0000040008
3C0000080018
380000100010
780000200020
700000400060
F00000800040
F00001000080
F00002000100
F00004000200
F00008000800
F00010001000
780010006000
780020008000
3C0040030000
1E00401C0000
0F0080600000
03E107800000
003FF8000000
000200000000
000200000000
000400000000
000400000000
ENDCHAR
STARTCHAR 0117
ENCODING 279
SWIDTH 208 0
DWIDTH 15 0
BBX 19 25 2 0
BITMAP
000E00
000E00
000C00
000000
000000
000000
000000
000000
000000
003C00
00CC00
010C00
020C00
041800
0C2000
184000
198000
360020
780040
600080
600100
E00200
E00C00
703000
7FC000
ENDCHAR
STARTCHAR 0118
ENCODING 280
SWIDTH 652 0
DWIDTH 47 0
BBX 46 51 2 -10
BITMAP
00000000FE00
0000000FFF80
0000003807C0
000000E001C0
0000038000C0
0000070000C0
00001E000080
00001E000000
00003E000000
00003E000000
00003F000000
00001F000000
00001F800000
00000FC00000
000007C00000
000003E00000
000001E00000
000001E00000
000003C00000
000007000000
00003C000000
0000E00000F8
0007000007FC
001C00000C1C
00700000300C
01C00000400C
03800001800C
0F0000020008
1E0000040008
3C0000080018
380000300010
780000400020
700000800060
F00001000040
F00001000080
F00002000100
F00004000600
F00008000800
F00010001000
780020006000
780020018000
3C0040020000
1E00801C0000
0F0080600000
03E107800000
003FF8400000
000207800000
000408000000
000410000000
000438000000
00001F000000
ENDCHAR
STARTCHAR 0119
ENCODING 281
SWIDTH 208 0
DWIDTH 15 0
BBX 19 24 2 -8
BITMAP
003C00
00CC00
010C00
020C00
041800
0C2000
184000
198000
360020
780040
600080
600100
E00200
E00C00
703000
7FC000
020000
0C0000
100000
300000
600000
700000
380000
040000
ENDCHAR
STARTCHAR 011A
ENCODING 282
SWIDTH 652 0
DWIDTH 47 0
BBX 46 63 2 -10
BITMAP
000000002000
000000006040
000000006080
000000006100
000000006200
000000006400
000000006800
000000007000
000000006000
000000000000
000000000000
000000000000
000000000000
000000007E00
00000007FF80
0000001807C0
0000006001C0
0000008000C0
0000030000C0
000006000080
000006000000
00000E000000
00000E000000
00000F000000
00000F000000
000007800000
000007C00000
000003C00000
000001E00000
000001E00000
000001E00000
000003C00000
000007000000
00003C000000
0000E00000F8
0007000003FC
001C00000C1C
00700000300C
01C00000400C
03800001800C
0F0000020008
1E0000040008
3C0000080018
380000100010
780000200020
700000400060
F00000800040
F00001000080
F00002000100
F00004000200
F00008000800
F00010001000
780010006000
780020008000
3C0040030000
1E00401C0000
0F0080600000
03E107800000
003FF8000000
000200000000
000200000000
000400000000
000400000000
ENDCHAR
STARTCHAR 011B
ENCODING 283
SWIDTH 208 0
DWIDTH 15 0
BBX 20 29 2 0
BITMAP
001800
001810
001820
001840
001880
001900
001A00
001C00
001000
000000
000000
000000
000000
003C00
00CC00
010C00
020C00
041800
0C2000
184000
198000
360020
780040
600080
600100
E00200
E00C00
703000
7FC000
ENDCHAR
STARTCHAR 011C
ENCODING 284
SWIDTH 638 0
DWIDTH 46 0
BBX 60 68 -3 -21
BITMAP
0000000000006000
000000000000E000
0000000000016000
0000000000026000
0000000000046000
00000000001FF800
0000000001F06E00
000000000F206300
000000003C404170
00000000F0000090
00000003C0000110
0000000F00000220
0000001E00000620
0000003800000C40
000000F000000880
000001E000001180
000003C000003100
0000078000006200
00000F000000C400
00001E000000C800
00003C0000019000
0000380000032000
0000700000034000
0000F00000068000
0000E000000F0000
0001E000000C0000
0001C000001C0000
0003800000380000
0003800000780000
0007800000F00000
0007000003F00000
000700000CE00000
0007000011E00000
0007000061C000E0
0003000183800700
0003800E03807800
0001C07007078000
00003F800F380000
000000000FC00000
000000001E000000
00000000FC000000
000000073C000000
0000003838000000
000000C070000000
00000700F0000000
00001800E0000000
0000E001E0000000
00030001C0000000
000C000380000000
0030000380000000
0040000700000000
0180000E00000000
0300000C00000000
0600001C00000000
0C00003800000000
1800003000000000
3000006000000000
700000C000000000
600001C000000000
E000018000000000
E000030000000000
E000060000000000
E000080000000000
E000300000000000
7000600000000000
7801800000000000
3E0E000000000000
07F0000000000000
ENDCHAR
STARTCHAR 011D
ENCODING 285
SWIDTH 277 0
DWIDTH 20 0
BBX 56 59 -29 -28
BITMAP
00000000000030
00000000000070
000000000001B0
00000000000230
00000000000430
00000000000830
00000000001030
00000000002030
00000000000020
00000000000000
00000000000000
00000000000030
00000000000070
000000000000E0
00000000001FE0
000000000061C0
00000000008180
00000000010380
00000000020700
000000000C0700
000000001C0E00
00000000181C00
00000000301C01
00000000703802
00000000E07004
00000000E0B018
00000001C16020
00000001C640C0
00000001F8C300
00000001E09C00
0000000001E000
00000000070000
000000003A0000
00000003C60000
0000003C040000
000001C00C0000
00001E00180000
0001E000100000
00060000300000
00380000600000
00C00000600000
03000000C00000
0E000001800000
1C000003800000
38000003000000
70000006000000
6000000C000000
E000001C000000
C0000038000000
C0000070000000
C00000E0000000
C00001C0000000
C0000380000000
40000700000000
60001E00000000
20003800000000
1000F000000000
0C07C000000000
03FE0000000000
ENDCHAR
STARTCHAR 011E
ENCODING 286
SWIDTH 638 0
DWIDTH 46 0
BBX 60 71 -3 -22
BITMAP
0000000000020000
0000000000060400
0000000000060800
0000000000031000
000000000001E000
0000000000000000
0000000000000000
0000000000000000
00000000001FF800
0000000001F00E00
000000000F000200
000000003C000130
00000000F00000D0
00000003C0000110
0000000F00000220
0000001E00000620
0000003800000C40
000000F0000008C0
000001E000001080
000003C000003100
0000078000006200
00000F000000E400
00001E000000C800
00003C0000019000
000038000003A000
0000700000034000
0000F00000078000
0000E000000F0000
0001E000000E0000
0001C000001C0000
0003800000380000
0003800000780000
0007800000F00000
0007000003F00000
000700000CE00000
0007000011E00000
0007000061C00070
0003000183800780
0003800E03807800
0001C07007078000
00003F800F380000
000000000FC00000
000000001E000000
00000000FC000000
0000000738000000
0000003838000000
000000C070000000
00000700F0000000
00001800E0000000
0000E001C0000000
00030001C0000000
000C000380000000
0030000700000000
0040000700000000
0180000E00000000
0300000C00000000
0600001C00000000
0C00003800000000
1800003000000000
3000006000000000
700000C000000000
6000018000000000
E000018000000000
E000030000000000
E000040000000000
E000080000000000
E000300000000000
7000600000000000
7801800000000000
3E0E000000000000
07F0000000000000
ENDCHAR
STARTCHAR 011F
ENCODING 287
SWIDTH 277 0
DWIDTH 20 0
BBX 55 55 -29 -29
BITMAP
00000000000800
00000000001808
00000000001810
00000000000C60
00000000000780
00000000000000
00000000000000
00000000000060
00000000000060
000000000000C0
00000000001FC0
00000000006180
00000000008380
00000000010300
00000000060600
000000000C0600
000000001C0C00
00000000181C00
00000000303802
00000000705004
00000000E0B008
00000000E12010
00000001C26060
00000001C44180
00000001F88600
00000001E09800
0000000001E000
00000000070000
000000007A0000
00000003860000
0000003C040000
000003C0080000
00001C00180000
0001E000100000
00060000300000
00380000600000
00C00000C00000
03000000C00000
0E000001800000
1C000003000000
38000007000000
70000006000000
6000000C000000
E0000018000000
C0000038000000
C0000070000000
C00000E0000000
C00001C0000000
C0000380000000
40000700000000
60001C00000000
20003800000000
1000F000000000
0C07C000000000
03FC0000000000
ENDCHAR
STARTCHAR 0120
ENCODING 288
SWIDTH 638 0
DWIDTH 46 0
BBX 60 69 -3 -22
BITMAP
0000000000003000
0000000000007000
0000000000006000
0000000000000000
0000000000000000
0000000000000000
00000000001FF800
0000000001F00E00
000000000F000200
000000003C000070
00000000F0000090
00000003C0000110
0000000F00000220
0000001E00000620
0000007800000C40
000000F0000008C0
000001E000001180
000003C000003100
0000078000006200
00000F000000C400
00001E000000C800
00003C0000019000
0000380000032000
0000700000034000
0000F00000068000
0000E000000F0000
0001E000000E0000
0001C000001C0000
0003800000380000
0003800000780000
0007800000F00000
0007000003F00000
000700000CE00000
0007000011C00000
0007000061C00070
0003000183800780
0003800E07807800
0001C07007078000
00003F800F380000
000000000FC00000
000000001E000000
00000000FC000000
0000000738000000
0000003878000000
000001C070000000
00000600F0000000
00001800E0000000
0000E001C0000000
00030001C0000000
000C000380000000
0030000700000000
0040000700000000
0180000E00000000
0300000C00000000
0600001C00000000
0C00003800000000
1800003000000000
3000006000000000
700000C000000000
6000018000000000
E000030000000000
E000020000000000
E000040000000000
E000080000000000
E000300000000000
7000600000000000
7801800000000000
3E0E000000000000
07F0000000000000
ENDCHAR
STARTCHAR 0121
ENCODING 289
SWIDTH 277 0
DWIDTH 20 0
BBX 53 54 -29 -29
BITMAP
00000000000180
00000000000380
00000000000300
00000000000000
00000000000000
00000000000000
00000000000080
00000000000180
00000000000100
00000000003F00
00000000004300
00000000018600
00000000030600
00000000060C00
000000000C0C00
00000000181800
00000000383800
00000000303008
00000000605010
00000000E0A020
00000000E12040
00000001C24080
00000001C44300
00000001F88400
00000001E0B800
0000000001C000
00000000070000
000000007A0000
00000003860000
0000003C040000
000003C0080000
00001C00180000
0001E000100000
00060000300000
00380000600000
00C00000400000
03000000C00000
0E000001800000
1C000003000000
38000007000000
70000006000000
6000000C000000
E0000018000000
C0000038000000
C0000070000000
C00000E0000000
C00001C0000000
C0000380000000
40000700000000
60001E00000000
20003800000000
1000F000000000
0C07C000000000
03FE0000000000
ENDCHAR
STARTCHAR 0122
ENCODING 290
SWIDTH 638 0
DWIDTH 46 0
BBX 60 69 -3 -21
BITMAP
0000000000006000
0000000000008000
0000000000008000
0000000000010000
0000000000020000
0000000000020000
00000000000FF800
0000000001F60C00
000000000F060200
000000003C040270
00000000F0000090
00000003C0000110
0000000F00000220
0000001E00000460
0000003800000C40
000000F000001880
000001E000001180
000003C000002300
0000078000006600
00000F000000C400
00001E0000018800
00003C0000019000
0000380000032000
000070000006C000
0000F00000070000
0000E000000E0000
0001E000001C0000
0001C00000180000
0003800000380000
0003800000700000
0007800001F00000
0007000002E00000
000700000CE00000
0007000031C00000
0007000043C000E0
0003000103800F00
0003800C0780F000
0001C07007070000
00003F800F380000
000000000FC00000
000000001E000000
00000000FC000000
0000000738000000
0000003878000000
000001C070000000
00000600F0000000
00001800E0000000
0000E001C0000000
00030001C0000000
000C000380000000
0030000700000000
0040000700000000
0180000E00000000
0300000C00000000
0600001C00000000
0C00003800000000
1800003000000000
3000006000000000
700000C000000000
6000018000000000
E000030000000000
E000020000000000
E000040000000000
E000080000000000
E000300000000000
7000600000000000
7801800000000000
3E0E000000000000
07F0000000000000
ENDCHAR
STARTCHAR 0123
ENCODING 291
SWIDTH 277 0
DWIDTH 20 0
BBX 55 60 -29 -28
BITMAP
00000000000020
00000000000040
00000000000080
00000000000100
00000000000200
00000000000600
00000000000600
00000000000600
00000000000700
00000000000700
00000000000000
00000000000000
00000000000060
000000000000E0
000000000000C0
00000000001FC0
00000000006180
00000000008380
00000000010300
00000000060600
000000000C0600
000000001C0C00
00000000181C00
00000000303802
00000000705804
00000000E0B008
00000000E0A010
00000001C36060
00000001C44180
00000001F88600
00000001E09800
0000000001E000
00000000070000
000000007A0000
00000003860000
0000003C040000
000003C00C0000
00001C00180000
0001E000100000
00060000300000
00380000600000
00C00000400000
03000000C00000
0E000001800000
1C000003000000
38000003000000
70000006000000
6000000C000000
E0000018000000
C0000038000000
C0000070000000
C00000E0000000
C00001C0000000
C0000380000000
40000700000000
60001E00000000
20003800000000
1000F000000000
0C07C000000000
03FE0000000000
ENDCHAR
STARTCHAR 0124
ENCODING 292
SWIDTH 736 0
DWIDTH 53 0
BBX 79 66 -7 -13
BITMAP
00000000000000060000
000000000000001E0000
00000000000000260000
00000000000000460000
00000000000000460000
00000000000000860000
00000000000003060000
00000000000006060000
0000000000002404007C
0000000000006000019E
0000000000004000060E
000000000000C000080E
00000000007F8000100E
000000000FFF8000600C
000000007FFF0000C01C
00000000FF0100018018
00000001F00200030038
00000003800200030030
00000007000400060060
0000000C0004000C0080
00000018000800180300
00000010000800380400
00000020001000301800
00000060001000706000
00000040002000E18000
00000080002000C60000
00000080004001F80000
00000100004003800000
0000010000800F800000
00000100008077000000
00000200010387000000
00000200010C0E000000
0000020002700E000000
0000020005801C000000
0000000006001C000000
00000000180038000000
00000000680038000000
00000001900030000000
00000002200070000000
00000004200070000000
000000084000F0000000
000000208000E0000000
800000418000E0000000
800000810000E0000000
800001020001E0000000
8000010C0001E0000000
C00002180001E0000000
E00004300001F0000000
700004E00001F0000000
7C0009800001F8000000
3F000F000000FC040000
1FFFFC000000FFF80000
0FFFF80000007FE00000
03FE100000003F000000
00001000000000000000
00001000000000000000
00001000000000000000
00001000000000000000
00001000000000000000
00001800000000000000
00001800000000000000
00000C00000000000000
00000E00000000000000
00000700000000000000
00000380000000000000
000000FC000000000000
ENDCHAR
STARTCHAR 0125
ENCODING 293
SWIDTH 263 0
DWIDTH 19 0
BBX 81 87 -33 -35
BITMAP
0000000000000000180000
0000000000000000380000
0000000000000000D87E00
000000000000000119FF00
00000000000000021F0380
0000000000000004180080
000000000000000C380080
0000000000000008580000
0000000000000000900000
0000000000000001000000
0000000000000002000000
0000000000000004000000
0000000000000008000000
0000000000000010000000
0000000000000020000000
0000000000000040000000
00000000000000C0000000
0000000000000080000000
0000000000000100000000
0000000000000200000000
0000000000000600000000
0000000000000C00000000
0000000000000800000000
0000000000001800000000
0000000000003000000000
0000000000006000000000
0000000000006000000000
000000000000C000000000
0000000000018000000000
0000000000018000000000
0000000000030000000000
0000000000070000000000
0000000000060000000000
00000000000C0000000000
00000000001C0000000000
000000000018E000000000
000000000039E000000000
000000000032E000000000
00000000006CC000000000
0000000000F0C000000000
0000000000E1C000000000
0000000001C18020000000
0000000001838040000000
0000000003830080000000
0000000003030300000000
0000000006060400000000
000000000E061800000000
000000000C0C6000000000
000000001C0D8000000000
00000000181E0000000000
0000000020380000000000
0000000000F00000000000
0000000007300000000000
0000000018200000000000
00000000E0600000000000
0000000300400000000000
0000001C00C00000000000
000000E000800000000000
0000030001000000000000
00000C0003000000000000
0000300002000000000000
0000C00006000000000000
0003000004000000000000
000C000008000000000000
0010000008000000000000
0060000010000000000000
0080000020000000000000
0300000040000000000000
0600000040000000000000
0C00000080000000000000
1800000100000000000000
1000000200000000000000
3000000200000000000000
6000000400000000000000
6000000800000000000000
6000001000000000000000
C000002000000000000000
C000004000000000000000
C000008000000000000000
C000010000000000000000
E000020000000000000000
E0000C0000000000000000
6000100000000000000000
7000200000000000000000
3800C00000000000000000
1F07000000000000000000
07F8000000000000000000
ENDCHAR
STARTCHAR 0126
ENCODING 294
SWIDTH 750 0
DWIDTH 54 0
BBX 78 58 -6 -14
BITMAP
000000000000000000F8
0000000000010000033C
0000000000020000041C
0000000000020000181C
00000000007E0000201C
000000000FFC0000401C
000000007FFC00008038
00000000FE0400018038
00000003E00400030030
00000007800800060060
000000060008000400E0
0000000C0010000C01C0
00000018001000180180
00000030002000300300
00000020002000700C00
00000040002001E01800
000000C0004006E03000
00000080004039C0C000
000001000040C1830000
000001000087038C0000
0000020000B803300000
0000020000C007C00000
0000020007000E000000
000004003A007E000000
00000400E2038C000000
00000401841C1C000000
0000040208E018000000
000004040F0030000000
00000008180030000000
00000000600070000000
00000001A00060000000
00000006400060000000
000000088000E0000000
000000108000C0000000
800000610000C0000000
800000820000C0000000
800001040001C0000000
800002080001C0000000
C00004100001C0000000
C00004200001C0000000
E00008C00001E0000000
780011000001F0000000
7F0016000001F8000000
3FFFF8000000FFFC0000
0FFFF00000007FE00000
03FC200000003F000000
00002000000000000000
00002000000000000000
00002000000000000000
00002000000000000000
00002000000000000000
00003000000000000000
00003000000000000000
00001800000000000000
00001C00000000000000
00000E00000000000000
00000700000000000000
000001F8000000000000
ENDCHAR
STARTCHAR 0127
ENCODING 295
SWIDTH 263 0
DWIDTH 19 0
BBX 81 85 -33 -36
BITMAP
0000000000000000007E00
000000000000000001FF00
0000000000000000070780
0000000000000000080080
0000000000000000300080
0000000000000000400000
0000000000000000800000
0000000000000001000000
0000000000000002000000
0000000000000004000000
0000000000000008000000
0000000000000010000000
0000000000000020000000
0000000000000060000000
0000000000000040000000
0000000000000080000000
0000000000000100000000
0000000000000300000000
0000000000000600000000
0000000000000400000000
0000000000000C00000000
0000000000001800000000
0000000000003000000000
0000000000003000000000
0000000000006000000000
00000000000FFFE0000000
000000000000C000000000
0000000000018000000000
0000000000038000000000
0000000000030000000000
0000000000060000000000
00000000000E0000000000
00000000000C0000000000
0000000000186000000000
000000000039E000000000
000000000032E000000000
00000000007CC000000000
000000000070C000000000
0000000000E1C000000000
0000000001C18020000000
0000000001838040000000
0000000003830080000000
0000000003030300000000
0000000006060400000000
0000000006061800000000
000000000C0C6000000000
000000001C0D8000000000
00000000181E0000000000
0000000020380000000000
0000000000F00000000000
0000000007300000000000
0000000018200000000000
00000000E0600000000000
0000000300400000000000
0000001C00C00000000000
000000E000800000000000
0000030001000000000000
00000C0003000000000000
0000300002000000000000
0000C00006000000000000
0003000004000000000000
000C000008000000000000
0010000008000000000000
0060000010000000000000
0080000020000000000000
0300000040000000000000
0600000040000000000000
0C00000080000000000000
1800000100000000000000
1000000200000000000000
3000000200000000000000
6000000400000000000000
6000000800000000000000
6000001000000000000000
C000002000000000000000
C000004000000000000000
C000008000000000000000
C000010000000000000000
E000020000000000000000
E0000C0000000000000000
6000100000000000000000
7000200000000000000000
3800C00000000000000000
1F07000000000000000000
07F8000000000000000000
ENDCHAR
STARTCHAR 0128
ENCODING 296
SWIDTH 361 0
DWIDTH 26 0
BBX 41 51 1 -1
BITMAP
000000070080
000000098080
00000030C100
000000407100
000000403E00
000000000000
000000000000
000000000000
000000000000
0000001FFF80
000001E00100
00000E000600
000010000800
000020000800
000040001000
000080002000
000180006000
000100004000
000300008000
000300018000
000300030000
000300030000
000380060000
0003800C0000
0001C00C0000
0001E0180000
0000F0380000
000000300000
000000700000
000000E00000
000000E00000
000001C00000
000003C00000
000003800000
000007800000
000007000000
00000E000000
00001E000000
00001C000000
00003C000000
000078000000
000070000000
0000E0000000
0001E0000000
0003C0000000
000780000000
000F00000000
001E00000000
803800000000
40F000000000
3F8000000000
ENDCHAR
STARTCHAR 0129
ENCODING 297
SWIDTH 180 0
DWIDTH 13 0
BBX 18 27 3 -1
BITMAP
018040
07C040
086080
103880
201F00
000400
000000
000000
000000
000000
000000
000000
018000
030000
070000
060000
0C0080
0C0100
180200
300400
300800
601000
602000
E04000
C08000
E30000
FC0000
ENDCHAR
STARTCHAR 012A
ENCODING 298
SWIDTH 361 0
DWIDTH 26 0
BBX 40 47 1 -1
BITMAP
00000007E0
0000000000
0000000000
0000000000
0000000000
0000001FFF
000001E002
00000E0004
0000100008
0000200010
0000C00020
0000800040
00018000C0
0001000180
0003000180
0003000300
0003000600
0003000E00
0003800C00
0003801C00
0001C03800
0001C03800
0000F07000
0000007000
000000E000
000001E000
000001C000
000003C000
0000038000
0000078000
00000F0000
00000E0000
00001E0000
00001C0000
00003C0000
0000780000
0000700000
0000F00000
0001E00000
0003C00000
0003800000
0007800000
000F000000
001C000000
8078000000
40E0000000
3F80000000
ENDCHAR
STARTCHAR 012B
ENCODING 299
SWIDTH 180 0
DWIDTH 13 0
BBX 17 24 3 0
BITMAP
00FC00
000000
000000
000000
000000
000000
000000
000000
000000
018000
030000
070000
060000
0C0080
0C0100
180200
300400
300800
601000
602000
E04000
C08000
E30000
FC0000
ENDCHAR
STARTCHAR 012E
ENCODING 302
SWIDTH 361 0
DWIDTH 26 0
BBX 40 48 1 -7
BITMAP
0000001FFF
000001E002
00000E0004
0000100008
0000200010
0000400020
0000800040
00018000C0
0001000180
0003000180
0003000300
0003000600
0003000E00
0003000C00
0003801C00
0003801800
0001C03800
0000E07000
0000007000
000000E000
000001E000
000001C000
000003C000
0000038000
0000078000
00000F0000
00000F0000
00001E0000
00001C0000
00003C0000
0000780000
0000780000
0000F00000
0001E00000
0001C00000
0003C00000
0007800000
000F000000
001E000000
8038000000
40F0000000
3FC0000000
0100000000
0200000000
0400000000
0C00000000
0E00000000
0780000000
ENDCHAR
STARTCHAR 012F
ENCODING 303
SWIDTH 180 0
DWIDTH 13 0
BBX 20 34 0 -8
BITMAP
000080
0001C0
000180
000100
000000
000000
000000
000000
000000
000000
000000
003000
006000
00E000
00C000
018010
018020
030040
060080
060100
0C0200
0C0400
1C0800
181000
1C6000
1F8000
040000
180000
200000
600000
C00000
C00000
E00000
380000
ENDCHAR
STARTCHAR 0130
ENCODING 304
SWIDTH 361 0
DWIDTH 26 0
BBX 40 49 1 -1
BITMAP
0000000060
00000000E0
00000000C0
0000000000
0000000000
0000000000
0000000000
0000001FFF
000001E002
00000E0004
0000100008
0000200010
0000400020
0000800060
00018000C0
0001000180
0003000180
0003000300
0003000700
0003000600
0003800E00
0003801C00
0001C01800
0001E03800
0000F07000
0000007000
000000E000
000001E000
000001C000
000003C000
0000038000
0000078000
00000F0000
00000F0000
00001E0000
00001C0000
00003C0000
0000780000
0000780000
0000F00000
0001E00000
0003C00000
0003C00000
0007800000
000F000000
001E000000
8038000000
40F0000000
3F80000000
ENDCHAR
STARTCHAR 0131
ENCODING 305
SWIDTH 180 0
DWIDTH 13 0
BBX 18 16 2 -1
BITMAP
008000
018000
018000
030000
030000
060040
0C0080
0C0100
180200
180400
300800
301000
602000
60C000
F30000
7C0000
ENDCHAR
STARTCHAR 0132
ENCODING 306
SWIDTH 625 0
DWIDTH 45 0
BBX 57 58 2 -17
BITMAP
0000003FFF0FFF80
000003C004F00700
00001C000B000E00
0000200014001C00
0000400030001C00
0000800070003800
00010000E0007000
00030001E0007000
000200014000E000
00060003C000E000
00060006C001C000
00060006C001C000
0006000CC0038000
0007001CC0078000
00070018E0070000
00038038E00F0000
0003C070700E0000
0001E0703C1E0000
000000E0001C0000
000000E0003C0000
000001C000380000
000003C000780000
0000038000700000
0000078000F00000
0000070000E00000
00000F0001E00000
00001E0001C00000
00001C0003C00000
00003C0003800000
0000380007800000
0000780007000000
0000F0000E000000
0000F0000E000000
0001E0001C000000
0003C0001C000000
0007800038000000
0007000030000000
000F000070000000
001C0000E0000000
80780000C0000000
41F00001C0000000
3F80000180000000
0000000300000000
0000000700000000
4000000600000000
4000000C00000000
C000001800000000
C000003000000000
C000006000000000
E000004000000000
E000008000000000
E000010000000000
F000060000000000
70000C0000000000
7800100000000000
7C00600000000000
3F03800000000000
3FFC000000000000
ENDCHAR
STARTCHAR 0133
ENCODING 307
SWIDTH 263 0
DWIDTH 19 0
BBX 43 54 -18 -28
BITMAP
00000000C060
00000001C0E0
0000000180C0
000000000000
000000000000
000000000000
000000000000
000000000000
000000000000
000001F87C00
00000278BC00
000000703800
000000703800
000000E03800
000000E07000
000000C07000
000001C0E000
00000180E000
00000181C000
00000301C000
000003038000
000006058000
000006090000
000006330000
000007C20000
000007060000
000000060000
0000000C0000
0000000C0000
000000080000
000000100000
000000100000
000000200000
000000200000
000000400000
000000800000
000000800000
000001000000
000001000000
000002000000
000004000000
000004000000
000008000000
000010000000
000020000000
800060000000
800040000000
800080000000
C00300000000
C00600000000
F03800000000
FFF000000000
7FC000000000
1F0000000000
ENDCHAR
STARTCHAR 0134
ENCODING 308
SWIDTH 388 0
DWIDTH 28 0
BBX 59 71 -14 -14
BITMAP
0000000000000300
0000000000000700
0000000000001B00
0000000000002300
0000000000004300
0000000000008300
0000000000010300
0000000000020300
0000000000000200
0000000000000000
0000000000000000
00000000000001E0
0000000000000380
0000000000000780
0000000000000F00
0000000000001E00
0000000000007E00
0000000000019C00
00000000000E1C00
0000000000303800
0000000000C03000
0000000003007000
000000000C006000
000000003000E000
000000004000C000
000000008001C000
0000000100018000
0000000200038000
0000000400070000
0000000400070000
0000000C000E0000
00000008000E0000
00000018001C0000
00000018001C0000
0000001800380000
0000001800380000
0000001C00700000
0000001C00700000
0000001C00E00000
0000000E01E00000
0000000E01C00000
0000000F03C00000
0000000783800000
00000003C7800000
00000003E7000000
00000001FF000000
00000000FE000000
000000003E000000
000000003F800000
000000003FE00000
0000000078000000
0000000070000000
00000000F0000000
00000001E0000000
00000001C0000000
0000000380000000
0000000780000000
0000000700000000
4000000E00000000
C000001C00000000
C000003800000000
C000007000000000
C000006000000000
C00000C000000000
E000018000000000
E000070000000000
F0000C0000000000
7800180000000000
7C00600000000000
7F03800000000000
3FFC000000000000
ENDCHAR
STARTCHAR 0135
ENCODING 309
SWIDTH 208 0
DWIDTH 15 0
BBX 48 56 -26 -27
BITMAP
000000000080
000000000380
000000000580
000000000980
000000001180
000000002180
000000004180
000000008180
000000000100
000000000000
000000000000
000000000000
000000000000
00000000F000
00000003F000
000000047000
000000183000
000000202001
000000002006
000000002008
000000006030
000000004040
000000004180
00000000C600
000000009800
00000000B000
00000001C000
000000038000
0000000F0000
0000000E0000
000000040000
000000040000
000000080000
000000100000
000000100000
000000200000
000000200000
000000400000
000000800000
000000800000
000001000000
000002000000
000002000000
000004000000
000008000000
000010000000
000010000000
800020000000
800040000000
800080000000
800100000000
C00200000000
C00C00000000
F03000000000
7FE000000000
3F8000000000
ENDCHAR
STARTCHAR 0136
ENCODING 310
SWIDTH 750 0
DWIDTH 54 0
BBX 75 52 1 -13
BITMAP
00001FF000800007F000
00007FFF8100007FFC00
0001FFFFFF0001FFFE00
0003C000060007E00000
0003000006001E000000
000600000C0070000000
000600000801C0000000
00040000180700000000
000C0000100C00000000
00080000203000000000
00080000204000000000
00080000418000000000
00080000420000000000
000800008C0000000000
00080001100000000000
00040001600000000000
00040002800000000000
00040003000000000000
00000006000000000000
00000007000000000000
0000001F000000000000
0000002B800000000000
00000011C00000000000
00000021E00000000000
00000020F00000000000
00000040700000000000
00000040780000000000
000000803C0000000000
000000801E0000000000
000001000F0000000000
00000200078000000000
0000060003C000000000
00000C0003E000000000
0000180001F000000000
0000300000F800000000
80006000007E00000000
4001C000003F00000000
30078000001F80000000
1FFE00000007E0000000
01C000000003F0000020
000000000001FC000040
0000000000007F000080
0000001800001FC00300
0000001C000007F80C00
0000001C000000FFF000
0000000C000000000000
00000018000000000000
00000018000000000000
00000010000000000000
00000020000000000000
00000040000000000000
00000080000000000000
ENDCHAR
STARTCHAR 0137
ENCODING 311
SWIDTH 222 0
DWIDTH 16 0
BBX 49 71 1 -21
BITMAP
0000000001F000
000000000FFC00
00000000181C00
00000000400200
00000000800200
00000003000000
00000004000000
00000008000000
00000010000000
00000020000000
00000040000000
00000080000000
00000100000000
00000100000000
00000200000000
00000400000000
00000800000000
00000800000000
00001000000000
00002000000000
00002000000000
00004000000000
0000C000000000
00008000000000
00010000000000
00030000000000
00020000000000
00060000000000
000C0000000000
000C0000000000
00180000000000
00100000000000
00300000000000
00600000000000
00638000000000
00CF8000000000
01D98000000000
01A10000000000
03C20000000000
03840000000000
07080000000000
0E100000000000
0EE00000000000
1F800000000000
1F800000000000
39C00000000000
71C00000000000
60E00000000000
C0F00000000000
80700000000000
00380000000000
003C0000000000
001C0000000000
0E0E0000000000
0E0F0000000000
06070000000000
06038000000000
0601C000000000
0401E000000000
0800E000000000
18007000000000
30003800000000
40001C00000000
80000E00000000
00000700000000
000003C0000000
000000E0000080
00000078000300
0000001E000C00
00000007C07000
00000000FF8000
ENDCHAR
STARTCHAR 0139
ENCODING 313
SWIDTH 930 0
DWIDTH 67 0
BBX 67 49 0 -3
BITMAP
000000000000800000
000000000001800000
000000000003000000
000000000004000000
000000000018000000
0000000000301F0000
000000000040FF8000
00000000008307C000
000000000304038000
000000000408018000
000000000010010000
000000000020000000
000000000040000000
000000000080000000
000000000100000000
000000000300000000
000000000600000000
000000000400000000
000000000C00000000
000000001800000000
000000003000000000
000000003000000000
000000006000000000
00000000C000000080
00000000C000000080
000000018000000040
000000010000000040
000000030000000020
000000020000000020
000000060000000020
0000000C0000000020
000000080000000020
700000180000000020
7C0000100000000020
F70000200000000020
E0C000200000000060
E03000400000000060
E00C008000000000C0
E003810000000000C0
E000610000000001C0
E0001A000000000380
F00007000000000780
700008E00000000F00
7800301C0000003E00
7C006007800000FE00
3F03C000FE000FF800
1FFF80001FFFFFF000
0FFE000001FFFFC000
03F80000000FFE0000
ENDCHAR
STARTCHAR 013A
ENCODING 314
SWIDTH 208 0
DWIDTH 15 0
BBX 34 54 3 -1
BITMAP
00000000C0
0000000180
0000000200
0000000400
0000000800
0000001000
0000004000
0000008380
0000010780
0000001BC0
00000021C0
00000041C0
00000080C0
00000100C0
00000200C0
00000400C0
00000800C0
00000800C0
0000100080
0000200180
0000600100
0000C00300
0000800200
0001800400
0003000800
0002001000
0006002000
000C004000
001C008000
0018030000
0030040000
0030180000
0060200000
00E0C00000
00C3000000
01CC000000
03F0000000
0380000000
1F00000000
0E00000000
0E00000000
0C00000000
1C00000000
1800100000
3800200000
3000400000
7000800000
6001000000
E002000000
E00C000000
E010000000
E060000000
F180000000
7E00000000
ENDCHAR
STARTCHAR 013B
ENCODING 315
SWIDTH 930 0
DWIDTH 67 0
BBX 67 55 0 -15
BITMAP
0000000000001F0000
000000000000FF8000
00000000000307C000
000000000004038000
000000000008018000
000000000010010000
000000000020000000
000000000040000000
000000000080000000
000000000100000000
000000000300000000
000000000600000000
000000000400000000
000000000C00000000
000000001800000000
000000003000000000
000000003000000000
000000006000000000
00000000C000000080
00000000C000000080
000000018000000040
000000010000000040
000000030000000020
000000020000000020
000000060000000020
0000000C0000000020
000000080000000020
700000180000000020
7C0000100000000020
F70000200000000020
E0C000200000000060
E03000400000000060
E00C008000000000C0
E003810000000000C0
E000610000000001C0
E0001A000000000380
F00007000000000780
700008E00000000F00
7800301C0000003E00
7C006007800000FE00
3F03C000FE000FF800
1FFF80001FFFFFF000
0FFE000001FFFFC000
03F80000000FFE0000
000000060000000000
0000000E0000000000
0000000E0000000000
000000060000000000
000000060000000000
000000040000000000
0000000C0000000000
000000080000000000
000000100000000000
000000200000000000
000000400000000000
ENDCHAR
STARTCHAR 013C
ENCODING 316
SWIDTH 208 0
DWIDTH 15 0
BBX 38 58 -1 -14
BITMAP
0000000038
0000000078
00000001BC
000000021C
000000041C
000000080C
000000100C
000000200C
000000400C
000000800C
000000800C
0000010008
0000020018
0000060010
00000C0030
0000080020
0000180040
0000300080
0000200100
0000600200
0000C00400
0001C00800
0001803000
0003004000
0003018000
0006020000
000E0C0000
000C300000
001CC00000
003F000000
0038000000
01F0000000
00E0000000
00E0000000
00C0000000
01C0000000
0180010000
0380020000
0300040000
0700080000
0600100000
0E00200000
0E00C00000
0E01000000
0E06000000
0F18000000
07E0000000
0400000000
0E00000000
0E00000000
0600000000
0600000000
0400000000
0C00000000
0800000000
1000000000
2000000000
C000000000
ENDCHAR
STARTCHAR 013D
ENCODING 317
SWIDTH 930 0
DWIDTH 67 0
BBX 67 44 0 -3
BITMAP
0000000000001E0000
000000000000FF0000
000000000001071800
000000000006031800
000000000008021800
000000000010001800
000000000020001800
000000000040001000
000000000080003000
000000000100006000
00000000030000C000
000000000600010000
000000000400000000
000000000C00000000
000000001800000000
000000003000000000
000000003000000000
000000006000000000
00000000C000000080
00000000C000000080
000000018000000040
000000010000000040
000000030000000020
000000020000000020
000000060000000020
0000000C0000000020
000000080000000020
700000180000000020
7C0000100000000020
F70000200000000020
E0C000200000000060
E03000400000000060
E00C008000000000C0
E003810000000000C0
E000610000000001C0
E0001A000000000380
F00007000000000780
700008E00000000F00
7800301C0000003E00
7C006007800000FE00
3F03C000FE000FF800
1FFF80001FFFFFF000
0FFE000001FFFFC000
03F80000000FFE0000
ENDCHAR
STARTCHAR 013E
ENCODING 318
SWIDTH 236 0
DWIDTH 17 0
BBX 34 48 3 -3
BITMAP
00000001C0
00000007C0
0000000E00
0000001700
0000002700
0000004300
0000008300
0000010200
0000020600
0000060400
00000C0800
0000181000
0000102000
0000304000
0000600000
0000C00000
0000800000
0001800000
0003000000
0006000000
0006000000
000C000000
001C000000
0018000000
0030000000
0070000000
0060000000
00E0000000
00C0000000
0180000000
0380000000
0300000000
0700000000
0600000000
0E00000000
1C00000000
1C00000000
3800000000
3800600000
3000800000
7001000000
6002000000
E004000000
E008000000
E010000000
E060000000
F180000000
7E00000000
ENDCHAR
STARTCHAR 013F
ENCODING 319
SWIDTH 930 0
DWIDTH 67 0
BBX 67 44 0 -3
BITMAP
000000000000060000
0000000000007F8000
00000000000187C000
00000000000203C000
00000000000C018000
000000000010000000
000000000020000000
000000000040000000
0000000000C0000000
000000000180000000
000000000300000000
000000000200000000
000000000400000000
000000000C00000000
000000001800000000
000000001000000000
000000003000000000
000000006000000080
000000004000000080
00000000C000000040
000000018000000040
000000010000000020
000000030007000020
000000020007000020
000000060006000020
000000040000000020
400000080000000020
700000180000000020
7C0000100000000020
F38000200000000020
E06000600000000060
E01800400000000060
E00600800000000060
E001C10000000000C0
E000320000000001C0
E0000E000000000380
700005800000000780
700018700000000F00
3800200E0000003E00
1C00C001F00001FC00
0F8700003FF8FFF800
0078000007FFFFF000
00000000007FFF8000
000000000000E00000
ENDCHAR
STARTCHAR 0140
ENCODING 320
SWIDTH 236 0
DWIDTH 17 0
BBX 34 48 3 -4
BITMAP
0000000080
00000007C0
0000000980
0000001000
0000002000
0000004000
0000008000
0000010000
0000020000
0000040000
00000C0000
0000180000
0000100000
0000200000
0000600000
0000C00000
0001800000
0001800000
0003000000
0006000000
0006070000
000C0F0000
0018060000
0018000000
0030000000
0070000000
0060000000
00C0000000
01C0000000
0180000000
0380000000
0300000000
0700000000
0E00000000
0C00000000
1C00000000
1800000000
3800000000
3000400000
7000800000
7001000000
6002000000
E004000000
E008000000
E010000000
E060000000
F180000000
7E00000000
ENDCHAR
STARTCHAR 0141
ENCODING 321
SWIDTH 930 0
DWIDTH 67 0
BBX 67 44 0 -3
BITMAP
0000000000001F0000
0000000000007F8000
00000000000187C000
00000000000603C000
000000000008018000
000000000010010000
000000000020000000
000000000040000000
000000000080000000
000000000100000000
000000000100000000
000000000200000000
000000000400000000
000000000800000000
000000000800000000
000000001000000000
000000002000000000
000000002000000000
000000004000000080
000000008000000080
000000008000000040
000000010000000040
00000001F000000020
000007FA3FF8000020
000000040000000020
0000000C0000000020
600000080000000020
780000100000000020
7E0000100000000020
F18000200000000020
E06000400000000060
E01800400000000060
E006008000000000C0
E001810000000000C0
E000720000000001C0
E0000C000000000380
F00007000000000780
700008E00000000F00
7800301C0000003E00
7C006003C00000FE00
3F03C0007E000FF800
1FFF80000FFFFFF000
0FFE000001FFFFC000
03F80000000FFE0000
ENDCHAR
STARTCHAR 0142
ENCODING 322
SWIDTH 208 0
DWIDTH 15 0
BBX 34 47 3 -2
BITMAP
0000000180
0000000780
0000001BC0
00000021C0
00000041C0
00000080C0
00000100C0
00000200C0
00000200C0
00000400C0
00000800C0
0000100080
0000300180
0000600100
0000400300
0000C00200
0001800400
0001800800
0003001000
0006002000
0006004000
000C008000
001CF30000
001F040000
0070080000
0FF0300000
0460C00000
00E3000000
01CC000000
01B0000000
03C0000000
1F00000000
0F00000000
0E00000000
0C00000000
1C00000000
1800000000
3800200000
3000400000
7000800000
6001000000
E006000000
E008000000
E010000000
E060000000
F180000000
7E00000000
ENDCHAR
STARTCHAR 0143
ENCODING 323
SWIDTH 666 0
DWIDTH 48 0
BBX 67 63 -3 -11
BITMAP
000000000000070000
0000000000000C0000
000000000000180000
000000000000200000
000000000000400000
000000000001800000
000000000002000000
000000000004000000
000000000018000000
000000000000000000
000000000000000000
00000000001F000000
0000000000E0C01FE0
0000000000C023FFE0
0000000000203FFFE0
0000001C001FC40060
0000003E0000040020
0000007E0000020020
000000FE0000030000
0000018E0000030000
0000030E0000030000
0000060E0000030000
000004060000030000
000008060000030000
000010060000030000
000020060000070000
000020060000070000
000040060000060000
000080060000060000
0000800600000E0000
0001000600000C0000
0002000600000C0000
000200060000180000
000400060000180000
000800060000300000
000800060000300000
001000060000600000
002000060000600000
002000060000C00000
004000060000800000
00C000060001800000
008000060001000000
010000060002000000
010000060006000000
020000070004000000
060000070008000000
040000070010000000
0C0000070020000000
080000070040000000
180000078080000000
100000078100000000
30000003C200000000
20000003FC00000000
60000001F000000000
600000000000000000
400000000000000000
C00000000000000000
C00000000000000000
C00000000000000000
800000000000000000
800000000000000000
800000000000000000
800000000000000000
ENDCHAR
STARTCHAR 0144
ENCODING 324
SWIDTH 277 0
DWIDTH 20 0
BBX 25 32 2 -2
BITMAP
00000180
00000200
00000400
00001800
00002000
00004000
00018000
00020000
00040000
00000000
00000000
00000000
00000000
00818000
01878000
038F0000
03370000
07460000
068E0000
0F0C0000
0E180000
1E180000
1C180000
38300000
30300000
70700000
60600000
C0600400
C0601800
00702000
0078C000
001F0000
ENDCHAR
STARTCHAR 0145
ENCODING 325
SWIDTH 666 0
DWIDTH 48 0
BBX 67 54 -3 -14
BITMAP
00000000001F000000
0000000000E0C01FE0
0000000000C023FFE0
0000000000203FFFE0
0000001C001FC40060
0000003E0000040020
0000007E0000020020
000000FE0000030000
0000018E0000030000
0000030E0000030000
0000060E0000030000
000004060000030000
000008060000030000
000010060000030000
000020060000070000
000020060000070000
000040060000060000
000080060000060000
0000800600000E0000
0001000600000C0000
0002000600000C0000
000400060000180000
000400060000180000
000800060000300000
001800060000300000
001000060000600000
002000060000600000
002000060000C00000
004000060000800000
00C000060001800000
008000060001000000
010000060002000000
030000060006000000
020000070004000000
060000070008000000
040000070010000000
0C0000070020000000
080000070040000000
180000078080000000
100000078100000000
30000003C200000000
20000003FC00000000
60000001F000000000
600008000000000000
C00018000000000000
C00018000000000000
C00018000000000000
800018000000000000
800018000000000000
800010000000000000
800030000000000000
000060000000000000
0000C0000000000000
000100000000000000
ENDCHAR
STARTCHAR 0146
ENCODING 326
SWIDTH 277 0
DWIDTH 20 0
BBX 23 30 1 -14
BITMAP
0040C0
00C3C0
01C780
019B80
03A300
034700
078600
070C00
0F0C00
0E0C00
1C1800
181800
383800
303000
603002
60300C
003810
003C60
000F80
0C0000
0E0000
0E0000
0E0000
0C0000
0C0000
080000
100000
300000
400000
800000
ENDCHAR
STARTCHAR 0147
ENCODING 327
SWIDTH 666 0
DWIDTH 48 0
BBX 67 63 -3 -11
BITMAP
000000000030100000
000000000030200000
000000000030400000
000000000030800000
000000000033000000
000000000034000000
000000000038000000
000000000030000000
000000000020000000
000000000000000000
000000000000000000
00000000001F000000
0000000000E0C01FE0
0000000000C023FFE0
0000000000203FFFE0
0000001C001FC40060
0000003E0000040020
0000007E0000020020
000000FE0000030000
0000018E0000030000
0000030E0000030000
0000060E0000030000
000004060000030000
000008060000030000
000010060000030000
000020060000070000
000020060000070000
000040060000060000
000080060000060000
0000800600000E0000
0001000600000C0000
0002000600000C0000
000200060000180000
000400060000180000
000800060000300000
000800060000300000
001000060000600000
002000060000600000
002000060000C00000
004000060000800000
00C000060001800000
008000060001000000
010000060002000000
010000060006000000
020000070004000000
060000070008000000
040000070010000000
0C0000070020000000
080000070040000000
180000078080000000
100000078100000000
30000003C200000000
20000003FC00000000
60000001F000000000
600000000000000000
400000000000000000
C00000000000000000
C00000000000000000
C00000000000000000
800000000000000000
800000000000000000
800000000000000000
800000000000000000
ENDCHAR
STARTCHAR 0148
ENCODING 328
SWIDTH 277 0
DWIDTH 20 0
BBX 22 32 2 -2
BITMAP
000600
000604
000608
000610
000620
0006C0
000700
000600
000400
000000
000000
000000
000000
008180
018780
038F00
033700
074600
068E00
0F0C00
0E1800
1E1800
1C1800
383000
303000
707000
606000
C06004
C06018
007020
0078C0
001F00
ENDCHAR
STARTCHAR 0149
ENCODING 329
SWIDTH 277 0
DWIDTH 20 0
BBX 22 34 2 -2
BITMAP
00C000
00E000
00E000
006000
006000
004000
004000
008000
008000
010000
020000
040000
080000
000000
000000
008180
018780
038F00
033700
074600
068E00
0F0C00
0E1800
1E1800
1C1800
383000
303000
707000
606000
C06004
C06018
007020
0078C0
001F00
ENDCHAR
STARTCHAR 014C
ENCODING 332
SWIDTH 625 0
DWIDTH 45 0
BBX 47 48 7 0
BITMAP
00000000FE00
000000000000
000000000000
000000000000
000000000000
00000007FF00
0000003807E0
0000000001F0
000000000078
00000000007C
00000070003C
00000388003E
00000C00001E
00003000001E
0000C000001E
00010000001E
00060000001E
000C0000001E
00180000001C
00300000001C
00600000003C
00C000000038
01C000000038
038000000078
070000000070
070000000060
0E00000000E0
1E00000000C0
1C00000001C0
3C0000000180
380000000300
380000000600
780000000600
780000000C00
700000001800
F00000003000
F00000006000
F0000000C000
F00000018000
F00000020000
F00000040000
F80000180000
780000200000
7C0000C00000
3E0003000000
1F801C000000
0FFFE0000000
01FE00000000
ENDCHAR
STARTCHAR 014D
ENCODING 333
SWIDTH 236 0
DWIDTH 17 0
BBX 23 24 2 0
BITMAP
003F80
000000
000000
000000
000000
000000
000000
000000
001800
003C00
00DE00
011FFE
021800
0C1800
181800
181800
301000
703000
702000
604000
608000
E08000
730000
7C0000
ENDCHAR
STARTCHAR 014E
ENCODING 334
SWIDTH 625 0
DWIDTH 45 0
BBX 47 51 7 0
BITMAP
000000004000
00000000C080
00000000C100
000000006200
000000003C00
000000000000
000000000000
000000000000
00000007FF00
0000003807E0
0000000001F0
000000000078
00000000007C
00000078003C
00000380003E
00000C00001E
00003000001E
0000C000001E
00010000001E
00020000001E
000C0000001E
00180000001C
00300000001C
00600000003C
00C000000038
01C000000038
038000000078
030000000070
070000000060
0E00000000E0
1E00000000C0
1C00000001C0
3C0000000180
380000000300
380000000600
780000000600
780000000C00
700000001800
F00000003000
F00000006000
F0000000C000
F00000018000
F00000020000
F00000040000
F80000180000
780000200000
7C0000C00000
3E0003000000
1F801C000000
0FFFE0000000
01FE00000000
ENDCHAR
STARTCHAR 014F
ENCODING 335
SWIDTH 236 0
DWIDTH 17 0
BBX 23 26 2 -1
BITMAP
002000
006040
006080
003100
001E00
000000
000000
000000
000000
000000
001800
003C00
00DE00
011FFE
021800
0C1800
181800
181800
301000
703000
702000
604000
608000
E08000
730000
7C0000
ENDCHAR
STARTCHAR 0150
ENCODING 336
SWIDTH 625 0
DWIDTH 45 0
BBX 47 53 7 1
BITMAP
000000000210
000000000230
000000000460
000000000C40
000000001880
000000001100
000000002200
000000000000
000000000000
000000000000
00000007FF00
0000003807E0
0000000001F0
000000000078
00000000007C
00000070003C
00000388003E
00000C00001E
00003000001E
0000C000001E
00010000001E
00060000001E
000C0000001E
00180000001C
00300000001C
00600000003C
00C000000038
01C000000038
038000000078
070000000070
070000000060
0E00000000E0
1E00000000C0
1C00000001C0
3C0000000180
380000000300
380000000600
780000000600
780000000C00
700000001800
F00000003000
F00000006000
F0000000C000
F00000018000
F00000020000
F00000040000
F80000180000
780000200000
7C0000C00000
3E0003000000
1F801C000000
0FFFE0000000
01FE00000000
ENDCHAR
STARTCHAR 0151
ENCODING 337
SWIDTH 236 0
DWIDTH 17 0
BBX 23 28 2 -1
BITMAP
000008
000198
000310
000620
000440
000880
001100
000000
000000
000000
000000
000000
001800
003C00
00DE00
011FFE
021800
0C1800
181800
181800
301000
703000
702000
604000
608000
E08000
730000
7C0000
ENDCHAR
STARTCHAR 0152
ENCODING 338
SWIDTH 1000 0
DWIDTH 72 0
BBX 69 43 7 -2
BITMAP
000000007C0003FC00
00000000FF001FFE00
0000000F0F80703E00
000000F001C1C00E00
0000030000C3000400
00000C000046000400
00003000004C000000
000040000038000000
000180000038000000
000200000030000000
000400000030000000
000800000030000000
001000000030000000
002000000030000000
006000000030000000
00C000000038000000
01800000003C000000
030000000046000000
03000000004FF00000
060000000070000000
0E00000003C0000000
0C0000000480000000
1C0000001880000000
1C0000003100000000
380000006100000000
38000000E200000000
78000001C400000008
70000001C400000008
700000038800000008
F00000039000000010
F0000007A000000020
F0000007C000000020
F00000078000000040
F00000078000000080
F00000078000000100
F800000F8000000200
F8000017C000000C00
78000063C000003000
7C000183E000004000
3E000601F800038000
1F803800FE001C0000
0FFFE0003FFFF00000
01FE000007FF000000
ENDCHAR
STARTCHAR 0153
ENCODING 339
SWIDTH 347 0
DWIDTH 25 0
BBX 25 16 2 0
BITMAP
00101E00
01F06600
02308600
04310400
083A0800
183C3000
103C4000
30398000
707E0080
60700100
60F00200
E0F00400
E1B00800
E1381000
E6386000
781F8000
ENDCHAR
STARTCHAR 0154
ENCODING 340
SWIDTH 652 0
DWIDTH 47 0
BBX 67 63 -1 -9
BITMAP
0000000000000C0000
000000000000180000
000000000000200000
000000000000C00000
000000000181800000
0000000003C2000000
000000000604000000
000000000818000000
000000001020000000
000000001000000000
000000002000000000
000000004000000000
0000001FFFE0000000
000001E0807E000000
00001E00800F800000
000070010007C00000
0001C0020003C00000
000700020001E00000
000E00040001E00000
001C00040001E00000
003800080001E00000
007800080001E00000
007000100001C00000
007000100003C00000
007000200003800000
003000600007800000
00300040000F000000
000000C0001C000000
000000800038000000
0000010000E0000000
000003000700000000
00000200F800000000
000006070000000000
000004070000000000
00000C078000000000
000008078000000000
000018038000000000
000030038000000000
00003003C000000000
00006003C000000000
0000C001C000000000
0000C001E000000000
00018001E000000000
00038000F000000000
00030000F000000000
00060000F000000000
000E00007800000000
001C00007800000000
003800003C00000000
006010003C00000000
0183F0001E00000000
3FFFE0001E00000000
FFFF80000F00000000
000000000F80000000
0000000007C0000000
0000000003C0000000
0000000001E0000000
0000000000F0000000
00000000007C000000
00000000003E000020
00000000001F8001C0
000000000007F01E00
000000000000FFE000
ENDCHAR
STARTCHAR 0155
ENCODING 341
SWIDTH 208 0
DWIDTH 15 0
BBX 24 29 2 0
BITMAP
000003
000006
000008
000030
000060
000080
000300
000400
000800
000000
000010
0000FC
0003FC
00840C
00C804
01B000
01C000
038000
078000
070000
0E0000
0C0000
1C0000
180000
300000
700000
600000
E00000
400000
ENDCHAR
STARTCHAR 0156
ENCODING 342
SWIDTH 652 0
DWIDTH 47 0
BBX 67 63 -1 -14
BITMAP
000000000180000000
0000000003C0000000
000000000600000000
000000000800000000
000000001000000000
000000001000000000
000000002000000000
000000004000000000
0000001FFFE0000000
000001E0807E000000
00001E00800F800000
000070010007C00000
0001C0020003C00000
000700020001E00000
000E00040001E00000
001C00040001E00000
003800080001E00000
007800080001E00000
007000100001C00000
007000100003C00000
007000200003800000
003000600007800000
00300040000F000000
000000C0001C000000
000000800038000000
0000010000E0000000
000003000700000000
00000200F800000000
000006070000000000
000004070000000000
00000C078000000000
000008078000000000
000018038000000000
000030038000000000
00003003C000000000
00006003C000000000
0000C001C000000000
0000C001E000000000
00018001E000000000
00038000F000000000
00030000F000000000
00060000F000000000
000E00007800000000
001C00007800000000
003800003C00000000
006010003C00000000
0183F0001E00000000
3FFFE0001E00000000
FFFF80000F00000000
000000000F80000000
0000000007C0000000
0000006003C0000000
000000E001E0000000
000000E000F0000000
00000060007C000000
00000060003E000020
00000060001F8001C0
000000400007F01E00
000000C00000FFE000
000000800000000000
000001000000000000
000002000000000000
00000C000000000000
ENDCHAR
STARTCHAR 0157
ENCODING 343
SWIDTH 208 0
DWIDTH 15 0
BBX 23 33 1 -14
BITMAP
000008
00007E
0001FE
004206
006402
00D800
00E000
01C000
03C000
038000
070000
060000
0E0000
0C0000
180000
380000
300000
700000
200000
000000
000000
000000
0C0000
0E0000
0E0000
0E0000
0C0000
0C0000
080000
100000
300000
400000
800000
ENDCHAR
STARTCHAR 0158
ENCODING 344
SWIDTH 652 0
DWIDTH 47 0
BBX 67 70 -1 -9
BITMAP
0000000000C0200000
0000000000C0600000
0000000000C0800000
0000000000C1000000
0000000000C2000000
0000000000CC000000
0000000000D0000000
0000000000E0000000
000000000080000000
000000000000000000
000000000000000000
000000000180000000
0000000003C0000000
000000000600000000
000000000800000000
000000001000000000
000000001000000000
000000002000000000
000000004000000000
0000001FFFE0000000
000001E0807E000000
00000E00800F800000
000070010007C00000
0001C0010003C00000
000700020001E00000
000E00020001E00000
001C00040001E00000
003800080001E00000
007800080001E00000
007000100001C00000
007000100003C00000
007000200003800000
003000200007800000
00300040000F000000
000000C0001C000000
000000800038000000
0000018000E0000000
000001000700000000
00000300F800000000
000006070000000000
000004078000000000
00000C078000000000
000008078000000000
000018038000000000
00003003C000000000
00003003C000000000
00006001C000000000
0000E001E000000000
0000C001E000000000
00018000E000000000
00038000F000000000
00030000F000000000
000700007800000000
000E00007800000000
001C00007800000000
003800003C00000000
006010003C00000000
0183F0001E00000000
3FFFE0001F00000000
FFFF80000F00000000
000000000780000000
0000000007C0000000
0000000003E0000000
0000000001F0000000
0000000000F8000000
00000000007C000000
00000000003E000020
00000000001F8000C0
000000000007F01F00
000000000000FFE000
ENDCHAR
STARTCHAR 0159
ENCODING 345
SWIDTH 208 0
DWIDTH 15 0
BBX 22 29 2 0
BITMAP
000600
000604
000608
000610
000620
000640
000680
000700
000400
000000
000010
0000FC
0003FC
00840C
00C804
01B000
01C000
038000
078000
070000
0E0000
0C0000
1C0000
180000
300000
700000
600000
E00000
400000
ENDCHAR
STARTCHAR 015A
ENCODING 346
SWIDTH 583 0
DWIDTH 42 0
BBX 65 79 -8 -26
BITMAP
000000000000000080
000000000000000100
000000000000000600
000000000000000C00
000000000000001800
000000000000002000
000000000000004000
000000000000008000
000000000000030000
000000000000040000
000000000000000000
000000000000000000
000000000000000000
0000000000003E0000
000000000000FF0000
000000000003070000
000000000004060000
0000000000080C0000
000000000010180000
000000000020200000
000000000020400000
000000000041800000
000000000042000000
000000000044000000
0000000000D8000000
0000000000E0000000
0000000000C0000000
0000000000C0000000
0000000001E0000000
0000000002E0000000
000000000CE0000000
0000000010E0000000
0000000020E0000000
0000000040E0000000
0000000180F0000000
0000000200F0000000
0000000400F0000000
0000000800F0000000
0000003000F0000000
0002004000F0000000
0002008000F0000000
0002010000F0000000
0006020000F0000000
00060C0000F0000000
0006100000F0000000
000E200000E0000000
000E400000E0000000
000E800001E0000000
000F000001C0000000
000E00000180000000
000F00000380000000
001F80000300000000
0039C0000600000000
0070E0000C00000000
006038003000000000
00C01F00C000000000
018003FF0000000000
038000000000000000
070000000000000000
060000000000000000
0E0000000000000000
1C0000000000000000
180000000000000000
380000000000000000
300000000000000000
700000000000000000
700000000000000000
600000000000000000
E00000000000000000
E00000000000000000
C00000000000000000
C00000000000000000
C00000000000000000
C00000000000000000
400000000000000000
400000000000000000
400000000000000000
200000000000000000
1C0000000000000000
ENDCHAR
STARTCHAR 015B
ENCODING 347
SWIDTH 180 0
DWIDTH 13 0
BBX 35 40 -11 -10
BITMAP
0000000060
0000000080
0000000300
0000000600
0000000800
0000001000
0000006000
0000008000
0000010000
0000000000
0000000000
0000000000
000001E000
0000060000
0000080000
0000180000
0000180000
0000300000
0000300000
0000300000
0000300000
0000700000
0000700000
0000700000
0000700000
0000700000
0000600000
0000600000
0000E00000
0000E00000
0000C00000
0000C00000
0001800000
0001000000
0002000000
0004000000
8008000000
4010000000
6060000000
3F80000000
ENDCHAR
STARTCHAR 015C
ENCODING 348
SWIDTH 583 0
DWIDTH 42 0
BBX 59 79 -8 -25
BITMAP
0000000000000020
00000000000000E0
0000000000000160
0000000000000260
0000000000000460
0000000000000860
0000000000001060
0000000000002060
0000000000000060
0000000000000000
0000000000000000
0000000000000000
0000000000000000
0000000000003E00
000000000000FF00
0000000000030700
0000000000040600
0000000000080C00
0000000000101800
0000000000202000
0000000000204000
0000000000418000
0000000000420000
0000000000440000
0000000000D80000
0000000000E00000
0000000000C00000
0000000000C00000
0000000001E00000
0000000002E00000
000000000CE00000
0000000010E00000
0000000020E00000
0000000040E00000
0000000180F00000
0000000200F00000
0000000400F00000
0000000800F00000
0000003000F00000
0002004000F00000
0002008000F00000
0002010000F00000
0006020000F00000
00060C0000F00000
0006100000F00000
000E200000E00000
000E400000E00000
000E800001E00000
000F000001C00000
000E000001800000
000F000003800000
001F800003000000
0039C00006000000
0070E0000C000000
0060380030000000
00C01F00C0000000
018003FF00000000
0380000000000000
0700000000000000
0600000000000000
0E00000000000000
1C00000000000000
1800000000000000
3800000000000000
3000000000000000
7000000000000000
7000000000000000
6000000000000000
E000000000000000
E000000000000000
C000000000000000
C000000000000000
C000000000000000
C000000000000000
4000000000000000
4000000000000000
4000000000000000
2000000000000000
1C00000000000000
ENDCHAR
STARTCHAR 015D
ENCODING 349
SWIDTH 180 0
DWIDTH 13 0
BBX 30 39 -11 -10
BITMAP
00000020
00000060
000000B0
00000130
00000238
0000023C
0000043C
0000083C
00000030
00000000
00000000
000001E0
00000600
00000800
00001800
00001800
00003000
00003000
00003000
00003000
00007000
00007000
00007000
00007000
00007000
00006000
00006000
0000E000
0000E000
0000C000
0000C000
00018000
00010000
00020000
00040000
80080000
40100000
60600000
3F800000
ENDCHAR
STARTCHAR 015E
ENCODING 350
SWIDTH 583 0
DWIDTH 42 0
BBX 56 66 -8 -26
BITMAP
0000000000003E
000000000000FF
00000000000307
00000000000406
0000000000080C
00000000001018
00000000002020
00000000002040
00000000004180
00000000004200
00000000004400
0000000000D800
0000000000E000
0000000000C000
0000000000C000
0000000001E000
0000000002E000
000000000CE000
0000000010E000
0000000020E000
0000000040E000
0000000180F000
0000000200F000
0000000400F000
0000000800F000
0000003000F000
0002004000F000
0002008000F000
0002010000F000
0006020000F000
00060C0000F000
0006100000F000
000E200000E000
000E400000E000
000E800001E000
000F000001C000
000E0000018000
000F0000038000
001F8000030000
0039C000060000
0070E0000C0000
00603800100000
00C01F00C00000
018003FF000000
03800004000000
07000008000000
0600001C000000
0E00001E000000
1C000006000000
18000004000000
38000008000000
30000010000000
700000E0000000
70000000000000
60000000000000
E0000000000000
E0000000000000
C0000000000000
C0000000000000
C0000000000000
C0000000000000
40000000000000
40000000000000
40000000000000
20000000000000
1C000000000000
ENDCHAR
STARTCHAR 015F
ENCODING 351
SWIDTH 180 0
DWIDTH 13 0
BBX 27 37 -11 -19
BITMAP
000001E0
00000600
00000800
00001800
00001800
00003000
00003000
00003000
00003000
00007000
00007000
00007000
00007000
00007000
00006000
00006000
0000E000
0000E000
0000C000
0000C000
00018000
00010000
00020000
00040000
80080000
40100000
60600000
3F800000
02000000
04000000
0F000000
07800000
01800000
02000000
0C000000
30000000
C0000000
ENDCHAR
STARTCHAR 0160
ENCODING 352
SWIDTH 583 0
DWIDTH 42 0
BBX 60 79 -8 -26
BITMAP
0000000000000400
0000000000000C10
0000000000000C20
0000000000000C40
0000000000000C80
0000000000000D00
0000000000000D00
0000000000000E00
0000000000000C00
0000000000000000
0000000000000000
0000000000000000
0000000000000000
0000000000007C00
000000000001FC00
0000000000060C00
0000000000080800
0000000000101000
0000000000102000
0000000000204000
0000000000208000
0000000000410000
0000000000420000
0000000000CC0000
0000000000D00000
0000000000E00000
0000000000C00000
0000000000C00000
0000000001E00000
0000000002E00000
000000000CE00000
0000000010E00000
0000000020E00000
0000000040E00000
0000000180F00000
0000000200F00000
0000000400F00000
0000000800F00000
0000003000F00000
0002004000F00000
0002008000F00000
0002010000F00000
0006020000F00000
00060C0000F00000
0006100000F00000
000E200000E00000
000E400000E00000
000E800001E00000
000F000001C00000
000E000001800000
000F000003800000
001F800003000000
0039C00006000000
0070E0000C000000
0060380030000000
00C01F00C0000000
018003FF00000000
0380000000000000
0700000000000000
0600000000000000
0E00000000000000
1C00000000000000
1800000000000000
3800000000000000
3000000000000000
7000000000000000
7000000000000000
6000000000000000
E000000000000000
E000000000000000
C000000000000000
C000000000000000
C000000000000000
C000000000000000
4000000000000000
4000000000000000
4000000000000000
2000000000000000
1C00000000000000
ENDCHAR
STARTCHAR 0161
ENCODING 353
SWIDTH 180 0
DWIDTH 13 0
BBX 32 40 -11 -11
BITMAP
00000040
000000C1
000000C2
000000C4
000000C8
000000D0
000000E0
000000C0
00000080
00000000
00000000
00000000
000003C0
00000440
00001800
00001800
00003800
00007000
00007000
00007000
00007000
00007000
00007000
0000F000
0000F000
0000F000
0000E000
0000E000
0000E000
0000E000
0001C000
0001C000
00018000
00030000
00020000
00040000
80080000
40100000
60600000
3F800000
ENDCHAR
STARTCHAR 0162
ENCODING 354
SWIDTH 777 0
DWIDTH 56 0
BBX 68 60 4 -15
BITMAP
000000000000003FE0
00000000000001C0F0
000000000000060030
000000000000380020
0000000000004000C0
00000FFFFFFFFFFF80
0000700001FFFFFE00
00018000001FFFF800
000200000030000000
000C000000C0000000
001000000100000000
002000000200000000
004000000C00000000
008000001000000000
010000006000000000
01000000C000000000
020000018000000000
060000030000000000
0C00000E0000000000
0C00001C0000000000
180000380000000000
180000700000000000
300000E00000000000
300001C00000000000
700003C00000000000
600003800000000000
E00007000000000000
60000F000000010000
40000E000000010000
40001E000000010000
00001C000000010000
00003C000000030000
000038000000060000
000078000000060000
0000780000000C0000
000070000000180000
000070000000300000
000070000000600000
000070000000C00000
000030000003000000
000030000006000000
000018000018000000
00000C000060000000
000006000380000000
000003801C00000000
0000007FC000000000
000000000000000000
000000000000000000
000000000000000000
000000600000000000
000000E00000000000
000000600000000000
000000600000000000
000000600000000000
000000600000000000
000000C00000000000
000000800000000000
000001000000000000
000006000000000000
000008000000000000
ENDCHAR
STARTCHAR 0163
ENCODING 355
SWIDTH 208 0
DWIDTH 15 0
BBX 22 40 3 -13
BITMAP
000100
000200
000400
000800
000800
001000
002000
004000
004000
008000
018000
3FFFFC
030000
060000
040000
0C0000
180000
180000
380000
300000
700000
700000
E00000
E01000
F0E000
7F0000
000000
000000
000000
0C0000
1C0000
0C0000
0C0000
0C0000
0C0000
180000
100000
200000
400000
800000
ENDCHAR
STARTCHAR 0164
ENCODING 356
SWIDTH 777 0
DWIDTH 56 0
BBX 68 53 4 -1
BITMAP
000000000001810000
000000000001820000
000000000001840000
000000000001880000
000000000001900000
000000000001A00000
000000000001C00000
000000000001003FE0
00000000000001C0F0
0000000000000E0030
000000000000300020
000000000000C000C0
00000FFFFFFFFFFF80
0000700001FFFFFE00
00018000001FFFF800
000200000030000000
000C00000040000000
001000000180000000
002000000200000000
004000000C00000000
008000001000000000
010000006000000000
01000000C000000000
020000018000000000
060000030000000000
0C00000E0000000000
0C00001C0000000000
180000380000000000
180000700000000000
300000E00000000000
300001C00000000000
700003C00000000000
600003800000000000
E00007000000000000
60000F000000010000
40000E000000010000
40001E000000010000
00001C000000010000
00003C000000030000
000038000000060000
000078000000060000
0000780000000C0000
000070000000180000
000070000000300000
000070000000600000
000070000000C00000
000030000003000000
000030000006000000
000018000018000000
00000C000060000000
000006000380000000
000003801C00000000
0000007FC000000000
ENDCHAR
STARTCHAR 0165
ENCODING 357
SWIDTH 222 0
DWIDTH 16 0
BBX 22 30 3 -1
BITMAP
000010
000038
000038
000018
000118
000210
000430
000820
000840
001080
002300
004000
004000
008000
018000
3FFFFC
030000
060000
040000
0C0000
180000
180000
380000
300000
700000
700000
E00000
E01000
F0E000
7F0000
ENDCHAR
STARTCHAR 0166
ENCODING 358
SWIDTH 777 0
DWIDTH 56 0
BBX 67 46 7 -3
BITMAP
000000000000007FC0
0000000000000383E0
0000000000001C0060
000000000000E000C0
000000FFFFFFFFFF00
00001F0007FFFFFC00
0000E0000020000000
0003000000C0000000
000C00000100000000
001000000600000000
002000000800000000
004000003000000000
008000006000000000
010000018000000000
030000030000000000
060000060000000000
0C00000C0000000000
0C0000380000000000
18003FFFF000000000
380000F00000000000
300001E00000000000
700001C00000000000
600003800000000000
E00007800000000000
E0000F000000000000
C0000F000000000000
C0001E000000000000
40001C000000020000
80003C000000020000
00003C000000020000
000078000000040000
000078000000040000
000078000000080000
000070000000180000
0000F0000000300000
0000F0000000200000
0000F0000000400000
000070000001800000
000070000003000000
000070000004000000
000030000018000000
000038000020000000
00001C0000C0000000
000006000700000000
000001807800000000
0000007F8000000000
ENDCHAR
STARTCHAR 0167
ENCODING 359
SWIDTH 208 0
DWIDTH 15 0
BBX 22 26 2 0
BITMAP
000100
000200
000200
000400
000800
000800
001000
002000
006000
004000
008000
3FFFFC
010000
030000
060000
0C0000
FFFFE0
1C0000
180000
380000
300000
700000
700400
701800
79E000
3E0000
ENDCHAR
STARTCHAR 0168
ENCODING 360
SWIDTH 722 0
DWIDTH 52 0
BBX 63 54 5 -3
BITMAP
0000000001804000
0000000006E04000
0000000008704000
0000000010388000
00000000201F003E
00000000200E00FC
0000000000000300
1000000000000400
3000000000000800
7000000000001000
7000001800002000
F000003000004000
F000006000008000
F800008000008000
FC00070000010000
FF007C0000020000
7FFF880000020000
3FF0100000040000
0000200000080000
0000400000080000
0000800000100000
0001000000100000
0002000000200000
0004000000200000
0008000000400000
0010000000C00000
0020000000800000
0040000001800000
00C0000001000000
0180000003000000
0100000002000000
0300000006000000
060000000C000000
0E0000000C000000
0C0000001C000000
1C00000018000000
3800000038000000
3800000078000000
78000000F0000000
70000001F0000000
70000007F0000000
F0000009F0000200
F0000031E0000400
F0000041E0000800
F0000081E0001000
F8000301E0002000
F8000C01E0004000
7C003001E0008000
7F00C001E0010000
3FFF0001E0060000
1FE00001F0080000
00000001F8600000
00000000FF800000
000000003E000000
ENDCHAR
STARTCHAR 0169
ENCODING 361
SWIDTH 250 0
DWIDTH 18 0
BBX 23 30 2 -4
BITMAP
000C00
003F02
004382
0081C4
0100F8
000020
000000
000000
000000
000000
000000
00C000
01C000
018200
030600
070600
060C00
0C1800
0C1800
183000
187000
30E000
316000
626000
64C000
F8C000
61C000
01C080
01C300
01FC00
ENDCHAR
STARTCHAR 016A
ENCODING 362
SWIDTH 722 0
DWIDTH 52 0
BBX 63 50 5 -2
BITMAP
0000000003F8003C
0000000003F000FE
0000000000000300
1000000000000400
3000000000000800
7000000000001000
7000001800002000
F000003000004000
F000006000008000
F800008000008000
FC00070000010000
FF007C0000020000
7FFF880000020000
3FF0100000040000
0000200000080000
0000400000080000
0000800000100000
0001000000100000
0002000000200000
0004000000200000
0008000000400000
0010000000C00000
0020000000800000
0040000001800000
00C0000001000000
0180000003000000
0100000002000000
0300000006000000
060000000C000000
0E0000000C000000
0C0000001C000000
1C00000018000000
3800000038000000
3800000078000000
78000000F0000000
70000001F0000000
70000007F0000000
F0000009F0000200
F0000031E0000400
F0000041E0000800
F0000081E0001000
F8000301E0002000
F8000C01E0004000
7C003001E0008000
7F00C001E0010000
3FFF0001E0060000
1FE00001F0080000
00000001F8600000
00000000FF800000
000000003E000000
ENDCHAR
STARTCHAR 016B
ENCODING 363
SWIDTH 250 0
DWIDTH 18 0
BBX 18 27 2 -3
BITMAP
000FC0
000000
000000
000000
000000
000000
000000
000000
00C000
01C000
018200
030600
070600
060C00
0C1800
0C1800
183000
187000
30E000
316000
626000
64C000
F8C000
61C000
01C080
01C300
01FC00
ENDCHAR
STARTCHAR 016C
ENCODING 364
SWIDTH 722 0
DWIDTH 52 0
BBX 63 52 5 -2
BITMAP
0000000006040000
00000000071C0000
0000000003F8003E
0000000001E000FC
1000000000000300
3000000000000400
3000000000000800
7000000000001000
7000001800002000
F000003000004000
F000006000008000
F800008000008000
FC00070000010000
FF007C0000020000
7FFF880000020000
3FF0100000040000
0000200000080000
0000400000080000
0000800000100000
0001000000100000
0002000000200000
0004000000200000
0008000000400000
0010000000C00000
0020000000800000
0040000001800000
00C0000001000000
0180000003000000
0100000002000000
0300000006000000
060000000C000000
0E0000000C000000
0C0000001C000000
1C00000018000000
3800000038000000
3800000078000000
78000000F0000000
70000001F0000000
70000007F0000000
F0000009F0000200
F0000031E0000400
F0000041E0000800
F0000081E0001000
F8000301E0002000
F8000C01E0004000
7C003001E0008000
7F00C001E0010000
3FFF0001E0060000
1FE00001F0080000
00000001F8600000
00000000FF800000
000000003E000000
ENDCHAR
STARTCHAR 016D
ENCODING 365
SWIDTH 250 0
DWIDTH 18 0
BBX 20 29 2 -4
BITMAP
000800
001810
001820
000C40
000780
000000
000000
000000
000000
000000
00C000
01C000
018200
030600
070600
060C00
0C1800
0C1800
183000
187000
30E000
316000
626000
64C000
F8C000
61C000
01C080
01C300
01FC00
ENDCHAR
STARTCHAR 016E
ENCODING 366
SWIDTH 722 0
DWIDTH 52 0
BBX 63 55 5 -3
BITMAP
0000000001F00000
00000000020800FC
00000000040801FE
00000000040803FE
00000000040807FE
0000000004100FFE
0000000006101FFC
0000000003603FF8
1000000000803E00
3000000000007C00
300000000000F000
700000080000F000
700000180001E000
F00000300003C000
F80000C000038000
FC00030000070000
FF007E0000070000
7FFF8400000E0000
3FF01800001C0000
00002000001C0000
0000400000380000
0000800000380000
0001000000700000
0002000000600000
0004000000E00000
0008000000C00000
0010000001C00000
0020000001800000
0060000003800000
00C0000003000000
0180000007000000
0100000006000000
030000000E000000
060000000E000000
0E0000001C000000
0C0000003C000000
1C0000003C000000
3800000078000000
38000000F8000000
38000001F8000000
70000003F0000000
7000000DF0000000
F0000011F0000200
F0000021F0000400
F00000C1E0000800
F0000101E0001000
F8000201E0002000
F8000C01E0004000
FC003001E0008000
7F01C001E0010000
3FFE0001E0060000
1FE00001F0080000
00000001F8600000
00000000FF800000
000000003E000000
ENDCHAR
STARTCHAR 016F
ENCODING 367
SWIDTH 250 0
DWIDTH 18 0
BBX 21 32 2 -3
BITMAP
0003F0
000418
000808
000808
000810
000810
000420
0003C0
000000
000000
000000
000000
000000
00C000
01C000
018200
030600
070600
060C00
0C1800
0C1800
183000
187000
30E000
316000
626000
64C000
F8C000
61C000
01C080
01C300
01FC00
ENDCHAR
STARTCHAR 0170
ENCODING 368
SWIDTH 722 0
DWIDTH 52 0
BBX 63 54 5 -2
BITMAP
0000000000620000
0000000000C60000
00000000008C0000
0000000001180000
000000000620003E
00000000004000FC
0000000000000300
1000000000000400
3000000000000800
7000000000001000
7000001800002000
F000003000004000
F000006000008000
F800008000008000
FC00070000010000
FF007C0000020000
7FFF880000020000
3FF0100000040000
0000200000080000
0000400000080000
0000800000100000
0001000000100000
0002000000200000
0004000000200000
0008000000400000
0010000000C00000
0020000000800000
0040000001800000
00C0000001000000
0180000003000000
0100000002000000
0300000006000000
060000000C000000
0E0000000C000000
0C0000001C000000
1C00000018000000
3800000038000000
3800000078000000
78000000F0000000
70000001F0000000
70000007F0000000
F0000009F0000200
F0000031E0000400
F0000041E0000800
F0000081E0001000
F8000301E0002000
F8000C01E0004000
7C003001E0008000
7F00C001E0010000
3FFF0001E0060000
1FE00001F0080000
00000001F8600000
00000000FF800000
000000003E000000
ENDCHAR
STARTCHAR 0171
ENCODING 369
SWIDTH 250 0
DWIDTH 18 0
BBX 22 31 2 -4
BITMAP
000080
00008C
000118
000230
000420
000840
001080
000000
000000
000000
000000
000000
00C000
01C000
018200
030600
070600
060C00
0C1800
0C1800
183000
187000
30E000
316000
626000
64C000
F8C000
61C000
01C080
01C300
01FC00
ENDCHAR
STARTCHAR 0172
ENCODING 370
SWIDTH 722 0
DWIDTH 52 0
BBX 63 57 4 -9
BITMAP
000000000000001E
00000000000000FE
0000000000000100
4000000000000200
4000000000000400
4000000000000800
C000000C00001000
C000001800002000
E000006000004000
E00000800000C000
F000070000008000
FC007E0000010000
7FFF880000030000
3FF0100000020000
0000200000040000
0000C000000C0000
0001000000080000
0002000000180000
0004000000300000
0008000000300000
0010000000600000
0020000000E00000
0040000000C00000
0080000001C00000
0100000001800000
0100000003800000
0200000007000000
0400000007000000
040000000E000000
080000000E000000
100000001E000000
100000003C000000
200000007C000000
200000007C000000
60000000F8000000
60000003F8000000
40000004F8000000
C0000018F8000100
C0000020F0000200
C0000040F0000400
C0000080F0000800
E0000300F0001000
E0000C00F0002000
70003000F0004000
7C01C000F0008000
3FFE0000F0030000
1FF00000F8040000
00000000FC300000
000000007FC00000
000000001F000000
000000000C000000
0000000038000000
0000000070000000
00000000F0000000
00000000F0000000
00000000F8000000
000000003E000000
ENDCHAR
STARTCHAR 0173
ENCODING 371
SWIDTH 250 0
DWIDTH 18 0
BBX 17 27 2 -11
BITMAP
00C000
01C000
018200
030600
070600
060C00
0C1800
0C1800
183000
187000
30E000
316000
626000
64C000
F8C000
61C000
01C080
01C300
01FC00
010000
020000
0C0000
180000
300000
300000
380000
1F0000
ENDCHAR
STARTCHAR 0174
ENCODING 372
SWIDTH 986 0
DWIDTH 71 0
BBX 92 64 0 -5
BITMAP
000000000000020000000000
0000000000000E0000000000
000000000000160000000000
000000000000260000000000
000000000000460000000000
000000000000860000000000
000000000001060000000000
000000000002060000000000
000000000000040000000000
000000000000000000000000
000000000000000000000000
000000000000000000000000
00000000000001FFFFE00000
00000000000007FFFFFF8000
000000000000000200007800
0000000000000001C0000600
000000000000000020000180
000000000000000030000040
000000000000000018000040
0000003FC000000018000020
00000FFF800000001C000020
00007FFF800000000C000010
0003FF01000000000E000010
000FE002000000000E000010
001E0004000000000E000010
00700004000000000E000010
00C00008000000000E000030
03000010000000000E000030
04000010000000000E000020
08000020000000000E000020
10000040000000000E000040
20000040000000000E000040
20000080000000000C000080
40000100000000001C000080
40000300000000001C000100
80000200000000001C000300
80000400000000001C000200
80000C000000000018000400
800018000E00000038000800
800010001E00000038000800
800030007E00000030001000
80006000FE00000070002000
8000E0018E00000060004000
8000C0020E00000060008000
0001C0040E000000C0010000
000380080E000000C0040000
000380100600000180080000
000700200600000180300000
000700400700000300400000
000E00800700000300000000
000E01000700000600000000
001C02000700000400000000
001C04000700000C00000000
003C08000700000800000000
003810000700001000000000
003820000700002000000000
003840000700004000000000
003880000780008000000000
001F00000780010000000000
0000000003C0020000000000
0000000003C0040000000000
0000000001E0180000000000
0000000001F8200000000000
00000000007FC00000000000
ENDCHAR
STARTCHAR 0175
ENCODING 373
SWIDTH 347 0
DWIDTH 25 0
BBX 31 29 3 0
BITMAP
00001000
00007000
0000B000
00013000
00023000
00043000
00083000
00103000
00003000
00000000
00000000
00000000
00001000
00403000
01803000
03003800
060C1802
0E0C1804
0C1C3C08
18182630
183021C0
30702000
30604000
60E04000
61C08000
62C10000
E4C10000
E8C60000
F0780000
ENDCHAR
STARTCHAR 0176
ENCODING 374
SWIDTH 361 0
DWIDTH 26 0
BBX 42 63 2 -13
BITMAP
000000002000
000000006000
00000001E000
000000026000
000000046000
000000086000
000000106000
000000606000
000000406000
000000000000
001F80000180
007FE00001C0
0183F00001C0
0600F00001C0
0800780001C0
1000780001C0
2000380001C0
60003C0001C0
60003C0001C0
C0001C000180
C0001C000180
C0001C000300
C0001C000200
00001C000400
00001C000C00
00001C001800
00001C001000
00001C002000
00001C004000
00001C018000
00001C030000
000018060000
0000180C0000
000038300000
000038600000
000038C00000
00003B000000
00003E000000
00007C000000
00007C000000
0000E0000000
000300000000
000400000000
000800000000
001000000000
002000000000
004000000000
008000000000
030000000000
020000000000
040000000000
080000000000
180000000000
300000000000
300000000000
600000000000
600000000000
E00000000000
C00000000000
C00000000000
C00000000000
400000000000
400000000000
ENDCHAR
STARTCHAR 0177
ENCODING 375
SWIDTH 250 0
DWIDTH 18 0
BBX 36 68 -14 -40
BITMAP
0000000010
0000000070
00000000B0
0000000330
0000000430
0000001830
0000002030
0000008030
0000010030
0000000000
0000000000
0000000000
0000000030
0000000070
0000000060
00001C00C0
00001C0180
00001C0300
0000180700
0000380E00
0000381C00
0000383800
0000307000
000030E000
000071C000
0000738000
0000770000
00007E0000
00007E0000
00000C0000
0000180000
0000100000
0000200000
0000600000
0000C00000
0000800000
0001000000
0002000000
0006000000
0004000000
0008000000
0010000000
0030000000
0020000000
0040000000
00C0000000
0080000000
0100000000
0300000000
0200000000
0600000000
0C00000000
0C00000000
1800000000
3800000000
3000000000
7000000000
7000000000
6000000000
E000000000
E000000000
E000000000
E000000000
E000000000
E000000000
6000000000
3000000000
1000000000
ENDCHAR
STARTCHAR 0178
ENCODING 376
SWIDTH 361 0
DWIDTH 26 0
BBX 42 60 2 -13
BITMAP
0000000C6000
0000001CE000
0000001CE000
00000018C000
000000000000
000000000000
000000000000
001F80000180
007FE00001C0
0183F00001C0
0600F00001C0
0800780001C0
1000780001C0
2000380001C0
60003C0001C0
60003C0001C0
C0001C000180
C0001C000180
C0001C000300
C0001C000200
00001C000400
00001C000C00
00001C001800
00001C001000
00001C002000
00001C004000
00001C018000
00001C030000
000018060000
0000180C0000
000038300000
000038600000
000038C00000
00003B000000
00003E000000
00007C000000
00007C000000
0000E0000000
000300000000
000400000000
000800000000
001000000000
002000000000
004000000000
008000000000
030000000000
020000000000
040000000000
080000000000
180000000000
300000000000
300000000000
600000000000
600000000000
E00000000000
C00000000000
C00000000000
C00000000000
400000000000
400000000000
ENDCHAR
STARTCHAR 0179
ENCODING 377
SWIDTH 555 0
DWIDTH 40 0
BBX 57 60 10 -7
BITMAP
0000000000800000
0000000001800000
0000000003000000
0000000004000000
0000000018000000
0000000030000000
0000000040000000
0000000080000000
0000000300000000
00000004000E0000
00000000000E0000
00000000000C0000
0000000000080000
0000FE0000100000
0001FFFF00600000
0003FFFFFFC00000
0004000000800000
0008000001000000
0008000002000000
0010000004000000
0020000008000000
0020000010000000
0040000020000000
0040000040000000
0080000080000000
0000000100000000
0000000400000000
0000000800000000
0000001000000000
0000002000000000
0000004000000000
0000008000000000
0003FFFFFF000000
0000020000000000
0000080000000000
0000100000000000
0000200000000000
0000400000000000
0000800000000000
0003000000000000
0004000000000000
0008000000000000
0410000000000000
0660000000000000
0F80000000000000
0FC0000000000000
0FE0000000000000
0FF8000000000000
11FC000000000000
607F000000000000
801FC00000000000
000FF00000000000
0003FC0000000000
0000FF0000000080
00001FE000000100
000007F800000100
000000FF00000600
0000003FE0000800
00000003FF007000
000000001FFF8000
ENDCHAR
STARTCHAR 017A
ENCODING 378
SWIDTH 263 0
DWIDTH 19 0
BBX 42 38 -2 -10
BITMAP
000000040000
000000180000
000000300000
000000600000
000000800000
000001000000
000004000000
000008000000
000010000000
000000000000
000000000000
000000000000
001FFF800000
003FFF000000
007FFE000000
00000C000000
000018000000
000020000000
000040000000
000180000000
000300000000
000600000000
000C00000000
3FF000000000
C3F800000000
C1FC00000000
C07F00000000
3FFF80000000
003FE0000000
000FF0000000
0003F8000000
0001FE000000
00007F000000
00001FC00000
000007F00040
000001F80080
0000007F0700
00000007F800
ENDCHAR
STARTCHAR 017B
ENCODING 379
SWIDTH 555 0
DWIDTH 40 0
BBX 57 55 10 -7
BITMAP
0000000180000000
0000000380000000
0000000300000000
0000000000020000
00000000000E0000
00000000000E0000
00000000000C0000
0000000000080000
0001FE0000100000
0003FFFF00600000
0003FFFFFFC00000
0007FFFFFD800000
000C000002000000
0008000004000000
0010000008000000
0020000010000000
0020000020000000
0040000040000000
0080000080000000
0080000100000000
0000000200000000
0000000400000000
0000000800000000
0000001000000000
0000002000000000
0000004000000000
0000018000000000
0003FFFFFF000000
0000040000000000
0000080000000000
0000100000000000
0000200000000000
0000800000000000
0001000000000000
0002000000000000
0004000000000000
0018000000000000
0820000000000000
0C40000000000000
0F80000000000000
0F80000000000000
0FE0000000000000
0FF0000000000000
31FC000000000000
407F000000000000
803FC00000000000
000FF00000000000
0003FC0000000000
0000FF0000000080
00003FC000000100
00000FF800000100
000001FF00000400
0000003FE0000800
00000003FF007000
000000001FFF8000
ENDCHAR
STARTCHAR 017C
ENCODING 380
SWIDTH 263 0
DWIDTH 19 0
BBX 42 35 -2 -10
BITMAP
00000C000000
00001C000000
000018000000
000000000000
000000000000
000000000000
000000000000
000000000000
000000000000
003FFF000000
007FFE000000
00FFFC000000
000018000000
000030000000
000060000000
0000C0000000
000180000000
000300000000
000600000000
000C00000000
3FF000000000
C3F800000000
C1FC00000000
C07F00000000
3FFF80000000
003FE0000000
000FF0000000
0003F8000000
0001FE000000
00007F000000
00001FC00000
000007E00040
000001F80180
0000007F0600
00000007F800
ENDCHAR
STARTCHAR 017D
ENCODING 381
SWIDTH 555 0
DWIDTH 40 0
BBX 57 59 10 -7
BITMAP
0000000100000000
0000000301000000
0000000302000000
0000000304000000
0000000318000000
0000000320000000
0000000340000000
0000000380000000
00000003000E0000
00000000000E0000
00000000000C0000
0000000000080000
0001FE0000100000
0003FFFF00600000
0003FFFFFFC00000
0007FFFFFC800000
000C000001000000
0008000002000000
0010000004000000
0020000008000000
0020000010000000
0040000020000000
0080000080000000
0080000100000000
0000000200000000
0000000400000000
0000000800000000
0000001000000000
0000002000000000
0000004000000000
0000008000000000
0003FFFFFF000000
0000040000000000
0000080000000000
0000100000000000
0000200000000000
0000400000000000
0001000000000000
0002000000000000
0004000000000000
0018000000000000
0820000000000000
0C40000000000000
0F80000000000000
0F80000000000000
0FE0000000000000
0BF0000000000000
31FC000000000000
407F000000000000
803FC00000000000
000FF00000000000
0003FC0000000000
0000FF0000000080
00003FC000000100
000007F800000100
000001FF00000600
0000003FE0000800
00000003FF007000
000000001FFF8000
ENDCHAR
STARTCHAR 017E
ENCODING 382
SWIDTH 263 0
DWIDTH 19 0
BBX 42 38 -2 -10
BITMAP
000020000000
000060600000
000060400000
000061800000
000062000000
000064000000
000068000000
000070000000
000060000000
000000000000
000000000000
000000000000
001FFF000000
003FFE000000
007FFC000000
000018000000
000030000000
000060000000
0000C0000000
000180000000
000300000000
000400000000
001800000000
3FF000000000
C7F000000000
C1FC00000000
C0FE00000000
3FFF80000000
003FC0000000
000FF0000000
0007F8000000
0001FC000000
00007F000000
00003F800000
00000FE00040
000003F80180
0000007E0600
00000007F800
ENDCHAR
STARTCHAR 0192
ENCODING 402
SWIDTH 361 0
DWIDTH 26 0
BBX 43 41 -7 -9
BITMAP
0000000003E0
000000000FC0
000000001000
000000006000
000000004000
000000008000
000000010000
000000030000
000000060000
000000060000
0000000C0000
000000180000
000000380000
000000300000
000000700000
000000600000
000000E00000
00001FFF8000
000001C00000
000003800000
000003800000
000007000000
000006000000
00000E000000
00001C000000
000018000000
000038000000
000030000000
000070000000
0000E0000000
0000C0000000
000180000000
000180000000
000300000000
000600000000
000400000000
000800000000
401000000000
C02000000000
F0C000000000
7F0000000000
ENDCHAR
STARTCHAR 0218
ENCODING 536
SWIDTH 583 0
DWIDTH 42 0
BBX 56 66 -8 -26
BITMAP
0000000000003E
000000000000FF
00000000000307
00000000000406
0000000000080C
00000000001018
00000000002020
00000000002040
00000000004180
00000000004200
00000000004400
0000000000D800
0000000000E000
0000000000C000
0000000000C000
0000000001E000
0000000002E000
000000000CE000
0000000010E000
0000000020E000
0000000040E000
0000000180F000
0000000200F000
0000000400F000
0000000800F000
0000003000F000
0002004000F000
0002008000F000
0002010000F000
0006020000F000
00060C0000F000
0006100000F000
000E200000E000
000E400000E000
000E800001E000
000F000001C000
000E0000018000
000F0000038000
001F8000030000
0039C000060000
0070E0000C0000
00603800300000
00C01F00C00000
018003FF000000
03800000000000
07000000000000
06000000000000
0E000060000000
1C0000E0000000
18000060000000
38000060000000
30000060000000
70000060000000
700000C0000000
60000080000000
E0000100000000
E0000200000000
C0000C00000000
C0000000000000
C0000000000000
C0000000000000
40000000000000
40000000000000
40000000000000
20000000000000
1C000000000000
ENDCHAR
STARTCHAR 0219
ENCODING 537
SWIDTH 180 0
DWIDTH 13 0
BBX 27 38 -11 -20
BITMAP
000001E0
00000600
00000800
00001800
00001800
00003000
00003000
00003000
00003000
00007000
00007000
00007000
00007000
00007000
00006000
00006000
0000E000
0000E000
0000C000
0000C000
00018000
00010000
00020000
00040000
80080000
40100000
60600000
3F800000
00060000
00070000
00030000
00030000
00060000
00040000
000C0000
00080000
00300000
00400000
ENDCHAR
STARTCHAR 021A
ENCODING 538
SWIDTH 777 0
DWIDTH 56 0
BBX 68 60 4 -15
BITMAP
000000000000003FE0
00000000000001C0F0
000000000000060030
000000000000380020
0000000000004000C0
00000FFFFFFFFFFF80
0000700001FFFFFE00
00018000001FFFF800
000200000030000000
000C000000C0000000
001000000100000000
002000000200000000
004000000C00000000
008000001000000000
010000006000000000
01000000C000000000
020000018000000000
060000030000000000
0C00000E0000000000
0C00001C0000000000
180000380000000000
180000700000000000
300000E00000000000
300001C00000000000
700003C00000000000
600003800000000000
E00007000000000000
60000F000000010000
40000E000000010000
40001E000000010000
00001C000000010000
00003C000000030000
000038000000060000
000078000000060000
0000780000000C0000
000070000000180000
000070000000300000
000070000000600000
000070000000C00000
000030000003000000
000030000006000000
000018000018000000
00000C000060000000
000006000380000000
000003801C00000000
0000007FC000000000
000000000000000000
000000000000000000
000000000000000000
000000600000000000
000000E00000000000
000000600000000000
000000600000000000
000000600000000000
000000600000000000
000000C00000000000
000000800000000000
000001000000000000
000006000000000000
000008000000000000
ENDCHAR
STARTCHAR 021B
ENCODING 539
SWIDTH 208 0
DWIDTH 15 0
BBX 22 40 3 -13
BITMAP
000100
000200
000400
000800
000800
001000
002000
004000
004000
008000
018000
3FFFFC
030000
060000
040000
0C0000
180000
180000
380000
300000
700000
700000
E00000
E01000
F0E000
7F0000
000000
000000
000000
0C0000
1C0000
0C0000
0C0000
0C0000
0C0000
180000
100000
200000
400000
800000
ENDCHAR
STARTCHAR 02C6
ENCODING 710
SWIDTH 236 0
DWIDTH 17 0
BBX 9 9 4 20
BITMAP
0080
0180
0780
0980
1180
2180
4180
8180
8100
ENDCHAR
STARTCHAR 02C7
ENCODING 711
SWIDTH 236 0
DWIDTH 17 0
BBX 9 9 5 20
BITMAP
4080
C080
C100
C600
C800
D000
E000
C000
8000
ENDCHAR
STARTCHAR 02C9
ENCODING 713
SWIDTH 236 0
DWIDTH 17 0
BBX 7 1 6 23
BITMAP
FE
ENDCHAR
STARTCHAR 02D8
ENCODING 728
SWIDTH 236 0
DWIDTH 17 0
BBX 10 5 4 21
BITMAP
4000
C040
C080
6300
3C00
ENDCHAR
STARTCHAR 02D9
ENCODING 729
SWIDTH 236 0
DWIDTH 17 0
BBX 3 3 6 22
BITMAP
60
E0
C0
ENDCHAR
STARTCHAR 02DA
ENCODING 730
SWIDTH 277 0
DWIDTH 20 0
BBX 9 8 4 21
BITMAP
1F00
6080
4080
8080
8080
8100
C100
7E00
ENDCHAR
STARTCHAR 02DB
ENCODING 731
SWIDTH 236 0
DWIDTH 17 0
BBX 6 8 5 -6
BITMAP
04
18
20
40
C0
C0
E0
78
ENDCHAR
STARTCHAR 02DC
ENCODING 732
SWIDTH 236 0
DWIDTH 17 0
BBX 16 5 0 21
BITMAP
0E01
1301
6182
80E2
807C
ENDCHAR
STARTCHAR 02DD
ENCODING 733
SWIDTH 236 0
DWIDTH 17 0
BBX 11 7 3 19
BITMAP
0420
0C60
08C0
1180
2300
4400
8000
ENDCHAR
STARTCHAR 0394
ENCODING 916
SWIDTH 597 0
DWIDTH 43 0
BBX 32 32 7 1
BITMAP
00000001
00000003
00000007
0000000F
00000017
00000026
00000046
00000086
0000010E
0000020E
0000040E
0000080C
0000100C
0000200C
0000400C
0000801C
0001001C
0002001C
0004001C
00080018
00100018
00200018
00400018
00800018
01000038
02000038
06000038
0C000038
18000030
30000030
7FFFFFF0
FFFFFFF0
ENDCHAR
STARTCHAR 03A9
ENCODING 937
SWIDTH 597 0
DWIDTH 43 0
BBX 39 34 5 -3
BITMAP
00000FFE00
00007807C0
0001C000F0
0007000078
000C000038
001800001C
003000001C
006000000E
00E000000E
01C000000E
018000000E
038000000E
030000000E
030000000E
070000000C
070000001C
060000001C
0600000018
0600000038
0600000030
0600000070
0600000060
06000000C0
0200000180
0300000100
0100000200
0100000C00
0080001020
0040006040
00300180C0
3FF00FFF80
3FF01FFF00
4000000000
8000000000
ENDCHAR
STARTCHAR 03BC
ENCODING 956
SWIDTH 402 0
DWIDTH 29 0
BBX 27 33 0 -18
BITMAP
00008060
000180C0
00030180
00020100
00060300
000C0200
000C0600
00180C00
00180C00
00301800
00703820
00A0F840
00E13080
01623100
01743200
02383C00
02000000
04000000
04000000
08000000
08000000
10000000
10000000
30000000
20000000
60000000
60000000
60000000
C0000000
C0000000
C0000000
C0000000
C0000000
ENDCHAR
STARTCHAR 03C0
ENCODING 960
SWIDTH 402 0
DWIDTH 29 0
BBX 22 16 7 0
BITMAP
03FFFC
07FFF8
042078
0840C0
104180
108180
008300
010200
010600
020600
040C00
040C00
081C00
101820
201840
C01980
ENDCHAR
STARTCHAR 2013
ENCODING 8211
SWIDTH 500 0
DWIDTH 36 0
BBX 25 1 10 10
BITMAP
FFFFFF80
ENDCHAR
STARTCHAR 2014
ENCODING 8212
SWIDTH 1000 0
DWIDTH 72 0
BBX 41 1 13 10
BITMAP
FFFFFFFFFF80
ENDCHAR
STARTCHAR 2018
ENCODING 8216
SWIDTH 208 0
DWIDTH 15 0
BBX 7 17 12 16
BITMAP
02
04
08
08
10
10
20
20
40
40
C0
C0
C0
C0
C0
C0
80
ENDCHAR
STARTCHAR 2019
ENCODING 8217
SWIDTH 208 0
DWIDTH 15 0
BBX 7 17 12 17
BITMAP
02
06
06
06
06
06
06
04
04
08
08
10
10
20
20
40
80
ENDCHAR
STARTCHAR 201A
ENCODING 8218
SWIDTH 208 0
DWIDTH 15 0
BBX 7 17 4 -7
BITMAP
02
06
06
06
06
06
06
04
04
08
08
10
10
20
40
40
80
ENDCHAR
ENDFONT
